<svg width="660" height="857" viewBox="0 0 660 857" fill="none" xmlns="http://www.w3.org/2000/svg">
<g id="doll">
<mask id="mask0_1501_3114" style="mask-type:alpha" maskUnits="userSpaceOnUse" x="0" y="0" width="660" height="857">
<rect id="rec" width="660" height="857" fill="#C4C4C4"/>
</mask>
<g mask="url(#mask0_1501_3114)">
<g id="doll_2">
<g id="doll_3">
<g id="e2">
<path id="e2_2" d="M416.909 104.11C405.084 -52.5332 146.997 -161.898 19.4312 -197C13.6826 -193.983 -0.606995 -173.471 -11.7758 -115.552C-22.9446 -57.634 -119.358 -19.5702 -166.168 -7.77809C-239.751 104.768 -117.989 185.009 -47.9102 211.061C-63.6779 240.02 -36.9604 288.395 -21.6306 308.963C-57.108 376.754 -23.8206 444.709 -2.7422 470.213C16.42 475.149 55.7299 495.881 59.6718 539.32C63.6137 582.759 95.2587 605.136 110.588 610.895C119.896 669.581 157.704 758.113 66.2492 802.767C34.9162 818.066 26.5098 968.758 121.273 958.813C216.036 948.869 306.68 990.176 350.389 972.582C394.099 954.989 426.764 887.324 380.775 857.707C343.984 834.013 345.188 779.275 350.389 754.869C354.769 762.547 379.297 778.398 442.368 780.372C505.439 782.347 512.447 740.608 508.067 719.492C537.631 711.594 529.693 688.778 522.028 678.357C532.54 673.092 534.073 655.321 533.525 647.094C522.575 644.9 507.246 636.728 533.525 621.59C559.805 606.453 548.855 584.02 540.095 574.696L514.637 528.625V496.361V484.725C514.637 484.725 531.335 433.191 533.525 426.61C549.95 360.793 500.676 326.24 484.251 303.204C471.111 284.775 466.731 242.872 466.184 224.224C481.951 163.673 439.904 118.918 416.909 104.11Z" fill="#FFB611"/>
</g>
<g id="TitleNew">
<g id="Group 32">
<g id="Group 30">
<path id="Vector" d="M213.88 598.797L220.406 578.38H225.276L216.516 603.865H211.646L203 578.368H207.912L214.354 598.785L213.88 598.797Z" fill="#0F0E0E"/>
<path id="Vector_2" d="M239.26 579.19H243.661L252.175 596.251H251.863L260.347 579.196H264.634V603.871H261.53V582.373H262.076L253.07 600.76H250.974L241.968 582.493H242.322V603.865H239.26V579.19Z" fill="#0F0E0E"/>
<path id="Vector_3" d="M279.33 604.339C277.755 604.369 276.199 603.982 274.821 603.216C273.479 602.445 272.396 601.291 271.711 599.902C270.959 598.191 270.57 596.342 270.57 594.473C270.57 592.604 270.959 590.755 271.711 589.045C272.397 587.658 273.479 586.506 274.821 585.736C276.208 585 277.754 584.615 279.324 584.615C280.894 584.615 282.441 585 283.828 585.736C285.166 586.506 286.245 587.658 286.926 589.045C287.671 590.757 288.055 592.605 288.055 594.473C288.055 596.341 287.671 598.189 286.926 599.902C286.247 601.291 285.168 602.445 283.828 603.216C282.454 603.98 280.902 604.368 279.33 604.339V604.339ZM279.252 601.655C280.341 601.705 281.417 601.406 282.323 600.801C283.229 600.196 283.918 599.317 284.29 598.292C284.756 597.072 284.98 595.773 284.95 594.467C284.95 592.225 284.484 590.46 283.551 589.171C283.076 588.529 282.448 588.017 281.725 587.679C281.001 587.342 280.205 587.19 279.408 587.237C278.305 587.2 277.217 587.504 276.292 588.108C275.418 588.731 274.749 589.601 274.371 590.606C273.904 591.838 273.68 593.149 273.71 594.467C273.71 596.677 274.179 598.428 275.115 599.722C275.59 600.362 276.217 600.874 276.939 601.211C277.662 601.549 278.456 601.702 279.252 601.655Z" fill="#0F0E0E"/>
<path id="Vector_4" d="M300.762 604.339C299.206 604.386 297.657 604.123 296.204 603.565C295.094 603.132 294.133 602.388 293.436 601.421C292.803 600.497 292.454 599.407 292.434 598.286H295.406C295.407 598.818 295.539 599.341 295.791 599.809C296.042 600.277 296.405 600.676 296.847 600.971C297.954 601.62 299.227 601.931 300.509 601.865C301.274 601.875 302.034 601.74 302.749 601.469C303.374 601.249 303.935 600.878 304.382 600.388C304.77 599.966 304.984 599.412 304.983 598.839C304.997 598.507 304.932 598.177 304.792 597.876C304.652 597.575 304.441 597.312 304.178 597.109C303.4 596.581 302.527 596.208 301.608 596.01L297.952 594.809C296.585 594.441 295.332 593.737 294.307 592.762C293.893 592.355 293.565 591.87 293.341 591.335C293.118 590.8 293.003 590.225 293.004 589.645C292.995 588.914 293.175 588.194 293.526 587.553C293.877 586.912 294.388 586.373 295.009 585.988C296.585 585.007 298.421 584.527 300.275 584.613C302.581 584.613 304.364 585.087 305.637 586.03C306.223 586.422 306.708 586.946 307.052 587.561C307.396 588.175 307.59 588.863 307.618 589.567H304.616C304.571 589.177 304.434 588.802 304.216 588.475C303.998 588.149 303.705 587.878 303.361 587.687C302.414 587.211 301.358 586.991 300.299 587.051C299.23 586.981 298.17 587.282 297.297 587.904C296.982 588.113 296.721 588.394 296.535 588.724C296.35 589.054 296.244 589.423 296.228 589.801C296.228 591.098 297.341 592.055 299.567 592.672L303.295 593.927C304.656 594.278 305.922 594.929 307 595.83C307.419 596.208 307.75 596.672 307.972 597.19C308.194 597.709 308.301 598.269 308.285 598.833C308.277 599.8 307.954 600.738 307.366 601.505C306.681 602.395 305.783 603.097 304.754 603.547C303.497 604.098 302.134 604.368 300.762 604.339Z" fill="#0F0E0E"/>
<path id="Vector_5" d="M312.018 587.207V585.087H324.026V587.207H312.018ZM320.424 604.339C319.473 604.35 318.533 604.145 317.674 603.739C316.867 603.343 316.196 602.716 315.746 601.937C315.25 601.038 315.007 600.021 315.044 598.995V579.863H318.046V598.953C318.046 600.895 318.951 601.865 320.76 601.865C321.285 601.867 321.809 601.806 322.321 601.685C322.898 601.546 323.466 601.37 324.02 601.157L324.452 603.355C323.806 603.638 323.139 603.874 322.459 604.063C321.796 604.248 321.112 604.341 320.424 604.339V604.339Z" fill="#0F0E0E"/>
<path id="Vector_6" d="M329.418 603.865V585.045H332.486V603.865H329.418ZM331.543 595.38C331.497 593.376 331.728 591.376 332.228 589.435C332.55 588.091 333.247 586.866 334.239 585.904C335.133 585.121 336.288 584.702 337.476 584.733C337.864 584.736 338.252 584.772 338.635 584.841C338.992 584.899 339.343 584.987 339.685 585.105L339.487 588.108C339.094 587.981 338.693 587.878 338.286 587.801C337.905 587.723 337.517 587.681 337.128 587.675C336.141 587.627 335.175 587.967 334.438 588.624C333.698 589.36 333.183 590.291 332.955 591.308C332.624 592.638 332.468 594.004 332.492 595.374L331.543 595.38Z" fill="#0F0E0E"/>
<path id="Vector_7" d="M348.844 604.339C347.518 604.389 346.2 604.104 345.013 603.511C344.111 603.048 343.353 602.345 342.823 601.479C342.294 600.614 342.013 599.619 342.011 598.605C341.959 597.49 342.297 596.393 342.966 595.5C343.642 594.672 344.546 594.061 345.566 593.74C346.766 593.353 348.021 593.165 349.282 593.182C350.274 593.182 351.264 593.281 352.236 593.476C353.223 593.668 354.192 593.937 355.136 594.281V596.203C354.274 595.87 353.381 595.62 352.471 595.458C351.574 595.285 350.664 595.192 349.751 595.182C348.638 595.144 347.537 595.414 346.568 595.962C346.13 596.241 345.777 596.635 345.548 597.101C345.319 597.567 345.224 598.087 345.271 598.605C345.266 599.045 345.352 599.481 345.523 599.886C345.695 600.291 345.948 600.656 346.268 600.959C346.929 601.611 347.985 601.939 349.438 601.943C350.407 601.957 351.362 601.708 352.2 601.223C352.979 600.781 353.645 600.164 354.146 599.421C354.593 598.788 354.842 598.035 354.86 597.259H355.605C355.617 598.473 355.337 599.672 354.788 600.754C354.252 601.864 353.406 602.795 352.352 603.435C351.298 604.074 350.082 604.394 348.85 604.357L348.844 604.339ZM355.245 603.865L354.854 599.74V591.687C354.854 589.999 354.494 588.78 353.774 588.042C353.337 587.646 352.824 587.344 352.267 587.153C351.709 586.962 351.119 586.886 350.531 586.931C349.78 586.922 349.033 587.042 348.322 587.285C347.703 587.491 347.157 587.871 346.748 588.378C346.34 588.922 346.128 589.589 346.148 590.27H342.732C342.673 589.089 343.028 587.926 343.734 586.979C344.454 586.118 345.413 585.491 346.49 585.177C347.793 584.786 349.147 584.598 350.507 584.619C351.82 584.597 353.124 584.844 354.338 585.345C355.433 585.817 356.349 586.627 356.95 587.657C357.63 588.918 357.955 590.34 357.892 591.771V603.871L355.245 603.865Z" fill="#0F0E0E"/>
<path id="Vector_8" d="M383.144 604.339C381.146 604.391 379.181 603.818 377.524 602.7C375.92 601.548 374.671 599.969 373.921 598.142C373.03 595.999 372.595 593.695 372.642 591.375C372.568 588.993 373.043 586.626 374.029 584.457C374.846 582.703 376.156 581.225 377.8 580.205C379.421 579.231 381.283 578.729 383.174 578.758C385.804 578.758 387.921 579.416 389.526 580.734C391.137 582.061 392.294 583.858 392.835 585.874L389.538 586.54C389.095 585.107 388.244 583.834 387.089 582.877C385.988 581.97 384.6 581.485 383.174 581.508C381.888 581.5 380.63 581.888 379.571 582.619C378.398 583.453 377.483 584.599 376.929 585.928C376.21 587.651 375.868 589.508 375.927 591.375C375.898 593.154 376.166 594.926 376.719 596.617C377.171 598.017 378.002 599.264 379.121 600.22C380.269 601.124 381.702 601.59 383.162 601.535C384.853 601.627 386.514 601.066 387.803 599.968C388.372 599.446 388.82 598.807 389.118 598.094C389.416 597.382 389.555 596.614 389.526 595.842H392.865C392.914 597.442 392.497 599.021 391.664 600.388C390.832 601.669 389.647 602.682 388.254 603.307C386.647 604.024 384.902 604.376 383.144 604.339Z" fill="#0F0E0E"/>
<path id="Vector_9" d="M405.457 604.339C403.882 604.369 402.326 603.982 400.948 603.216C399.605 602.445 398.523 601.291 397.838 599.902C397.086 598.191 396.697 596.342 396.697 594.473C396.697 592.604 397.086 590.755 397.838 589.045C398.524 587.658 399.606 586.506 400.948 585.736C402.335 585 403.881 584.615 405.451 584.615C407.021 584.615 408.568 585 409.955 585.736C411.294 586.507 412.374 587.659 413.059 589.045C413.803 590.757 414.188 592.605 414.188 594.473C414.188 596.341 413.803 598.189 413.059 599.902C412.375 601.29 411.295 602.444 409.955 603.216C408.581 603.981 407.029 604.369 405.457 604.339V604.339ZM405.379 601.667C406.468 601.717 407.544 601.418 408.45 600.813C409.356 600.208 410.045 599.329 410.417 598.304C410.883 597.084 411.107 595.785 411.077 594.479C411.077 592.239 410.609 590.474 409.684 589.183C409.208 588.541 408.579 588.027 407.855 587.69C407.13 587.352 406.333 587.201 405.535 587.249C404.434 587.211 403.347 587.515 402.425 588.12C401.549 588.742 400.877 589.612 400.498 590.618C400.031 591.85 399.807 593.161 399.837 594.479C399.837 596.689 400.306 598.44 401.242 599.734C401.719 600.372 402.346 600.881 403.068 601.217C403.79 601.552 404.584 601.703 405.379 601.655V601.667Z" fill="#0F0E0E"/>
<path id="Vector_10" d="M420.131 603.865V585.087H422.761L423.115 588.858C423.625 587.595 424.488 586.504 425.601 585.718C426.737 584.961 428.079 584.575 429.444 584.613C430.779 584.575 432.097 584.919 433.244 585.604C434.306 586.294 435.142 587.282 435.646 588.444C436.236 589.828 436.523 591.323 436.487 592.828V603.865H433.484V592.828C433.484 591.03 433.054 589.665 432.194 588.732C431.745 588.259 431.2 587.888 430.594 587.645C429.989 587.403 429.338 587.294 428.687 587.327C427.638 587.303 426.61 587.626 425.763 588.246C424.891 588.931 424.231 589.849 423.86 590.894C423.382 592.205 423.153 593.594 423.187 594.99V603.865H420.131ZM446.55 603.865V592.828C446.55 591.026 446.118 589.669 445.265 588.732C444.764 588.242 444.165 587.864 443.507 587.624C442.848 587.383 442.146 587.287 441.447 587.34C440.748 587.394 440.069 587.596 439.455 587.933C438.841 588.271 438.306 588.736 437.886 589.297C436.985 590.618 436.529 592.431 436.529 594.749H435.118C435.096 593.255 435.264 591.764 435.616 590.312C435.892 589.169 436.389 588.091 437.081 587.141C437.689 586.324 438.492 585.671 439.417 585.243C440.401 584.809 441.469 584.594 442.545 584.613C443.88 584.575 445.199 584.919 446.346 585.604C447.408 586.294 448.243 587.282 448.747 588.444C449.338 589.828 449.624 591.323 449.588 592.828V603.865H446.55Z" fill="#0F0E0E"/>
<path id="Vector_11" d="M456.885 613.101V585.087H459.437L459.947 589.489V613.101H456.885ZM465.411 604.339C464.145 604.375 462.895 604.048 461.808 603.397C460.764 602.735 459.945 601.772 459.461 600.634C458.87 599.233 458.588 597.722 458.632 596.203H459.923C459.89 597.234 460.141 598.254 460.649 599.151C461.106 599.913 461.762 600.536 462.547 600.953C463.314 601.353 464.167 601.559 465.033 601.553C465.995 601.548 466.936 601.264 467.741 600.736C468.654 600.143 469.388 599.313 469.866 598.334C470.458 597.126 470.755 595.794 470.731 594.449C470.767 593.132 470.508 591.823 469.974 590.618C469.534 589.632 468.83 588.788 467.939 588.18C467.101 587.623 466.116 587.33 465.111 587.339C464.232 587.336 463.368 587.559 462.601 587.988C461.803 588.431 461.142 589.086 460.691 589.879C460.183 590.822 459.932 591.883 459.965 592.954H458.668C458.618 591.376 458.928 589.807 459.575 588.366C460.101 587.212 460.955 586.239 462.03 585.568C463.08 584.937 464.283 584.611 465.507 584.625C466.962 584.628 468.386 585.044 469.614 585.826C470.924 586.655 471.988 587.821 472.694 589.201C473.525 590.829 473.938 592.639 473.895 594.467C473.939 596.314 473.527 598.144 472.694 599.794C471.98 601.186 470.904 602.361 469.578 603.193C468.324 603.957 466.88 604.355 465.411 604.339V604.339Z" fill="#0F0E0E"/>
<path id="Vector_12" d="M486.341 604.339C484.8 604.364 483.287 603.929 481.994 603.09C480.699 602.228 479.661 601.03 478.992 599.625C478.227 598.032 477.847 596.282 477.881 594.515C477.833 592.686 478.209 590.872 478.98 589.213C479.628 587.809 480.672 586.625 481.984 585.808C483.297 584.99 484.82 584.575 486.365 584.613C487.639 584.575 488.9 584.873 490.022 585.478C491.017 586.042 491.855 586.847 492.46 587.82C493.087 588.841 493.523 589.968 493.744 591.146C493.988 592.412 494.057 593.705 493.949 594.99H480.337V593.104H491.925L491.025 593.704C491.062 592.929 491.017 592.152 490.892 591.387C490.781 590.642 490.545 589.921 490.196 589.255C489.867 588.616 489.374 588.077 488.767 587.693C488.055 587.27 487.235 587.061 486.407 587.093C485.333 587.06 484.277 587.383 483.405 588.012C482.599 588.636 481.977 589.466 481.604 590.414C481.194 591.449 480.99 592.555 481.003 593.668V594.924C480.987 596.123 481.19 597.316 481.604 598.442C481.962 599.414 482.586 600.265 483.405 600.899C484.3 601.475 485.342 601.782 486.407 601.782C487.472 601.782 488.514 601.475 489.409 600.899C489.812 600.582 490.147 600.188 490.393 599.739C490.64 599.29 490.793 598.796 490.844 598.286H494.027C493.871 599.435 493.423 600.525 492.725 601.45C492.027 602.376 491.102 603.106 490.04 603.571C488.877 604.091 487.615 604.353 486.341 604.339V604.339Z" fill="#0F0E0E"/>
<path id="Vector_13" d="M497.389 587.207V585.087H509.397V587.207H497.389ZM505.795 604.339C504.844 604.35 503.904 604.145 503.045 603.739C502.238 603.343 501.567 602.716 501.117 601.937C500.619 601.039 500.374 600.022 500.409 598.995V579.863H503.411V598.953C503.411 600.895 504.316 601.865 506.125 601.865C506.651 601.867 507.174 601.806 507.686 601.685C508.263 601.546 508.831 601.37 509.385 601.157L509.818 603.355C509.171 603.638 508.504 603.874 507.824 604.063C507.163 604.247 506.481 604.34 505.795 604.339V604.339Z" fill="#0F0E0E"/>
<path id="Vector_14" d="M516.52 580.637C516.247 580.652 515.974 580.612 515.718 580.519C515.461 580.426 515.225 580.283 515.025 580.097C514.841 579.91 514.697 579.687 514.603 579.442C514.509 579.198 514.467 578.936 514.479 578.674C514.467 578.419 514.51 578.165 514.604 577.928C514.698 577.69 514.842 577.476 515.025 577.299C515.454 576.965 515.982 576.783 516.526 576.783C517.07 576.783 517.598 576.965 518.027 577.299C518.21 577.476 518.354 577.69 518.448 577.928C518.542 578.165 518.585 578.419 518.573 578.674C518.585 578.936 518.543 579.198 518.449 579.442C518.355 579.687 518.211 579.91 518.027 580.097C517.825 580.284 517.588 580.428 517.329 580.521C517.07 580.614 516.795 580.654 516.52 580.637ZM514.989 603.859V585.045H518.051V603.865L514.989 603.859Z" fill="#0F0E0E"/>
<path id="Vector_15" d="M523.871 587.207V585.087H535.88V587.207H523.871ZM532.277 604.339C531.327 604.35 530.386 604.145 529.527 603.739C528.719 603.345 528.048 602.717 527.6 601.937C527.101 601.039 526.856 600.022 526.891 598.995V579.863H529.893V598.953C529.893 600.895 530.798 601.865 532.607 601.865C533.133 601.867 533.657 601.806 534.168 601.685C534.746 601.546 535.313 601.37 535.868 601.157L536.3 603.355C535.653 603.637 534.987 603.873 534.307 604.063C533.646 604.247 532.963 604.339 532.277 604.339V604.339Z" fill="#0F0E0E"/>
<path id="Vector_16" d="M542.997 580.637C542.724 580.652 542.451 580.612 542.194 580.519C541.937 580.426 541.702 580.283 541.501 580.097C541.317 579.91 541.174 579.687 541.08 579.442C540.986 579.198 540.943 578.936 540.955 578.674C540.944 578.419 540.986 578.165 541.081 577.928C541.175 577.69 541.318 577.476 541.501 577.299C541.931 576.965 542.459 576.783 543.003 576.783C543.546 576.783 544.075 576.965 544.504 577.299C544.687 577.476 544.83 577.69 544.925 577.928C545.019 578.165 545.061 578.419 545.05 578.674C545.062 578.936 545.02 579.198 544.925 579.442C544.831 579.687 544.688 579.91 544.504 580.097C544.302 580.284 544.064 580.428 543.805 580.521C543.546 580.614 543.271 580.654 542.997 580.637ZM541.465 603.859V585.045H544.528V603.865L541.465 603.859Z" fill="#0F0E0E"/>
<path id="Vector_17" d="M549.717 585.087H553.211L559.102 601.235H558.669L564.565 585.087H568.06L560.561 603.865H557.192L549.717 585.087Z" fill="#0F0E0E"/>
<path id="Vector_18" d="M577.944 604.339C576.617 604.389 575.3 604.104 574.113 603.511C573.21 603.048 572.453 602.345 571.923 601.479C571.393 600.614 571.112 599.619 571.111 598.605C571.059 597.49 571.396 596.393 572.065 595.5C572.743 594.671 573.649 594.059 574.671 593.74C575.869 593.353 577.123 593.164 578.382 593.182C579.374 593.182 580.363 593.281 581.336 593.476C582.322 593.668 583.292 593.937 584.236 594.281V596.203C583.373 595.87 582.481 595.62 581.57 595.458C580.674 595.285 579.763 595.192 578.85 595.182C577.738 595.144 576.637 595.414 575.668 595.962C575.23 596.241 574.877 596.635 574.648 597.101C574.419 597.567 574.323 598.087 574.371 598.605C574.367 599.044 574.453 599.48 574.625 599.885C574.796 600.29 575.049 600.656 575.368 600.959C576.028 601.611 577.085 601.939 578.538 601.943C579.507 601.957 580.461 601.708 581.3 601.223C582.079 600.781 582.745 600.164 583.245 599.421C583.693 598.788 583.941 598.035 583.96 597.259H584.704C584.716 598.472 584.438 599.67 583.894 600.754C583.364 601.812 582.559 602.708 581.564 603.349C580.481 604.028 579.222 604.372 577.944 604.339V604.339ZM584.344 603.865L583.954 599.74V591.687C583.954 589.999 583.594 588.78 582.873 588.042C582.436 587.646 581.924 587.344 581.366 587.153C580.809 586.962 580.218 586.886 579.631 586.931C578.879 586.922 578.132 587.042 577.421 587.285C576.803 587.491 576.257 587.871 575.848 588.378C575.439 588.922 575.228 589.589 575.248 590.27H571.831C571.773 589.089 572.128 587.926 572.834 586.979C573.554 586.118 574.513 585.491 575.59 585.177C576.892 584.786 578.247 584.598 579.607 584.619C580.92 584.597 582.224 584.844 583.438 585.345C584.535 585.814 585.451 586.625 586.049 587.657C586.729 588.918 587.055 590.34 586.992 591.771V603.871L584.344 603.865Z" fill="#0F0E0E"/>
</g>
<g id="Group 31">
<path id="Vector_19" d="M211.615 651.497C210.127 651.518 208.665 651.101 207.412 650.296C206.104 649.439 205.052 648.244 204.368 646.837C203.622 645.195 203.236 643.411 203.236 641.607C203.236 639.803 203.622 638.019 204.368 636.377C205.034 635 206.061 633.829 207.34 632.99C208.552 632.199 209.97 631.782 211.417 631.789C212.701 631.748 213.967 632.099 215.048 632.794C216.128 633.488 216.973 634.495 217.469 635.68C218.081 637.111 218.378 638.658 218.34 640.214H217.139C217.175 639.126 216.927 638.048 216.419 637.085C215.97 636.277 215.307 635.608 214.503 635.152C213.73 634.716 212.857 634.488 211.969 634.491C210.969 634.485 209.991 634.784 209.165 635.35C208.29 635.957 207.591 636.786 207.142 637.752C206.61 638.94 206.352 640.233 206.385 641.535C206.35 642.858 206.609 644.173 207.142 645.384C207.575 646.39 208.275 647.258 209.165 647.894C209.989 648.464 210.968 648.766 211.969 648.759C212.834 648.752 213.683 648.521 214.431 648.086C215.251 647.61 215.928 646.922 216.388 646.093C216.912 645.148 217.172 644.08 217.139 643H218.34C218.385 644.59 218.079 646.171 217.445 647.63C216.931 648.795 216.098 649.792 215.044 650.506C214.024 651.168 212.831 651.513 211.615 651.497V651.497ZM217.661 651.023L217.139 646.615V624.222H220.207V651.017L217.661 651.023Z" fill="#0F0E0E"/>
<path id="Vector_20" d="M234.695 651.497C233.154 651.517 231.641 651.081 230.348 650.242C229.052 649.377 228.015 648.178 227.346 646.771C226.581 645.18 226.2 643.432 226.235 641.667C226.185 639.836 226.564 638.018 227.34 636.358C227.989 634.956 229.034 633.774 230.346 632.958C231.658 632.142 233.18 631.727 234.725 631.765C235.996 631.728 237.255 632.026 238.375 632.629C239.369 633.193 240.207 633.996 240.813 634.965C241.431 635.986 241.856 637.112 242.068 638.286C242.314 639.549 242.384 640.841 242.278 642.123H228.685V640.238H240.255L239.348 640.838C239.39 640.063 239.348 639.286 239.222 638.52C239.104 637.777 238.869 637.058 238.526 636.388C238.191 635.752 237.697 635.214 237.091 634.827C236.377 634.407 235.559 634.198 234.731 634.227C233.655 634.194 232.6 634.52 231.729 635.151C230.922 635.774 230.299 636.604 229.927 637.553C229.52 638.588 229.316 639.691 229.327 640.802V642.063C229.306 643.261 229.51 644.453 229.927 645.576C230.28 646.551 230.905 647.403 231.729 648.032C232.602 648.658 233.657 648.977 234.731 648.939C235.801 648.983 236.857 648.673 237.733 648.056C238.123 647.742 238.448 647.354 238.688 646.914C238.928 646.474 239.079 645.991 239.132 645.492H242.314C242.15 646.659 241.691 647.765 240.981 648.705C240.284 649.607 239.372 650.319 238.327 650.777C237.182 651.274 235.943 651.52 234.695 651.497Z" fill="#0F0E0E"/>
<path id="Vector_21" d="M266.629 651.569C264.575 651.642 262.547 651.089 260.814 649.984C259.081 648.878 257.725 647.272 256.926 645.378C255.958 643.115 255.492 640.669 255.563 638.208C255.484 635.712 255.971 633.23 256.986 630.948C257.827 629.113 259.194 627.569 260.913 626.51C262.647 625.489 264.629 624.967 266.641 625.003C269.611 625.003 271.933 625.724 273.606 627.165C275.282 628.62 276.415 630.602 276.818 632.786L271.865 633.692C271.524 632.454 270.851 631.333 269.919 630.45C269.031 629.623 267.854 629.179 266.641 629.212C265.532 629.202 264.45 629.55 263.555 630.203C262.556 630.976 261.798 632.018 261.369 633.206C260.778 634.807 260.5 636.508 260.552 638.214C260.518 639.866 260.76 641.512 261.267 643.084C261.652 644.305 262.369 645.395 263.338 646.231C264.276 646.974 265.445 647.363 266.641 647.33C267.34 647.373 268.041 647.279 268.703 647.051C269.366 646.823 269.977 646.467 270.502 646.003C270.953 645.565 271.307 645.037 271.542 644.454C271.776 643.87 271.886 643.244 271.865 642.616H276.818C276.881 644.31 276.465 645.988 275.617 647.456C274.781 648.803 273.56 649.868 272.111 650.512C270.384 651.265 268.512 651.626 266.629 651.569V651.569Z" fill="#0F0E0E"/>
<path id="Vector_22" d="M284.986 628.462C284.217 628.51 283.459 628.253 282.878 627.747C282.395 627.199 282.129 626.493 282.129 625.763C282.129 625.032 282.395 624.326 282.878 623.778C283.476 623.302 284.216 623.043 284.98 623.043C285.743 623.043 286.484 623.302 287.081 623.778C287.572 624.323 287.843 625.03 287.843 625.763C287.843 626.495 287.572 627.202 287.081 627.747C286.502 628.248 285.75 628.504 284.986 628.462ZM282.668 651.017V631.885H287.303V651.017H282.668Z" fill="#0F0E0E"/>
<path id="Vector_23" d="M295.135 651.017V631.963H299.182L299.782 635.734V651.017H295.135ZM308.218 651.017V639.86C308.303 638.701 307.938 637.554 307.197 636.659C306.854 636.3 306.438 636.018 305.977 635.832C305.517 635.645 305.022 635.559 304.525 635.578C303.643 635.562 302.778 635.829 302.058 636.341C301.284 636.93 300.701 637.734 300.383 638.652C299.944 639.883 299.741 641.184 299.782 642.49H298.251C298.191 640.391 298.504 638.299 299.176 636.311C299.658 634.85 300.568 633.567 301.788 632.629C302.947 631.813 304.339 631.392 305.756 631.428C307.145 631.378 308.516 631.744 309.695 632.479C310.776 633.199 311.613 634.229 312.097 635.434C312.656 636.847 312.928 638.358 312.895 639.878V651.017H308.218Z" fill="#0F0E0E"/>
<path id="Vector_24" d="M326.717 651.569C325.142 651.582 323.597 651.145 322.262 650.308C320.885 649.445 319.766 648.227 319.02 646.783C318.184 645.139 317.771 643.313 317.819 641.469C317.766 639.596 318.179 637.739 319.02 636.064C319.744 634.647 320.849 633.46 322.211 632.638C323.573 631.816 325.138 631.391 326.729 631.41C328.099 631.375 329.454 631.689 330.668 632.323C331.752 632.911 332.671 633.761 333.34 634.797C334.027 635.871 334.492 637.072 334.709 638.328C334.944 639.666 334.956 641.034 334.745 642.376H321.536V639.859H331.497L330.59 640.46C330.631 639.836 330.603 639.21 330.506 638.592C330.413 637.989 330.222 637.405 329.942 636.863C329.673 636.344 329.271 635.907 328.777 635.596C328.19 635.257 327.52 635.091 326.843 635.115C325.988 635.089 325.146 635.337 324.442 635.824C323.775 636.312 323.259 636.978 322.953 637.746C322.6 638.621 322.426 639.558 322.442 640.502V642.346C322.422 643.316 322.585 644.282 322.923 645.192C323.2 645.967 323.699 646.644 324.358 647.138C325.058 647.632 325.903 647.881 326.759 647.846C327.563 647.883 328.359 647.673 329.041 647.246C329.359 647.03 329.63 646.751 329.837 646.427C330.043 646.103 330.181 645.74 330.242 645.36H334.919C334.741 646.545 334.264 647.665 333.532 648.615C332.788 649.567 331.821 650.322 330.716 650.813C329.455 651.356 328.09 651.614 326.717 651.569Z" fill="#0F0E0E"/>
<path id="Vector_25" d="M340.432 651.017V631.963H344.479L344.989 635.224C345.53 634.051 346.397 633.059 347.487 632.365C348.557 631.716 349.79 631.385 351.041 631.41C352.43 631.36 353.801 631.726 354.98 632.461C356.058 633.183 356.895 634.213 357.382 635.416C357.937 636.83 358.206 638.34 358.174 639.859V651.017H353.539V639.859C353.624 638.701 353.259 637.554 352.518 636.659C352.175 636.3 351.759 636.018 351.298 635.832C350.838 635.645 350.343 635.559 349.846 635.578C348.963 635.562 348.099 635.829 347.379 636.341C346.605 636.93 346.022 637.734 345.703 638.652C345.265 639.883 345.061 641.184 345.103 642.49V651.017H340.432ZM366.322 651.017V639.859C366.407 638.701 366.042 637.554 365.301 636.659C364.958 636.3 364.542 636.018 364.081 635.832C363.621 635.645 363.126 635.559 362.63 635.578C361.985 635.558 361.346 635.702 360.772 635.997C360.199 636.293 359.71 636.729 359.351 637.265C358.553 638.394 358.15 640.094 358.15 642.376H356.223C356.191 640.659 356.381 638.945 356.787 637.277C357.076 636.052 357.618 634.9 358.379 633.896C359.009 633.077 359.835 632.429 360.78 632.011C361.755 631.601 362.803 631.396 363.86 631.41C365.243 631.361 366.609 631.727 367.781 632.461C368.861 633.182 369.698 634.212 370.183 635.416C370.75 636.827 371.026 638.339 370.994 639.859V651.017H366.322Z" fill="#0F0E0E"/>
<path id="Vector_26" d="M383.609 651.569C382.194 651.617 380.789 651.322 379.514 650.711C378.495 650.21 377.64 649.431 377.046 648.465C376.507 647.556 376.223 646.519 376.223 645.462C376.188 644.371 376.522 643.3 377.172 642.424C377.876 641.561 378.814 640.921 379.874 640.58C381.205 640.147 382.6 639.944 383.999 639.98C384.982 639.975 385.964 640.054 386.935 640.214C387.867 640.372 388.789 640.582 389.697 640.844V643.553C388.927 643.305 388.138 643.122 387.337 643.006C386.543 642.878 385.74 642.812 384.935 642.808C383.996 642.769 383.063 642.976 382.228 643.408C381.874 643.618 381.587 643.923 381.399 644.288C381.211 644.654 381.13 645.065 381.165 645.474C381.168 645.819 381.248 646.16 381.397 646.471C381.546 646.782 381.762 647.057 382.029 647.276C382.824 647.854 383.8 648.127 384.779 648.044C385.635 648.071 386.481 647.852 387.217 647.414C387.851 647.03 388.375 646.488 388.736 645.84C389.07 645.268 389.25 644.618 389.259 643.955H390.357C390.372 645.261 390.112 646.556 389.595 647.756C389.116 648.879 388.329 649.843 387.325 650.536C386.223 651.257 384.924 651.617 383.609 651.569V651.569ZM389.853 651.017L389.253 646.381V638.718C389.337 637.664 389.047 636.614 388.436 635.752C387.896 635.111 386.977 634.791 385.68 634.791C385.016 634.775 384.356 634.887 383.735 635.121C383.228 635.309 382.788 635.641 382.468 636.076C382.164 636.517 382.009 637.043 382.023 637.577H376.956C376.902 636.32 377.267 635.08 377.995 634.053C378.764 633.09 379.813 632.389 380.997 632.047C382.517 631.593 384.099 631.379 385.686 631.41C387.165 631.378 388.634 631.65 390.003 632.209C391.193 632.702 392.197 633.557 392.873 634.653C393.597 635.932 393.95 637.388 393.894 638.857V651.017H389.853Z" fill="#0F0E0E"/>
<path id="Vector_27" d="M410.557 625.519H415.624L427.213 643.691H426.864V625.519H431.494V651.017H426.774L414.442 631.723H415.186V651.017H410.551L410.557 625.519Z" fill="#0F0E0E"/>
<path id="Vector_28" d="M445.903 651.569C444.326 651.582 442.779 651.145 441.442 650.308C440.068 649.443 438.951 648.226 438.205 646.783C437.367 645.14 436.954 643.313 437.005 641.469C436.952 639.596 437.364 637.739 438.205 636.064C438.927 634.648 440.03 633.461 441.39 632.639C442.75 631.816 444.314 631.391 445.903 631.41C447.272 631.375 448.628 631.69 449.842 632.323C450.925 632.912 451.843 633.763 452.514 634.797C453.199 635.872 453.662 637.072 453.877 638.328C454.113 639.666 454.127 641.033 453.919 642.376H440.691V639.859H450.646L449.746 640.46C449.784 639.836 449.754 639.21 449.656 638.592C449.567 637.989 449.379 637.404 449.097 636.863C448.825 636.345 448.421 635.908 447.926 635.596C447.341 635.255 446.67 635.088 445.993 635.115C445.137 635.086 444.294 635.335 443.591 635.824C442.922 636.312 442.404 636.977 442.096 637.746C441.746 638.622 441.573 639.559 441.586 640.502V642.346C441.569 643.316 441.732 644.281 442.066 645.192C442.347 645.965 442.845 646.641 443.501 647.138C444.197 647.587 445.004 647.832 445.832 647.846C446.659 647.86 447.475 647.642 448.185 647.216C448.502 646.999 448.771 646.72 448.978 646.396C449.184 646.072 449.323 645.709 449.385 645.33H454.057C453.883 646.516 453.408 647.637 452.676 648.585C451.929 649.537 450.96 650.292 449.854 650.783C448.61 651.33 447.261 651.598 445.903 651.569V651.569Z" fill="#0F0E0E"/>
<path id="Vector_29" d="M466.97 660.877C465.061 660.924 463.16 660.618 461.362 659.977C459.995 659.497 458.769 658.684 457.796 657.611C457.012 656.736 456.573 655.608 456.559 654.434C456.531 653.831 456.651 653.23 456.908 652.683C457.166 652.137 457.553 651.662 458.036 651.299C459.117 650.531 460.421 650.143 461.746 650.194L465.121 651.449C464.083 651.385 463.05 651.638 462.161 652.176C461.828 652.396 461.557 652.697 461.374 653.051C461.191 653.406 461.102 653.801 461.116 654.2C461.116 655.1 461.636 655.825 462.677 656.373C464.025 656.976 465.495 657.253 466.97 657.184C468.145 657.208 469.313 657.004 470.411 656.584C471.274 656.266 472.045 655.74 472.656 655.052C473.156 654.502 473.439 653.79 473.455 653.047C473.461 652.831 473.422 652.617 473.34 652.417C473.258 652.218 473.136 652.037 472.98 651.888C472.572 651.555 472.052 651.394 471.527 651.437H465.115C463.919 651.459 462.729 651.255 461.608 650.837C460.651 650.488 459.79 649.916 459.098 649.167C458.5 648.532 458.165 647.692 458.162 646.819C458.144 646.072 458.381 645.342 458.834 644.748C459.303 644.146 459.925 643.681 460.636 643.403C461.456 643.075 462.334 642.914 463.217 642.928L464.418 644.459C464.042 644.459 463.67 644.537 463.325 644.688C462.989 644.83 462.695 645.058 462.473 645.348C462.243 645.658 462.124 646.037 462.137 646.423C462.133 646.675 462.191 646.924 462.308 647.147C462.424 647.371 462.594 647.561 462.803 647.702C463.509 648.094 464.316 648.265 465.121 648.195H471.527C473.202 648.102 474.869 648.489 476.331 649.312C476.9 649.679 477.361 650.191 477.666 650.796C477.971 651.401 478.109 652.076 478.066 652.752C478.051 654.172 477.575 655.549 476.709 656.674C475.703 657.981 474.383 659.014 472.872 659.676C471.019 660.512 469.003 660.923 466.97 660.877V660.877ZM467.204 645.126C465.783 645.15 464.374 644.865 463.073 644.291C461.879 643.769 460.843 642.94 460.071 641.889C459.313 640.843 458.919 639.578 458.948 638.286C458.918 636.98 459.312 635.699 460.071 634.635C460.836 633.577 461.874 632.747 463.073 632.233C464.375 631.664 465.784 631.38 467.204 631.398C468.603 631.384 469.989 631.668 471.269 632.233C472.466 632.753 473.502 633.582 474.271 634.635C475.039 635.695 475.44 636.977 475.412 638.286C475.438 639.58 475.037 640.846 474.271 641.889C473.494 642.935 472.46 643.762 471.269 644.291C469.991 644.862 468.604 645.147 467.204 645.126V645.126ZM467.246 641.901C467.746 641.938 468.248 641.864 468.716 641.685C469.185 641.505 469.607 641.224 469.954 640.862C470.545 640.119 470.867 639.197 470.867 638.247C470.867 637.297 470.545 636.376 469.954 635.632C469.194 634.984 468.227 634.628 467.228 634.628C466.229 634.628 465.263 634.984 464.502 635.632C463.891 636.367 463.557 637.292 463.557 638.247C463.557 639.203 463.891 640.128 464.502 640.862C464.86 641.219 465.29 641.496 465.763 641.673C466.236 641.85 466.742 641.924 467.246 641.889V641.901ZM473.965 634.473L471.84 633.272C471.817 632.216 472.094 631.175 472.638 630.269C473.151 629.425 473.884 628.736 474.758 628.276C475.662 627.797 476.671 627.554 477.694 627.567L477.46 632.005C476.553 631.946 475.649 632.155 474.86 632.605C474.561 632.812 474.322 633.093 474.165 633.421C474.008 633.748 473.939 634.111 473.965 634.473V634.473Z" fill="#0F0E0E"/>
<path id="Vector_30" d="M482.488 651.017V631.885H487.13V651.017H482.488ZM485.989 642.646C485.931 640.546 486.217 638.45 486.835 636.443C487.243 635.043 488.025 633.783 489.099 632.798C489.978 632.027 491.106 631.6 492.275 631.597C492.575 631.595 492.874 631.615 493.17 631.657C493.452 631.694 493.731 631.753 494.005 631.831L493.938 636.485C493.602 636.409 493.236 636.343 492.84 636.287C492.489 636.239 492.136 636.213 491.783 636.208C490.871 636.175 489.973 636.434 489.219 636.947C488.489 637.494 487.945 638.253 487.664 639.121C487.29 640.259 487.115 641.454 487.148 642.652L485.989 642.646Z" fill="#0F0E0E"/>
<path id="Vector_31" d="M505.413 651.569C503.769 651.594 502.145 651.208 500.687 650.446C499.265 649.686 498.101 648.519 497.343 647.096C496.46 645.37 496.034 643.448 496.106 641.511C496.032 639.549 496.457 637.6 497.343 635.848C498.098 634.425 499.263 633.262 500.687 632.509C502.15 631.764 503.772 631.387 505.413 631.41C507.034 631.388 508.637 631.765 510.078 632.509C511.496 633.266 512.657 634.428 513.41 635.848C514.293 637.601 514.719 639.549 514.647 641.511C514.716 643.447 514.29 645.369 513.41 647.096C512.653 648.516 511.494 649.682 510.078 650.446C508.642 651.207 507.037 651.593 505.413 651.569ZM505.257 647.522C506.12 647.537 506.969 647.301 507.7 646.843C508.45 646.351 509.039 645.65 509.394 644.826C509.829 643.777 510.034 642.646 509.994 641.511C509.994 639.509 509.594 637.99 508.793 636.953C508.414 636.454 507.92 636.054 507.354 635.787C506.787 635.519 506.165 635.392 505.539 635.416C504.649 635.388 503.773 635.633 503.027 636.119C502.281 636.604 501.701 637.306 501.366 638.13C500.929 639.202 500.725 640.354 500.765 641.511C500.765 643.513 501.166 645.012 501.966 646.009C502.356 646.504 502.857 646.899 503.429 647.162C504.001 647.425 504.627 647.548 505.257 647.522V647.522Z" fill="#0F0E0E"/>
</g>
</g>
<g id="Group 33">
<path id="Vector_32" d="M203 427.058L219.812 333.979C219.837 333.82 219.92 333.676 220.046 333.575C220.171 333.474 220.33 333.423 220.491 333.433H240.119C240.279 333.423 240.438 333.474 240.563 333.575C240.689 333.676 240.772 333.82 240.797 333.979L256.919 427.058C257.009 427.514 256.829 427.736 256.378 427.736H241.356C240.989 427.736 240.755 427.514 240.677 427.058L239.188 417.167H220.749L219.26 427.058C219.17 427.514 218.941 427.736 218.581 427.736H203.528C203.18 427.736 203 427.508 203 427.058ZM223.457 402.671H236.462L230.908 364.599L230.097 359.585L229.557 364.599L223.457 402.671Z" fill="#0F0E0E"/>
<path id="Vector_33" d="M268.838 427.736C268.747 427.748 268.654 427.739 268.566 427.709C268.479 427.679 268.399 427.629 268.334 427.564C268.269 427.498 268.22 427.418 268.191 427.33C268.162 427.243 268.153 427.149 268.166 427.058L268.436 333.979C268.425 333.905 268.432 333.83 268.455 333.759C268.478 333.688 268.517 333.624 268.57 333.571C268.622 333.518 268.686 333.478 268.757 333.454C268.827 333.43 268.903 333.422 268.977 333.433L294.309 333.3C299.091 333.162 303.814 334.386 307.926 336.831C311.982 339.216 315.363 342.595 317.749 346.65C320.186 350.765 321.451 355.469 321.406 360.251V399.134C321.467 404.161 320.155 409.108 317.611 413.444C315.118 417.742 311.542 421.311 307.239 423.795C302.937 426.28 298.058 427.593 293.09 427.604L268.838 427.736ZM284.69 411.072H293.096C294.674 411.102 296.241 410.805 297.699 410.198C299.156 409.591 300.471 408.689 301.562 407.547C302.676 406.452 303.557 405.142 304.151 403.697C304.746 402.253 305.041 400.702 305.02 399.14V360.107C305.031 358.703 304.753 357.311 304.205 356.018C303.656 354.725 302.849 353.558 301.832 352.589C300.868 351.575 299.698 350.779 298.402 350.253C297.106 349.727 295.712 349.483 294.315 349.538L284.834 349.676L284.69 411.072Z" fill="#0F0E0E"/>
<path id="Vector_34" d="M335.353 427.736C334.993 427.736 334.812 427.514 334.812 427.058L334.951 333.979C334.94 333.905 334.946 333.83 334.969 333.759C334.992 333.688 335.032 333.624 335.084 333.571C335.137 333.518 335.201 333.477 335.271 333.454C335.342 333.43 335.417 333.422 335.491 333.432H378.98C379.34 333.432 379.521 333.661 379.521 334.111V349.286C379.532 349.36 379.525 349.435 379.502 349.506C379.479 349.577 379.439 349.641 379.387 349.694C379.335 349.747 379.27 349.787 379.2 349.811C379.129 349.835 379.054 349.842 378.98 349.832H351.234V370.964H379.01C379.084 370.954 379.159 370.961 379.23 370.985C379.301 371.009 379.365 371.049 379.417 371.102C379.469 371.155 379.509 371.22 379.532 371.291C379.555 371.362 379.562 371.437 379.551 371.511L379.683 386.818C379.693 386.891 379.685 386.966 379.662 387.036C379.638 387.106 379.599 387.169 379.546 387.222C379.494 387.274 379.43 387.314 379.36 387.337C379.29 387.361 379.216 387.368 379.142 387.358H351.234V411.072H379.142C379.503 411.072 379.683 411.3 379.683 411.751V427.196C379.693 427.269 379.685 427.344 379.662 427.414C379.638 427.484 379.599 427.548 379.546 427.6C379.494 427.652 379.43 427.692 379.36 427.715C379.29 427.739 379.216 427.746 379.142 427.736H335.353ZM348.767 326.527C348.318 326.527 348.138 326.346 348.226 325.986L359.04 302.542C359.064 302.383 359.147 302.239 359.273 302.139C359.399 302.038 359.558 301.989 359.718 302.002H375.161C375.702 302.002 375.882 302.182 375.702 302.542L363.093 325.962C363.026 326.122 362.914 326.259 362.769 326.355C362.625 326.452 362.456 326.503 362.282 326.503L348.767 326.527Z" fill="#0F0E0E"/>
<path id="Vector_35" d="M394.966 427.736C394.606 427.736 394.426 427.514 394.426 427.058L394.558 334.111C394.545 334.019 394.553 333.925 394.583 333.837C394.612 333.748 394.662 333.668 394.728 333.602C394.794 333.537 394.874 333.487 394.962 333.457C395.05 333.428 395.144 333.419 395.236 333.432H410.277C410.369 333.419 410.463 333.428 410.551 333.457C410.64 333.487 410.72 333.537 410.786 333.602C410.851 333.668 410.901 333.748 410.931 333.837C410.96 333.925 410.969 334.019 410.956 334.111L410.818 411.072H438.726C438.818 411.059 438.912 411.068 439 411.097C439.088 411.127 439.168 411.176 439.234 411.242C439.3 411.308 439.349 411.388 439.379 411.476C439.408 411.565 439.417 411.658 439.404 411.751V427.058C439.417 427.15 439.408 427.244 439.379 427.332C439.349 427.42 439.3 427.5 439.234 427.566C439.168 427.632 439.088 427.682 439 427.711C438.912 427.741 438.818 427.749 438.726 427.736H394.966Z" fill="#0F0E0E"/>
<path id="Vector_36" d="M451.593 427.736C451.5 427.749 451.407 427.741 451.318 427.711C451.23 427.682 451.15 427.632 451.084 427.566C451.018 427.5 450.969 427.42 450.939 427.332C450.91 427.244 450.901 427.15 450.914 427.058L451.052 333.979C451.041 333.905 451.048 333.83 451.071 333.759C451.094 333.688 451.133 333.624 451.186 333.571C451.238 333.518 451.302 333.477 451.373 333.453C451.443 333.43 451.519 333.422 451.593 333.432H466.765C466.839 333.422 466.915 333.43 466.985 333.453C467.056 333.477 467.12 333.518 467.172 333.571C467.225 333.624 467.264 333.688 467.287 333.759C467.31 333.83 467.317 333.905 467.306 333.979L467.444 427.058C467.444 427.514 467.264 427.736 466.904 427.736H451.593Z" fill="#0F0E0E"/>
<path id="Vector_37" d="M477.461 427.058L494.273 333.979C494.298 333.82 494.381 333.676 494.507 333.575C494.632 333.474 494.791 333.423 494.951 333.433H514.598C514.758 333.423 514.915 333.474 515.04 333.575C515.164 333.676 515.246 333.82 515.27 333.979L531.392 427.058C531.482 427.514 531.302 427.736 530.851 427.736H515.84C515.474 427.736 515.24 427.514 515.162 427.058L513.673 417.167H495.21L493.721 427.058C493.631 427.514 493.402 427.736 493.042 427.736H478.031C477.641 427.736 477.461 427.508 477.461 427.058ZM497.918 402.671H510.947L505.393 364.599L504.582 359.585L504.042 364.599L497.918 402.671Z" fill="#0F0E0E"/>
<path id="Vector_38" d="M230.639 548.402C225.929 548.448 221.303 547.157 217.297 544.679C213.321 542.235 210.018 538.835 207.691 534.789C205.285 530.656 204.041 525.951 204.088 521.169V514.936C204.075 514.844 204.084 514.75 204.113 514.662C204.142 514.573 204.192 514.493 204.258 514.427C204.324 514.362 204.404 514.312 204.492 514.282C204.58 514.253 204.674 514.244 204.766 514.257H219.939C220.294 514.257 220.48 514.486 220.48 514.936V521.187C220.433 524.035 221.512 526.787 223.482 528.844C224.388 529.854 225.497 530.661 226.738 531.211C227.978 531.761 229.321 532.043 230.678 532.037C232.035 532.03 233.375 531.737 234.61 531.175C235.845 530.613 236.947 529.796 237.844 528.778C239.793 526.734 240.87 524.011 240.846 521.187C240.846 517.848 238.679 514.958 234.344 512.516L227.547 508.703C224.481 506.993 221.59 505.368 218.877 503.827C213.909 500.94 210.228 497.305 207.835 492.921C205.392 488.362 204.152 483.255 204.232 478.083C204.159 473.292 205.427 468.576 207.895 464.469C210.263 460.517 213.595 457.229 217.58 454.915C221.539 452.582 226.056 451.364 230.651 451.39C235.301 451.359 239.87 452.605 243.86 454.993C247.82 457.336 251.125 460.641 253.467 464.601C255.879 468.681 257.125 473.344 257.07 478.083V489.192C257.081 489.266 257.074 489.341 257.051 489.412C257.028 489.483 256.989 489.547 256.936 489.601C256.884 489.654 256.82 489.694 256.749 489.718C256.679 489.742 256.603 489.749 256.53 489.739H241.357C241.282 489.75 241.206 489.743 241.135 489.72C241.064 489.696 240.999 489.656 240.946 489.603C240.892 489.55 240.853 489.485 240.829 489.414C240.806 489.342 240.799 489.267 240.81 489.192L240.678 478.083C240.73 476.659 240.491 475.239 239.975 473.911C239.458 472.583 238.676 471.375 237.676 470.36C236.771 469.404 235.678 468.643 234.466 468.127C233.255 467.61 231.95 467.349 230.633 467.358C229.274 467.342 227.928 467.618 226.685 468.167C225.442 468.716 224.331 469.525 223.428 470.54C221.476 472.553 220.397 475.255 220.426 478.059C220.426 481.041 221.058 483.525 222.323 485.511C223.588 487.497 225.89 489.394 229.228 491.204C229.684 491.474 230.561 491.949 231.87 492.627C233.179 493.306 234.602 494.074 236.139 494.927C237.676 495.78 239.105 496.566 240.324 497.167C241.543 497.767 242.287 498.206 242.564 498.368C246.773 500.63 250.428 503.799 253.263 507.646C255.881 511.305 257.19 515.799 257.19 521.127C257.263 525.882 256.08 530.572 253.76 534.723C251.441 538.874 248.068 542.339 243.981 544.769C239.951 547.181 235.335 548.438 230.639 548.402V548.402Z" fill="#0F0E0E"/>
<path id="Vector_39" d="M262.068 546.372L278.88 453.294C278.906 453.135 278.989 452.992 279.115 452.892C279.24 452.792 279.399 452.742 279.559 452.753H299.205C299.365 452.742 299.524 452.792 299.649 452.892C299.775 452.992 299.858 453.135 299.883 453.294L316.005 546.372C316.089 546.823 315.909 547.051 315.459 547.051H300.448C300.088 547.051 299.847 546.823 299.769 546.372L298.28 536.482H279.811L278.322 546.372C278.232 546.823 278.004 547.051 277.644 547.051H262.633C262.248 547.051 262.068 546.823 262.068 546.372ZM282.525 521.986H295.53L289.988 483.908L289.172 478.899L288.631 483.908L282.525 521.986Z" fill="#0F0E0E"/>
<path id="Vector_40" d="M327.767 547.051C327.407 547.051 327.227 546.823 327.227 546.373L327.497 453.294C327.487 453.221 327.494 453.146 327.518 453.076C327.541 453.006 327.581 452.942 327.633 452.89C327.685 452.837 327.749 452.798 327.819 452.774C327.889 452.751 327.964 452.743 328.037 452.753H344.567C344.757 452.762 344.941 452.816 345.106 452.91C345.271 453.003 345.411 453.135 345.516 453.294L357.837 471.177L370.163 453.288C370.268 453.129 370.408 452.997 370.573 452.904C370.738 452.81 370.922 452.756 371.112 452.747H387.78C387.853 452.737 387.928 452.745 387.998 452.768C388.068 452.792 388.132 452.831 388.184 452.884C388.236 452.936 388.276 453 388.299 453.07C388.323 453.14 388.33 453.215 388.32 453.288L388.591 546.367C388.591 546.817 388.41 547.045 388.05 547.045H372.739C372.379 547.045 372.199 546.817 372.199 546.367L372.061 477.266L357.837 497.864L343.75 477.272L343.612 546.373C343.612 546.823 343.432 547.051 343.072 547.051H327.767Z" fill="#0F0E0E"/>
<path id="Vector_41" d="M403.362 547.051C403.27 547.064 403.176 547.055 403.088 547.026C403 546.996 402.919 546.947 402.854 546.881C402.788 546.815 402.738 546.735 402.709 546.647C402.679 546.558 402.671 546.465 402.684 546.372L402.954 453.294C402.944 453.22 402.951 453.145 402.975 453.074C402.999 453.003 403.039 452.939 403.092 452.887C403.145 452.834 403.209 452.795 403.28 452.772C403.351 452.749 403.426 452.742 403.5 452.753H429.511C437.821 452.753 444.392 455.283 449.223 460.344C454.054 465.404 456.47 472.274 456.47 480.953C456.47 487.359 455.205 492.913 452.675 497.617C450.399 502.043 446.986 505.784 442.786 508.456C438.814 510.962 434.207 512.279 429.511 512.252H419.213V546.396C419.226 546.489 419.218 546.582 419.188 546.671C419.159 546.759 419.109 546.839 419.044 546.905C418.978 546.971 418.898 547.02 418.809 547.05C418.721 547.079 418.627 547.088 418.535 547.075L403.362 547.051ZM419.213 495.834H429.511C432.401 495.834 434.907 494.457 437.028 491.702C439.15 488.948 440.211 485.357 440.211 480.929C440.211 477.402 439.262 474.512 437.365 472.258C435.467 470.004 432.849 468.875 429.511 468.871L419.213 469.009V495.834Z" fill="#0F0E0E"/>
<path id="Vector_42" d="M457.014 546.372L473.826 453.294C473.851 453.135 473.934 452.992 474.06 452.892C474.186 452.792 474.344 452.742 474.504 452.753H494.138C494.298 452.742 494.457 452.792 494.582 452.892C494.708 452.992 494.792 453.135 494.817 453.294L510.938 546.372C511.028 546.823 510.848 547.051 510.398 547.051H495.339C494.973 547.051 494.739 546.823 494.661 546.372L493.172 536.482H474.762L473.273 546.372C473.183 546.823 472.955 547.051 472.595 547.051H457.554C457.194 547.051 457.014 546.823 457.014 546.372ZM477.47 521.986H490.476L484.922 483.908L484.111 478.899L483.571 483.908L477.47 521.986Z" fill="#0F0E0E"/>
<path id="Vector_43" d="M522.846 547.051C522.755 547.063 522.661 547.054 522.574 547.024C522.486 546.994 522.407 546.944 522.342 546.878C522.277 546.813 522.228 546.733 522.199 546.645C522.169 546.557 522.161 546.464 522.174 546.372L522.306 453.294C522.296 453.22 522.303 453.146 522.327 453.076C522.35 453.006 522.39 452.942 522.442 452.89C522.494 452.837 522.558 452.798 522.628 452.774C522.698 452.75 522.773 452.743 522.846 452.753H538.019C538.093 452.742 538.168 452.749 538.239 452.772C538.31 452.795 538.374 452.834 538.427 452.887C538.48 452.939 538.52 453.003 538.544 453.074C538.568 453.145 538.576 453.22 538.565 453.294L538.698 546.372C538.698 546.823 538.517 547.051 538.157 547.051H522.846Z" fill="#0F0E0E"/>
<path id="Vector_44" d="M578.393 548.402C573.683 548.448 569.057 547.157 565.052 544.679C561.067 542.223 557.746 538.827 555.379 534.789C552.935 530.675 551.664 525.972 551.704 521.187L551.842 478.239C551.789 473.479 553.034 468.795 555.445 464.691C557.792 460.669 561.125 457.31 565.13 454.933C569.133 452.512 573.727 451.246 578.405 451.276C583.086 451.222 587.688 452.49 591.681 454.933C595.626 457.342 598.909 460.696 601.234 464.691C603.641 468.797 604.887 473.48 604.836 478.239L604.968 521.187C605.016 525.969 603.771 530.674 601.366 534.807C599.038 538.853 595.735 542.253 591.759 544.697C587.744 547.173 583.109 548.458 578.393 548.402V548.402ZM578.393 532.008C579.748 532.001 581.085 531.701 582.313 531.129C583.541 530.557 584.631 529.726 585.508 528.694C587.457 526.681 588.549 523.989 588.552 521.187L588.402 478.221C588.47 475.418 587.45 472.698 585.556 470.63C584.655 469.618 583.543 468.814 582.298 468.276C581.054 467.737 579.707 467.477 578.351 467.514C577.004 467.494 575.668 467.755 574.427 468.28C573.187 468.805 572.069 469.583 571.146 470.564C570.157 471.573 569.381 472.771 568.865 474.087C568.349 475.402 568.104 476.808 568.144 478.221V521.187C568.097 524.035 569.176 526.787 571.146 528.844C572.056 529.86 573.174 530.668 574.425 531.212C575.676 531.756 577.029 532.024 578.393 531.996V532.008Z" fill="#0F0E0E"/>
</g>
</g>
</g>
</g>
</g>
</g>
</svg>
