<svg width="780" height="857" viewBox="0 0 780 857" fill="none" xmlns="http://www.w3.org/2000/svg">
<g id="edge">
<mask id="mask0_1823_1610" style="mask-type:alpha" maskUnits="userSpaceOnUse" x="0" y="0" width="780" height="857">
<rect id="rec" y="0.829468" width="780" height="856" fill="#C4C4C4"/>
</mask>
<g mask="url(#mask0_1823_1610)">
<g id="edge_2">
<g id="e6">
<g id="E2">
<mask id="path-2-inside-1_1823_1610" fill="white">
<path d="M484.468 910.214C489.892 846.816 492.899 783.272 493.49 719.583C493.695 696.184 490.956 668.153 470.305 657.164C454.682 648.877 434.572 654.906 421.475 666.798C408.377 678.69 400.726 695.355 393.435 711.452L354.2 798.017C352.56 801.606 350.099 805.786 346.122 805.639C342.021 805.491 339.889 800.867 338.642 796.982C332.491 777.818 326.338 758.655 320.181 739.491C314.375 721.423 308.248 702.746 295.651 688.571C283.054 674.395 262.108 665.739 244.64 673.138C223.932 681.902 217.141 707.436 213.475 729.636C204.69 782.422 198.73 835.642 195.621 889.066C195.244 895.563 195.449 903.258 200.779 906.987C203.97 909.212 208.161 909.311 212.023 909.328L472.281 910.329"/>
</mask>
<path d="M493.49 719.583L496.49 719.611L496.49 719.609L493.49 719.583ZM470.305 657.164L471.714 654.516L471.711 654.514L470.305 657.164ZM393.435 711.452L396.167 712.69L396.167 712.69L393.435 711.452ZM354.2 798.017L356.929 799.264L356.932 799.255L354.2 798.017ZM346.122 805.639L346.233 802.641L346.23 802.641L346.122 805.639ZM338.642 796.982L341.499 796.065L341.499 796.065L338.642 796.982ZM320.181 739.491L323.037 738.574L323.037 738.573L320.181 739.491ZM244.64 673.138L245.809 675.901L245.81 675.901L244.64 673.138ZM213.475 729.636L216.434 730.128L216.435 730.124L213.475 729.636ZM195.621 889.066L192.626 888.892L192.626 888.892L195.621 889.066ZM200.779 906.987L199.06 909.445L199.063 909.447L200.779 906.987ZM212.023 909.328L212.011 912.327L212.012 912.327L212.023 909.328ZM487.458 910.47C492.888 846.996 495.899 783.376 496.49 719.611L490.49 719.555C489.9 783.168 486.897 846.636 481.479 909.959L487.458 910.47ZM496.49 719.609C496.593 707.831 495.964 694.624 492.602 682.893C489.232 671.134 483.012 660.528 471.714 654.516L468.896 659.813C478.248 664.789 483.724 673.693 486.834 684.546C489.953 695.428 490.592 707.935 490.49 719.557L496.49 719.609ZM471.711 654.514C454.575 645.425 433.11 652.181 419.458 664.577L423.491 669.019C436.034 657.63 454.788 652.33 468.899 659.814L471.711 654.514ZM419.458 664.577C405.825 676.956 397.947 694.218 390.702 710.214L396.167 712.69C403.504 696.492 410.93 680.425 423.491 669.019L419.458 664.577ZM390.702 710.214L351.468 796.778L356.932 799.255L396.167 712.69L390.702 710.214ZM351.471 796.77C350.68 798.501 349.806 800.104 348.8 801.231C347.822 802.326 347.006 802.669 346.233 802.641L346.01 808.636C349.215 808.756 351.618 807.083 353.275 805.227C354.904 803.403 356.08 801.121 356.929 799.264L351.471 796.77ZM346.23 802.641C345.444 802.612 344.64 802.193 343.742 800.953C342.823 799.683 342.094 797.919 341.499 796.065L335.786 797.899C336.438 799.93 337.398 802.42 338.881 804.471C340.387 806.551 342.699 808.517 346.014 808.637L346.23 802.641ZM341.499 796.065C335.348 776.901 329.194 757.737 323.037 738.574L317.325 740.409C323.481 759.572 329.635 778.735 335.786 797.899L341.499 796.065ZM323.037 738.573C317.265 720.61 310.98 701.304 297.894 686.578L293.409 690.563C305.517 704.189 311.485 722.235 317.325 740.409L323.037 738.573ZM297.894 686.578C284.796 671.839 262.549 662.294 243.469 670.376L245.81 675.901C261.668 669.183 281.313 676.951 293.409 690.563L297.894 686.578ZM243.471 670.376C232.195 675.147 224.875 684.432 219.944 695.089C215.024 705.72 212.359 717.979 210.515 729.147L216.435 730.124C218.257 719.092 220.82 707.484 225.389 697.608C229.947 687.757 236.376 679.893 245.809 675.901L243.471 670.376ZM210.516 729.143C201.713 782.035 195.741 835.361 192.626 888.892L198.616 889.24C201.718 835.923 207.666 782.809 216.434 730.128L210.516 729.143ZM192.626 888.892C192.434 892.193 192.368 896.07 193.123 899.679C193.885 903.317 195.55 906.99 199.06 909.445L202.499 904.528C200.678 903.255 199.575 901.216 198.996 898.449C198.411 895.654 198.43 892.436 198.616 889.24L192.626 888.892ZM199.063 909.447C203.143 912.294 208.315 912.312 212.011 912.327L212.036 906.328C208.006 906.31 204.797 906.131 202.496 904.526L199.063 909.447ZM212.012 912.327L472.27 913.329L472.293 907.329L212.035 906.328L212.012 912.327Z" fill="black" mask="url(#path-2-inside-1_1823_1610)"/>
</g>
</g>
<g id="e5">
<g id="E4">
<mask id="path-4-inside-2_1823_1610" fill="white">
<path d="M502.191 142.713C568.595 135.453 635.248 131.492 702.152 130.829C701.347 179.232 704.182 227.627 710.633 275.606C715.912 314.91 662.833 333.048 643.418 298.467L642.941 297.609C627.274 268.963 623.656 235.491 619.569 203.088C618.5 194.649 617.11 185.597 610.353 179.948C606.02 176.314 599.807 175.225 595.087 178.342C590.366 181.459 590.094 186.849 589.964 191.804L585.611 363.79C542.695 365.151 507.273 330.884 506.823 287.972C506.303 238.573 503.024 189.242 497 140.208"/>
</mask>
<path d="M702.152 130.829L705.151 130.879L705.203 127.799L702.122 127.83L702.152 130.829ZM710.633 275.606L713.606 275.206L713.606 275.206L710.633 275.606ZM643.418 298.467L640.796 299.925L640.802 299.935L643.418 298.467ZM642.941 297.609L640.309 299.049L640.314 299.058L640.319 299.067L642.941 297.609ZM619.569 203.088L622.546 202.713L622.545 202.711L619.569 203.088ZM610.353 179.948L608.425 182.246L608.428 182.25L610.353 179.948ZM589.964 191.804L586.965 191.726L586.965 191.728L589.964 191.804ZM585.611 363.79L585.706 366.789L588.539 366.699L588.61 363.866L585.611 363.79ZM506.823 287.972L509.823 287.941L509.823 287.94L506.823 287.972ZM502.517 145.695C568.822 138.446 635.377 134.491 702.181 133.829L702.122 127.83C635.12 128.493 568.367 132.46 501.865 139.73L502.517 145.695ZM699.152 130.78C698.345 179.333 701.189 227.878 707.66 276.005L713.606 275.206C707.176 227.376 704.349 179.132 705.151 130.879L699.152 130.78ZM707.66 276.005C712.515 312.157 663.768 328.585 646.034 296.998L640.802 299.935C661.898 337.51 719.309 317.663 713.606 275.206L707.66 276.005ZM646.04 297.009L645.563 296.151L640.319 299.067L640.796 299.925L646.04 297.009ZM645.573 296.17C630.234 268.124 626.654 235.284 622.546 202.713L616.593 203.464C620.659 235.698 624.313 269.802 640.309 299.049L645.573 296.17ZM622.545 202.711C621.501 194.471 620.073 184.164 612.277 177.646L608.428 182.25C614.147 187.03 615.498 194.826 616.593 203.465L622.545 202.711ZM612.281 177.65C607.201 173.389 599.531 171.812 593.434 175.838L596.74 180.845C600.084 178.637 604.839 179.239 608.425 182.246L612.281 177.65ZM593.434 175.838C587.231 179.934 587.088 187.034 586.965 191.726L592.963 191.882C593.099 186.665 593.501 182.984 596.74 180.845L593.434 175.838ZM586.965 191.728L582.612 363.714L588.61 363.866L592.963 191.88L586.965 191.728ZM585.516 360.792C544.297 362.099 510.255 329.186 509.823 287.941L503.823 288.003C504.29 332.581 541.094 368.204 585.706 366.789L585.516 360.792ZM509.823 287.94C509.302 238.43 506.015 188.987 499.978 139.842L494.022 140.574C500.032 189.497 503.304 238.716 503.823 288.004L509.823 287.94Z" fill="white" mask="url(#path-4-inside-2_1823_1610)"/>
</g>
</g>
<g id="e4">
<g id="Vector">
<mask id="path-6-inside-3_1823_1610" fill="white">
<path d="M31.8216 247.914C250.884 232.843 470.205 222.908 689.785 218.107C705.03 217.784 720.955 217.59 734.679 224.307C748.403 231.024 758.89 246.913 754.261 261.348C747.108 283.695 715.776 283.566 692.763 279.497C564.19 256.918 433.051 252.7 303.287 266.967C257.746 271.973 210.781 279.885 172.976 305.72C127.661 336.592 101.444 389.683 91.507 443.581C81.5703 497.479 85.8104 552.734 90.2447 607.439C390.679 639.022 696.291 648.42 993.294 592.616C1008.12 589.839 1023.98 586.158 1034.14 575.21C1047.09 561.259 1046.7 540.107 1045.37 521.215C1038.06 417.875 1017.6 308.077 945.034 233.963C895.706 183.391 826.99 155.166 757.304 142.733C687.617 130.3 616.408 132.303 545.718 134.369C371.841 139.493 197.952 144.617 24.0535 149.741C23.5664 183.02 26.4072 216.264 32.5337 248.98"/>
</mask>
<path d="M689.785 218.107L689.722 215.107L689.72 215.108L689.785 218.107ZM754.261 261.348L751.404 260.432L751.404 260.434L754.261 261.348ZM692.763 279.497L693.285 276.543L693.282 276.542L692.763 279.497ZM303.287 266.967L303.614 269.949L303.615 269.949L303.287 266.967ZM172.976 305.72L174.665 308.199L174.668 308.196L172.976 305.72ZM90.2447 607.439L87.2545 607.681L87.4556 610.162L89.9311 610.423L90.2447 607.439ZM993.294 592.616L992.742 589.667L992.74 589.668L993.294 592.616ZM1034.14 575.21L1036.34 577.251L1036.34 577.251L1034.14 575.21ZM1045.37 521.215L1048.37 521.005L1048.37 521.003L1045.37 521.215ZM945.034 233.963L942.887 236.058L942.891 236.062L945.034 233.963ZM545.718 134.369L545.631 131.371L545.63 131.371L545.718 134.369ZM24.0535 149.741L23.9651 146.743L21.0958 146.827L21.0538 149.697L24.0535 149.741ZM32.0275 250.907C251.043 235.84 470.318 225.906 689.851 221.106L689.72 215.108C470.093 219.91 250.725 229.847 31.6157 244.921L32.0275 250.907ZM689.849 221.106C705.221 220.781 720.396 220.657 733.36 227.002L735.998 221.613C721.514 214.523 704.84 214.787 689.722 215.107L689.849 221.106ZM733.36 227.002C739.688 230.099 745.288 235.332 748.744 241.415C752.194 247.488 753.404 254.197 751.404 260.432L757.118 262.264C759.747 254.064 758.028 245.611 753.96 238.451C749.899 231.303 743.393 225.232 735.998 221.613L733.36 227.002ZM751.404 260.434C748.299 270.133 739.948 275.237 728.888 277.384C717.805 279.535 704.636 278.55 693.285 276.543L692.241 282.451C703.904 284.513 717.906 285.627 730.031 283.274C742.178 280.916 753.07 274.91 757.118 262.263L751.404 260.434ZM693.282 276.542C564.429 253.915 433.005 249.687 302.959 263.985L303.615 269.949C433.097 255.713 563.95 259.922 692.244 282.452L693.282 276.542ZM302.959 263.985C257.403 268.992 209.761 276.948 171.283 303.243L174.668 308.196C211.801 282.821 258.089 274.953 303.614 269.949L302.959 263.985ZM171.287 303.24C125.099 334.708 98.5846 388.645 88.5568 443.037L94.4573 444.125C104.303 390.721 130.224 338.476 174.665 308.199L171.287 303.24ZM88.5568 443.037C78.5366 497.388 82.8249 553.035 87.2545 607.681L93.2349 607.197C88.7958 552.433 84.6039 497.571 94.4573 444.125L88.5568 443.037ZM89.9311 610.423C390.492 642.019 696.434 651.445 993.848 595.565L992.74 589.668C696.149 645.394 390.865 636.025 90.5584 604.455L89.9311 610.423ZM993.846 595.565C1008.56 592.809 1025.41 589.022 1036.34 577.251L1031.94 573.169C1022.54 583.293 1007.68 586.869 992.742 589.667L993.846 595.565ZM1036.34 577.251C1043.36 569.683 1046.67 560.259 1048.08 550.494C1049.48 540.757 1049.03 530.469 1048.37 521.005L1042.38 521.425C1043.04 530.853 1043.45 540.587 1042.14 549.637C1040.84 558.658 1037.87 566.786 1031.94 573.169L1036.34 577.251ZM1048.37 521.003C1041.05 417.588 1020.56 306.806 947.178 231.864L942.891 236.062C1014.65 309.348 1035.07 418.163 1042.38 521.427L1048.37 521.003ZM947.182 231.868C897.278 180.706 827.905 152.282 757.83 139.78L756.777 145.687C826.076 158.051 894.135 186.076 942.887 236.058L947.182 231.868ZM757.83 139.78C687.788 127.284 616.27 129.305 545.631 131.371L545.806 137.368C616.547 135.3 687.445 133.317 756.777 145.687L757.83 139.78ZM545.63 131.371C371.752 136.495 197.864 141.619 23.9651 146.743L24.1418 152.74C198.041 147.616 371.929 142.492 545.807 137.368L545.63 131.371ZM21.0538 149.697C20.5638 183.176 23.4217 216.619 29.585 249.532L35.4824 248.427C29.3928 215.908 26.569 182.864 27.0531 149.785L21.0538 149.697Z" fill="black" mask="url(#path-6-inside-3_1823_1610)"/>
</g>
</g>
<g id="e3">
<path id="Vector_2" d="M565.832 440.467C568.997 486.337 571.084 532.262 572.092 578.24C572.16 581.433 572.2 584.767 570.79 587.641C569.379 590.515 566.042 592.71 563.011 591.741C558.318 590.243 558.345 583.683 559.2 578.864C563.941 551.942 564.827 524.482 561.831 497.31C560.78 487.774 559.118 477.94 553.693 470.024C547.21 460.535 536.061 455.046 524.742 452.965C513.424 450.884 501.82 451.772 490.332 452.701C483.699 515.61 481.726 579.603 493.445 641.793C494.028 644.897 494.801 648.218 497.1 650.346C500.03 653.057 504.472 652.976 508.439 652.698C530.14 651.166 553.198 646.883 568.762 631.688C579.382 621.359 585.309 606.97 587.92 592.378C590.531 577.786 590.111 562.876 589.677 548.074C588.601 511.665 587.525 475.254 586.449 438.841C579.46 438.739 572.479 439.334 565.608 440.616" fill="#D75D12"/>
</g>
<g id="e2">
<path id="Vector_3" d="M617 823.367C592.587 748.974 562.807 676.456 527.896 606.388C522.704 595.98 516.354 584.683 505.305 581.087C498.84 578.981 491.825 579.944 485.089 580.923L448.016 586.312C441.362 587.283 434.413 588.361 428.983 592.351C421.705 597.7 418.764 607.014 416.275 615.711C394.692 691.172 375.267 767.209 358 843.822C381.108 851.638 406.195 850.215 430.519 848.421C484.495 844.455 538.35 839.151 592.085 832.508C600.25 831.505 611.127 826.461 608.391 818.686" fill="#3C6128"/>
</g>
<g id="e1">
<path id="Vector_4" d="M841.846 582.952C756.738 575.672 671.436 571.636 585.939 570.843C554.529 570.568 516.899 574.245 502.148 601.964C491.023 622.935 499.116 649.927 515.08 667.508C531.045 685.088 553.415 695.359 575.024 705.145L691.23 757.809C696.048 760.011 701.66 763.314 701.462 768.653C701.263 774.157 695.056 777.019 689.841 778.692C664.116 786.948 638.39 795.208 612.665 803.472C588.409 811.266 563.338 819.489 544.308 836.398C525.279 853.307 513.658 881.422 523.592 904.87C535.356 932.666 569.633 941.781 599.434 946.702C670.296 958.494 741.738 966.494 813.456 970.667C822.177 971.174 832.507 970.898 837.513 963.743C840.501 959.461 840.633 953.835 840.655 948.651L842 599.311" fill="white"/>
</g>
<g id="date">
<path id="17_23" d="M221.248 334.054H229.948V384.829H217.948V348.492C216.523 348.842 215.186 349.117 213.936 349.317C212.711 349.517 211.473 349.604 210.223 349.579V338.179C212.048 338.029 213.823 337.642 215.548 337.017C217.298 336.392 219.198 335.404 221.248 334.054ZM238.482 384.829L260.42 346.204H238.145V334.504H274.557V346.204L254.72 384.829H238.482ZM280.021 384.829V374.329H332.821V384.829H280.021ZM341.106 384.829V375.079C341.106 372.354 341.481 370.004 342.231 368.029C342.981 366.029 344.194 364.317 345.869 362.892C347.544 361.467 349.756 360.242 352.506 359.217L363.194 355.242C365.119 354.492 366.519 353.604 367.394 352.579C368.269 351.554 368.706 350.317 368.706 348.867C368.706 347.542 368.181 346.367 367.131 345.342C366.081 344.292 364.531 343.767 362.481 343.767C360.581 343.767 358.944 344.342 357.569 345.492C356.194 346.642 355.406 348.279 355.206 350.404H341.931C341.906 346.454 342.819 343.229 344.669 340.729C346.544 338.204 349.031 336.354 352.131 335.179C355.231 333.979 358.606 333.379 362.256 333.379C365.806 333.379 369.031 334.029 371.931 335.329C374.856 336.629 377.181 338.467 378.906 340.842C380.656 343.192 381.531 345.992 381.531 349.242C381.531 351.817 381.069 354.104 380.144 356.104C379.219 358.104 377.731 359.892 375.681 361.467C373.631 363.017 370.906 364.429 367.506 365.704L356.894 369.717C355.444 370.267 354.444 370.804 353.894 371.329C353.369 371.829 353.106 372.492 353.106 373.317V373.879H381.381V384.829H341.106ZM409.044 386.029C406.244 386.029 403.531 385.654 400.906 384.904C398.281 384.179 395.919 383.092 393.819 381.642C391.744 380.167 390.094 378.342 388.869 376.167C387.644 373.992 387.031 371.467 387.031 368.592H399.819C399.969 369.817 400.419 370.929 401.169 371.929C401.919 372.904 402.944 373.679 404.244 374.254C405.569 374.829 407.169 375.117 409.044 375.117C411.594 375.117 413.631 374.567 415.156 373.467C416.681 372.367 417.444 370.967 417.444 369.267C417.444 368.092 417.144 367.129 416.544 366.379C415.944 365.629 415.069 365.079 413.919 364.729C412.794 364.354 411.406 364.167 409.756 364.167H402.106V354.754H409.569C411.569 354.754 413.131 354.254 414.256 353.254C415.381 352.254 415.944 350.942 415.944 349.317C415.944 347.842 415.406 346.629 414.331 345.679C413.256 344.704 411.494 344.217 409.044 344.217C406.919 344.217 405.019 344.654 403.344 345.529C401.669 346.404 400.681 347.804 400.381 349.729H387.631C387.931 345.979 388.994 342.904 390.819 340.504C392.644 338.079 395.069 336.292 398.094 335.142C401.119 333.967 404.569 333.379 408.444 333.379C412.394 333.379 415.894 333.979 418.944 335.179C422.019 336.379 424.431 338.054 426.181 340.204C427.956 342.354 428.844 344.867 428.844 347.742C428.844 350.217 428.194 352.404 426.894 354.304C425.619 356.204 423.681 357.592 421.081 358.467C423.981 359.617 426.256 361.204 427.906 363.229C429.581 365.229 430.419 367.642 430.419 370.467C430.419 373.517 429.506 376.217 427.681 378.567C425.881 380.917 423.369 382.754 420.144 384.079C416.944 385.379 413.244 386.029 409.044 386.029Z" fill="#3C6128"/>
<path id="2021" d="M220.668 538.579L220.23 543.079H260.855L260.355 549.829H213.293L214.105 539.392C214.522 534.85 215.543 531.1 217.168 528.142C218.835 525.184 220.98 522.746 223.605 520.829C226.23 518.913 229.147 517.267 232.355 515.892L246.23 509.704C250.105 508.079 253.168 505.913 255.418 503.204C257.668 500.454 258.96 496.996 259.293 492.829C259.835 488.329 258.835 484.704 256.293 481.954C253.751 479.204 250.085 477.829 245.293 477.829C240.501 477.829 236.48 478.913 233.23 481.079C229.98 483.204 227.939 486.392 227.105 490.642H220.105C220.772 486.642 222.21 483.204 224.418 480.329C226.668 477.413 229.605 475.184 233.23 473.642C236.855 472.1 241.085 471.329 245.918 471.329C250.335 471.329 254.126 472.288 257.293 474.204C260.501 476.121 262.918 478.746 264.543 482.079C266.168 485.371 266.793 489.079 266.418 493.204C265.793 499.288 263.835 504.142 260.543 507.767C257.293 511.392 253.293 514.184 248.543 516.142L234.168 522.454C230.043 524.288 226.855 526.475 224.605 529.017C222.397 531.517 221.085 534.704 220.668 538.579ZM301.389 550.954C296.097 550.954 291.639 549.475 288.014 546.517C284.43 543.559 281.847 539.121 280.264 533.204C278.68 527.288 278.326 519.913 279.201 511.079C279.951 502.288 281.66 494.954 284.326 489.079C287.035 483.163 290.514 478.725 294.764 475.767C299.014 472.809 303.826 471.329 309.201 471.329C314.493 471.329 318.951 472.809 322.576 475.767C326.243 478.725 328.868 483.163 330.451 489.079C332.076 494.954 332.493 502.288 331.701 511.079C330.91 519.913 329.139 527.288 326.389 533.204C323.639 539.121 320.118 543.559 315.826 546.517C311.576 549.475 306.764 550.954 301.389 550.954ZM302.264 544.517C308.764 544.517 313.889 541.621 317.639 535.829C321.389 529.996 323.805 521.746 324.889 511.079C325.972 500.496 325.118 492.329 322.326 486.579C319.576 480.829 314.91 477.954 308.326 477.954C302.035 477.954 296.972 480.829 293.139 486.579C289.347 492.329 286.889 500.496 285.764 511.079C284.764 521.746 285.66 529.996 288.451 535.829C291.243 541.621 295.847 544.517 302.264 544.517ZM348.842 538.579L348.404 543.079H389.029L388.529 549.829H341.467L342.279 539.392C342.696 534.85 343.717 531.1 345.342 528.142C347.008 525.184 349.154 522.746 351.779 520.829C354.404 518.913 357.321 517.267 360.529 515.892L374.404 509.704C378.279 508.079 381.342 505.913 383.592 503.204C385.842 500.454 387.133 496.996 387.467 492.829C388.008 488.329 387.008 484.704 384.467 481.954C381.925 479.204 378.258 477.829 373.467 477.829C368.675 477.829 364.654 478.913 361.404 481.079C358.154 483.204 356.113 486.392 355.279 490.642H348.279C348.946 486.642 350.383 483.204 352.592 480.329C354.842 477.413 357.779 475.184 361.404 473.642C365.029 472.1 369.258 471.329 374.092 471.329C378.508 471.329 382.3 472.288 385.467 474.204C388.675 476.121 391.092 478.746 392.717 482.079C394.342 485.371 394.967 489.079 394.592 493.204C393.967 499.288 392.008 504.142 388.717 507.767C385.467 511.392 381.467 514.184 376.717 516.142L362.342 522.454C358.217 524.288 355.029 526.475 352.779 529.017C350.571 531.517 349.258 534.704 348.842 538.579ZM423.125 472.454H428.75L421.5 549.829H415.25L421.625 481.017C419.75 482.434 417.729 483.579 415.563 484.454C413.396 485.329 411.375 485.85 409.5 486.017L410.188 478.642C412.438 478.392 414.688 477.767 416.938 476.767C419.188 475.725 421.25 474.288 423.125 472.454Z" fill="black"/>
<path id="outubro" d="M222.697 449.459C219.99 449.459 217.669 448.806 215.732 447.499C213.819 446.169 212.407 444.221 211.497 441.654C210.61 439.064 210.342 435.914 210.692 432.204C211.065 428.471 211.952 425.321 213.352 422.754C214.752 420.164 216.537 418.204 218.707 416.874C220.877 415.544 223.304 414.879 225.987 414.879C228.717 414.879 231.039 415.568 232.952 416.944C234.865 418.298 236.265 420.269 237.152 422.859C238.062 425.426 238.33 428.541 237.957 432.204C237.607 435.914 236.732 439.053 235.332 441.619C233.932 444.186 232.147 446.134 229.977 447.464C227.83 448.794 225.404 449.459 222.697 449.459ZM222.872 446.029C226.162 446.029 228.775 444.769 230.712 442.249C232.649 439.729 233.827 436.381 234.247 432.204C234.667 428.004 234.165 424.644 232.742 422.124C231.319 419.604 228.95 418.344 225.637 418.344C222.37 418.344 219.804 419.593 217.937 422.089C216.094 424.563 214.974 427.934 214.577 432.204C214.32 434.934 214.425 437.349 214.892 439.449C215.382 441.526 216.28 443.148 217.587 444.314C218.894 445.458 220.655 446.029 222.872 446.029ZM256.328 449.459C254.018 449.459 252.07 448.981 250.483 448.024C248.92 447.044 247.776 445.609 247.053 443.719C246.353 441.806 246.12 439.449 246.353 436.649L248.313 415.579H251.953L250.063 436.439C249.713 439.566 250.133 441.934 251.323 443.544C252.536 445.131 254.461 445.924 257.098 445.924C259.198 445.924 261.041 445.294 262.628 444.034C264.238 442.751 265.533 441.059 266.513 438.959C267.516 436.836 268.135 434.503 268.368 431.959L269.908 415.579H273.548L270.398 448.829H266.793L267.458 441.864C266.221 444.244 264.646 446.111 262.733 447.464C260.82 448.794 258.685 449.459 256.328 449.459ZM292.389 449.459C290.802 449.459 289.437 449.144 288.294 448.514C287.174 447.861 286.346 446.881 285.809 445.574C285.272 444.244 285.097 442.576 285.284 440.569L287.384 417.574L288.819 418.449H281.994L282.449 415.649H289.064L287.314 417.224L288.434 406.164H292.074L290.954 417.224L289.554 415.649H301.174L300.824 418.449H289.204L290.919 417.574L288.714 440.604C288.551 442.448 288.831 443.848 289.554 444.804C290.301 445.738 291.432 446.204 292.949 446.204C293.836 446.204 294.722 446.088 295.609 445.854C296.519 445.621 297.487 445.294 298.514 444.874L298.759 447.779C297.662 448.339 296.577 448.759 295.504 449.039C294.454 449.319 293.416 449.459 292.389 449.459ZM316.826 449.459C314.516 449.459 312.568 448.981 310.981 448.024C309.418 447.044 308.274 445.609 307.551 443.719C306.851 441.806 306.618 439.449 306.851 436.649L308.811 415.579H312.451L310.561 436.439C310.211 439.566 310.631 441.934 311.821 443.544C313.034 445.131 314.959 445.924 317.596 445.924C319.696 445.924 321.539 445.294 323.126 444.034C324.736 442.751 326.031 441.059 327.011 438.959C328.014 436.836 328.633 434.503 328.866 431.959L330.406 415.579H334.046L330.896 448.829H327.291L327.956 441.864C326.719 444.244 325.144 446.111 323.231 447.464C321.318 448.794 319.183 449.459 316.826 449.459ZM357.087 449.459C355.034 449.459 353.225 448.911 351.662 447.814C350.122 446.718 348.979 445.096 348.232 442.949L346.902 448.829H344.242L348.722 401.334H352.327L350.367 421.109C351.487 419.149 352.922 417.621 354.672 416.524C356.422 415.428 358.312 414.879 360.342 414.879C362.489 414.879 364.437 415.474 366.187 416.664C367.96 417.854 369.36 419.546 370.387 421.739C371.437 423.933 371.962 426.511 371.962 429.474C371.962 431.551 371.659 433.756 371.052 436.089C370.445 438.399 369.524 440.569 368.287 442.599C367.074 444.629 365.534 446.286 363.667 447.569C361.8 448.829 359.607 449.459 357.087 449.459ZM356.947 445.994C358.954 445.994 360.669 445.469 362.092 444.419C363.515 443.346 364.67 441.981 365.557 440.324C366.467 438.644 367.132 436.859 367.552 434.969C367.972 433.079 368.182 431.306 368.182 429.649C368.182 426.126 367.365 423.373 365.732 421.389C364.099 419.383 362.069 418.379 359.642 418.379C357.985 418.379 356.422 418.869 354.952 419.849C353.482 420.806 352.257 422.206 351.277 424.049C350.297 425.869 349.679 428.086 349.422 430.699L349.177 433.674C348.92 436.008 349.049 438.108 349.562 439.974C350.075 441.818 350.95 443.288 352.187 444.384C353.447 445.458 355.034 445.994 356.947 445.994ZM379.957 448.829L383.072 415.579H386.712L386.082 421.774C387.086 419.441 388.287 417.738 389.687 416.664C391.087 415.568 392.779 415.019 394.762 415.019C395.276 415.019 395.859 415.066 396.512 415.159C397.189 415.253 397.831 415.451 398.437 415.754L397.737 419.569C397.084 419.313 396.407 419.114 395.707 418.974C395.007 418.811 394.319 418.729 393.642 418.729C391.776 418.729 390.247 419.371 389.057 420.654C387.867 421.914 386.934 423.664 386.257 425.904C385.604 428.121 385.161 430.676 384.927 433.569L383.597 448.829H379.957ZM413.009 449.459C410.303 449.459 407.981 448.806 406.044 447.499C404.131 446.169 402.719 444.221 401.809 441.654C400.923 439.064 400.654 435.914 401.004 432.204C401.378 428.471 402.264 425.321 403.664 422.754C405.064 420.164 406.849 418.204 409.019 416.874C411.189 415.544 413.616 414.879 416.299 414.879C419.029 414.879 421.351 415.568 423.264 416.944C425.178 418.298 426.578 420.269 427.464 422.859C428.374 425.426 428.643 428.541 428.269 432.204C427.919 435.914 427.044 439.053 425.644 441.619C424.244 444.186 422.459 446.134 420.289 447.464C418.143 448.794 415.716 449.459 413.009 449.459ZM413.184 446.029C416.474 446.029 419.088 444.769 421.024 442.249C422.961 439.729 424.139 436.381 424.559 432.204C424.979 428.004 424.478 424.644 423.054 422.124C421.631 419.604 419.263 418.344 415.949 418.344C412.683 418.344 410.116 419.593 408.249 422.089C406.406 424.563 405.286 427.934 404.889 432.204C404.633 434.934 404.738 437.349 405.204 439.449C405.694 441.526 406.593 443.148 407.899 444.314C409.206 445.458 410.968 446.029 413.184 446.029Z" fill="#3C6128"/>
</g>
</g>
</g>
</g>
</svg>
