<svg width="307" height="163" viewBox="0 0 307 163" fill="none" xmlns="http://www.w3.org/2000/svg">
<path d="M112.252 34.0741C112.592 35.9248 113.691 37.4309 114.695 38.9098C115.414 39.9573 115.3 40.842 114.836 41.7375C113.867 43.6045 114.003 45.561 114.022 47.5556C114.057 50.3968 113.427 53.1349 112.586 55.8594C111.666 58.896 109.248 60.2528 106.776 61.6856C102.898 63.9325 98.817 65.8891 95.7017 69.2622C96.3693 67.9759 97.1644 66.7358 97.6664 65.3871C98.1901 63.9814 100.008 63.3491 99.8373 61.5879C99.973 61.531 100.182 61.512 100.236 61.4088C101.756 58.5568 103.528 55.778 102.301 52.2719C101.992 51.3846 102.06 50.3724 101.87 49.4307C101.669 48.4402 101.428 47.352 100.315 47.0183C98.6542 46.519 97.5063 45.4416 96.6868 44.0332C94.5158 40.2748 92.1604 36.6466 89.3734 33.317C88.9474 32.8095 88.6462 32.0578 87.7914 32.0578L87.8239 32.009C87.7642 31.6806 87.9298 31.2166 87.3436 31.1949C86.9231 30.5659 86.6923 29.8293 86.6788 29.0728C87.0315 25.7893 87.3545 22.4922 85.5065 19.4936C84.0791 17.1815 82.5838 14.9075 81.0696 12.6497C79.6124 10.4788 78.5296 8.03646 76.4292 6.33228C76.09 6.06091 75.6966 5.46662 76.1253 4.99173C76.47 4.6091 76.9394 4.9266 77.3845 5.065C78.7223 5.48833 80.0384 5.97136 81.4767 6.01478C83.3576 6.09262 85.167 6.75682 86.6516 7.91435C87.5417 8.58191 88.1523 9.6321 89.0559 10.2807C91.9134 12.343 94.4833 14.7256 97.1779 16.9916C98.9662 18.5031 100.706 20.0797 102.562 21.518C104.315 22.8748 106.155 24.2669 107.227 26.3673C108.434 28.7282 109.796 31.0104 110.98 33.3848C111.3 34.0225 111.647 34.1555 112.252 34.0741Z" fill="white"/>
<path d="M99.8306 61.5801C100.01 63.3494 98.2024 63.9817 97.6597 65.3792C97.1576 66.736 96.3625 67.968 95.695 69.2543C94.0803 70.5541 93.6679 72.66 92.3979 74.2067C91.18 75.6756 89.5976 76.7985 87.8091 77.4631C86.3898 78.0059 85.0954 78.82 83.7386 79.4713C82.8946 79.8783 82.5825 79.0886 82.0425 79.379C82.1701 78.7087 82.5852 78.1823 82.9326 77.6287C84.691 74.8417 86.5445 72.1118 88.1863 69.257C89.4807 67.0101 90.8999 64.7306 90.0695 61.8731C89.6598 60.462 88.482 59.7185 87.6272 58.6873C86.1727 56.9098 85.4075 54.7362 84.1945 52.8149C81.28 48.2017 78.1837 43.6834 75.9151 38.6821C74.74 36.096 74.7997 33.2412 73.9938 30.5791C74.0508 29.8682 73.3289 29.3553 73.5053 28.6144C73.7631 28.1694 74.0209 27.7108 73.8038 27.1816C72.5365 24.0908 71.2204 21.0352 67.5135 20.1261C66.8867 19.9714 66.3331 19.7679 66.3331 18.9809C66.3174 18.2772 66.0704 17.5982 65.6303 17.0488C64.8162 15.9633 64.2327 14.7666 64.1866 13.3447C64.173 12.8888 64.2192 12.3135 63.709 11.9878C64.0183 11.749 64.0618 11.4125 64.135 11.0516C64.5448 9.05706 64.7212 8.97022 66.6669 9.77889C66.9885 9.9291 67.3401 10.0042 67.695 9.99858C68.05 9.99294 68.399 9.90668 68.7157 9.74633C69.9124 9.15746 71.0874 9.33385 72.2136 9.958C74.4035 11.1764 75.9666 13.0543 77.356 15.0651C78.0561 16.08 78.607 17.0597 80.0208 17.2713C80.7915 17.3853 81.4075 18.0637 81.8905 18.753C84.0958 21.8705 85.7117 25.3655 86.6585 29.0649C86.6716 29.8206 86.9025 30.5565 87.3233 31.1843L87.8036 31.9984L87.7711 32.0472C89.1985 37.8545 90.3219 43.716 91.3124 49.6182C91.8551 52.8339 93.6516 55.1351 96.1319 57.0645C97.7112 58.2721 99.2092 59.5801 99.8306 61.5801Z" fill="white"/>
<path d="M86.6772 29.0623C85.7305 25.3629 84.1145 21.8679 81.9093 18.7504C81.4263 18.0611 80.8102 17.3936 80.0396 17.2687C78.6257 17.0571 78.0749 16.0774 77.3747 15.0625C75.9853 13.0517 74.4223 11.1738 72.2324 9.9554C71.1062 9.33126 69.9312 9.1413 68.7344 9.74374C68.4177 9.90409 68.0687 9.99035 67.7138 9.99599C67.3588 10.0016 67.0073 9.92651 66.6856 9.7763C64.7399 8.9622 64.5635 9.05447 64.1538 11.049C64.0805 11.4099 64.0371 11.7464 63.7277 11.9852C62.9598 12.1508 62.1999 12.1046 61.4048 12.4221C59.0901 13.3475 57.3343 15.0408 55.3452 16.4031C54.1566 17.2172 53.3642 18.4926 52.0183 19.0896C51.7089 16.1914 51.2259 13.2932 52.1214 10.4059C52.5393 9.04904 53.2448 8.00699 54.542 7.30958C55.8391 6.61217 56.9843 5.68138 58.2488 4.94869C61.2854 3.17666 64.284 1.30152 67.9149 0.97317C68.2161 0.946033 68.5499 0.785927 68.8131 0.867337C72.3409 1.9528 75.619 -0.0661645 79.0871 0.00167714C80.756 0.0315275 82.3299 -0.180139 83.5321 1.2581C83.6254 1.37861 83.749 1.47224 83.8903 1.52947C88.3759 2.8863 91.4098 6.41407 95.038 9.02462C98.7774 11.7193 103.041 13.6189 106.482 16.7559C107.271 17.461 107.891 18.3347 108.297 19.3121C109.849 23.0326 110.275 27.0461 111.342 30.8913C111.635 31.9497 111.952 33.0026 112.259 34.0555C111.654 34.1369 111.306 34.0039 110.978 33.3472C109.795 30.9727 108.433 28.6906 107.225 26.3297C106.153 24.2293 104.313 22.8345 102.56 21.4803C100.696 20.0421 98.9647 18.4655 97.1764 16.9539C94.4925 14.688 91.9118 12.3054 89.0544 10.2431C88.1507 9.59448 87.5401 8.5443 86.6501 7.87673C85.1655 6.7192 83.356 6.05501 81.4751 5.97717C80.0369 5.93375 78.7207 5.45072 77.3829 5.02738C76.9433 4.88899 76.4684 4.57149 76.1237 4.95412C75.695 5.42901 76.0885 6.01787 76.4277 6.29467C78.5281 8.00428 79.6108 10.4466 81.068 12.6121C82.5823 14.8699 84.0775 17.1439 85.5049 19.4559C87.3529 22.4817 87.03 25.7896 86.6772 29.0623Z" fill="white"/>
<path d="M52.0133 19.1005C53.3701 18.5035 54.1516 17.2253 55.3402 16.4139C57.3348 15.0571 59.0851 13.3584 61.3998 12.433C62.1949 12.1155 62.9548 12.1616 63.7227 11.9961C64.2329 12.319 64.1868 12.8943 64.2003 13.3529C64.2465 14.7749 64.8218 15.9608 65.644 17.0571C66.0836 17.6057 66.3305 18.2837 66.3468 18.9865C65.9534 19.0516 65.5083 19.2796 65.1772 19.1629C62.7349 18.3189 61.161 19.8359 59.4785 21.1194C58.7431 21.6812 58.773 22.0882 59.6007 22.5875C61.0606 23.4722 62.4446 24.4681 63.9425 25.3012C66.9099 26.9707 70.1493 28.1016 73.5109 28.6417C73.3345 29.3825 74.0536 29.8954 73.9994 30.6064C73.8126 31.3227 73.4007 31.9601 72.8244 32.4246C71.8556 33.1817 71.0903 34.2264 70.3359 35.2224C69.3129 36.5792 68.0375 37.263 66.3251 37.1979C65.2668 37.1599 64.2058 37.244 63.1474 37.2739C61.8286 36.1884 60.4528 35.1654 59.2018 34.0175C57.9508 32.8696 56.4474 32.9456 54.9603 32.8045C55.712 32.2617 56.1326 31.5752 55.4488 30.7801C54.1543 29.274 54.2086 27.6811 54.8219 25.9416C54.9739 25.5129 55.2154 25.0081 54.944 24.4057C54.3253 24.7666 53.9915 25.3229 53.6523 25.8656C53.1964 26.601 53.3267 27.6757 52.6374 28.213C50.5777 29.8167 48.4611 31.3608 46.0215 32.3703C47.3349 30.43 47.8016 28.118 48.7921 26.0393C49.6578 24.2266 50.6022 22.4518 51.4732 20.6418C51.7202 20.1398 52.2114 19.7355 52.0133 19.1005Z" fill="white"/>
<path d="M46.0237 32.3461C48.466 31.3366 50.5799 29.7925 52.6396 28.1887C53.3289 27.646 53.1986 26.5768 53.6545 25.8414C53.9937 25.2987 54.3275 24.7424 54.9462 24.3815C55.2176 24.9839 54.9761 25.4886 54.8241 25.9174C54.2108 27.6569 54.1565 29.2498 55.4509 30.7559C56.1348 31.551 55.7223 32.2484 54.9625 32.7803C50.1837 33.1059 46.0807 34.9213 42.7049 38.346C42.249 38.8073 41.7361 39.2117 41.2503 39.6431C40.7483 38.1859 41.8609 35.2796 43.519 34.2701C44.447 33.7083 45.2096 32.9919 46.0237 32.3461Z" fill="white"/>
<path d="M70.4457 53.9519C73.2299 54.6303 76.1444 58.1988 75.911 60.869C75.694 63.3303 75.8785 65.8215 75.428 68.2746C73.9762 66.5297 72.2015 67.0291 70.4349 67.5826C69.8134 67.7753 68.8229 68.9585 68.1391 68.9965L67.8379 68.0955C68.5814 65.9246 69.6506 63.8514 69.9383 61.4959C70.2531 58.8663 71.4335 56.5 70.4457 53.9519Z" fill="white"/>
<path d="M99.8331 61.5797C99.2116 59.5797 97.7137 58.2717 96.1479 57.056C93.6676 55.1266 91.8712 52.8254 91.3284 49.6097C90.338 43.7156 89.2145 37.8459 87.7871 32.0387C88.6419 32.0387 88.9431 32.7904 89.3692 33.2978C92.1561 36.6275 94.5116 40.2557 96.6825 44.0141C97.4966 45.4333 98.6499 46.5107 100.311 46.9991C101.423 47.3329 101.668 48.4211 101.866 49.4116C102.056 50.3505 101.988 51.3654 102.297 52.2528C103.524 55.7588 101.754 58.5376 100.232 61.3897C100.178 61.5037 99.9688 61.5227 99.8331 61.5797Z" fill="white"/>
<path d="M87.8143 31.9902L87.334 31.1761C87.9256 31.1979 87.76 31.6619 87.8143 31.9902Z" fill="white"/>
<path d="M73.5198 28.6282C70.1582 28.0881 66.9187 26.9571 63.9514 25.2876C62.4453 24.4735 61.0613 23.4695 59.6095 22.574C58.7819 22.0747 58.752 21.6676 59.4874 21.1059C61.1699 19.8223 62.7438 18.3054 65.1861 19.1493C65.5172 19.266 65.9622 19.0381 66.3557 18.973C66.3557 19.7626 66.8984 19.9662 67.5361 20.1208C71.243 21.0381 72.5591 24.0936 73.8264 27.1764C74.0354 27.7245 73.7776 28.1831 73.5198 28.6282Z" fill="white"/>
<path d="M90.0753 61.8809C89.6655 60.4698 88.4878 59.7263 87.633 58.6951C86.1785 56.9176 85.4132 54.744 84.2002 52.8227C81.2858 48.2095 78.1895 43.6912 75.9208 38.6899C74.7458 36.1038 74.8055 33.249 73.9996 30.5869C73.8128 31.3032 73.4009 31.9406 72.8245 32.4051C71.8558 33.1622 71.0905 34.2069 70.3361 35.2029C69.3131 36.5597 68.0376 37.2435 66.3253 37.1784C65.267 37.1404 64.2059 37.2245 63.1476 37.2544C63.3946 37.4254 63.788 37.5475 63.8613 37.7727C64.5126 39.8107 65.8097 41.5718 66.2249 43.7238C66.9332 47.4035 68.5858 50.7196 70.4311 53.9462C73.2153 54.6246 76.1298 58.193 75.8964 60.8633C75.6793 63.3246 75.8638 65.8157 75.4134 68.2689C76.0022 70.4208 75.2967 72.22 74.2384 74.1223C73.1529 76.0788 71.0607 76.551 69.6251 77.9485C68.8399 78.7238 67.8478 79.2561 66.7676 79.4817C64.8681 79.8617 63.8803 81.2266 63.1286 82.9742C62.6402 84.1113 62.5859 85.3351 62.0811 86.4342C61.5764 87.5332 61.921 87.8805 63.0879 87.9077C65.1403 87.9496 67.1896 87.728 69.1855 87.2483C69.3049 86.9769 69.6089 86.8032 69.5329 86.4559L66.5777 81.3949C66.3823 81.1235 65.9535 80.8521 66.1299 80.5346C65.9535 80.8549 66.3823 81.1235 66.5777 81.3949L69.5329 86.4559L69.9996 86.2876C70.2495 86.4792 70.5462 86.6003 70.8587 86.6385C71.1713 86.6767 71.4884 86.6305 71.7771 86.5047C73.6359 85.8616 75.5328 85.3351 77.3998 84.7245C79.1121 84.1628 80.4011 83.1479 80.971 81.3406C81.1704 80.615 81.5365 79.9459 82.0402 79.3868C82.1677 78.7165 82.5829 78.19 82.9302 77.6365C84.6887 74.8495 86.5421 72.1196 88.1839 69.2648C89.4864 67.0369 90.9084 64.7438 90.0753 61.8809ZM67.75 80.9363C67.693 80.8304 67.6333 80.7246 67.5709 80.6269C67.6333 80.7246 67.693 80.8304 67.75 80.9363C67.8884 81.1425 68.0214 81.3433 68.176 81.5441C68.0322 81.3487 67.8884 81.1479 67.75 80.9417V80.9363ZM68.3958 81.8453C68.5424 82.0462 68.6889 82.247 68.83 82.4505C68.6889 82.2524 68.5451 82.0516 68.3958 81.8508V81.8453ZM69.2344 83.0665C69.4256 83.3775 69.5916 83.7033 69.731 84.0407C69.5914 83.7051 69.4253 83.3812 69.2344 83.0719V83.0665Z" fill="white"/>
<path d="M28.978 121.416L33.3199 124.401L33.3606 124.464L43.108 123.951L48.2152 113.712L45.2111 104.062L16.4707 112.355L16.7421 112.947L28.978 121.416ZM40.8367 106.838L43.2464 106.024V108.013L40.8367 108.426V106.838ZM37.5233 107.742L39.9331 106.928V108.925L37.5233 109.338V107.742ZM33.309 108.947L35.7187 108.133V110.13L33.309 110.542V108.947ZM28.7907 110.152L31.2005 109.338V111.335L28.7907 111.747V110.152ZM24.2725 111.357L26.6822 110.542V112.54L24.2725 112.952V111.357ZM20.0582 112.559L22.4652 111.745V113.742L20.0582 114.154V112.559Z" fill="white"/>
<path d="M104.189 128.681L105.047 128.507L104.189 128.681Z" fill="white"/>
<path d="M85.4805 133.074C91.8115 131.283 100.438 129.451 104.18 128.683C100.438 129.451 91.8142 131.28 85.4805 133.074Z" fill="white"/>
<path d="M84.252 133.43L84.9168 133.234L84.252 133.43Z" fill="white"/>
<path d="M81.5725 142.23C81.5145 142.199 81.4524 142.175 81.388 142.16C81.0732 142.229 80.7523 142.268 80.43 142.274C80.3541 142.306 80.2754 142.342 80.1967 142.382L80.099 142.279C77.966 142.279 75.0163 141.557 75.0163 141.557C58.9351 139.386 43.8335 131.37 33.3452 124.461L32.4009 123.796L28.9735 121.425L16.743 112.947L16.4717 112.356C14.7783 112.109 14.4852 113.851 14.4852 113.851C14.4852 113.851 13.8828 137.642 13.8828 141.557C13.8828 145.473 27.4376 153.004 54.2404 157.218C81.0433 161.432 83.4531 155.66 83.4531 155.66V140.613C83.0377 141.358 82.3712 141.931 81.5725 142.23V142.23ZM20.3576 117.848V121.68C20.3576 121.981 16.4418 119.273 16.4418 119.332V115.658L20.3576 117.848ZM20.7864 145.139C20.8298 145.172 20.8434 145.186 20.8162 145.172C20.803 145.165 20.7926 145.153 20.7864 145.139C20.3332 144.8 16.4445 142.214 16.4445 142.214V138.846L20.8244 141.56C20.8244 141.56 20.5313 144.762 20.7864 145.139ZM22.0238 119.574L25.9423 121.764V125.596C25.9423 125.897 22.0265 123.186 22.0265 123.248L22.0238 119.574ZM26.3521 148.152C26.3901 148.179 26.401 148.19 26.3792 148.179C26.3677 148.173 26.3582 148.163 26.3521 148.152C25.9613 147.861 22.6262 145.647 22.6262 145.647V142.762L26.3901 145.085C26.3901 145.085 26.1296 147.829 26.3413 148.152H26.3521ZM27.4376 123.186L30.9002 125.259V128.887C30.9002 129.172 27.4376 126.608 27.4376 126.665V123.186ZM31.8039 149.991L28.4905 149.088V146.019L31.8011 146.922L31.8039 149.991ZM76.3758 143.666H78.7856V145.774H76.3758V143.666ZM71.8576 143.365H74.8697V145.462H71.8576V143.365ZM67.4886 142.477C67.4886 142.344 70.1669 143.02 70.0448 143.53C70.0448 143.555 70.0448 145.158 70.0448 145.158L67.4886 144.819V142.477ZM62.0612 140.67C62.0612 140.488 65.3746 141.408 65.2254 142.073C65.2254 142.108 65.2254 144.268 65.2254 144.268L62.0612 143.818V140.67ZM56.2024 139.091L60.4059 139.994V143.063L56.1997 142.16L56.2024 139.091ZM33.1498 126.499L36.314 128.573V132.201C36.314 132.472 33.1498 129.918 33.1498 129.975V126.499ZM37.2203 152.1L33.9097 151.196V148.127L37.2231 149.031L37.2203 152.1ZM38.5772 129.813L41.8906 131.894V135.519C41.8906 135.791 38.5772 133.24 38.5772 133.297V129.813ZM43.8335 153.905L39.3289 153.004L39.3424 149.934L43.8471 150.838L43.8335 153.905ZM44.1483 133.728L47.4617 135.802V139.427C47.4617 139.699 44.1483 137.148 44.1483 137.205V133.728ZM49.5512 155.411L45.0465 154.507L45.0601 151.441L49.5648 152.344L49.5512 155.411ZM49.8769 136.982L54.0803 137.886V140.955L49.8769 140.051V136.982ZM56.4819 156.317L51.0763 155.413L51.0899 152.347L56.4955 153.248L56.4819 156.317ZM62.8075 156.317H58.604L58.6176 153.248L62.8211 153.948L62.8075 156.317ZM68.0557 157.052H64.6881V154.36H68.0557V157.052ZM72.8725 157.052H69.5075V154.811H72.8725V157.052ZM76.6716 157.052H73.7219V154.811H76.6879L76.6716 157.052ZM80.5874 156.618H78.1804V155.112H80.5901L80.5874 156.618ZM82.3947 145.764H80.5874V143.655H82.3866L82.3947 145.764Z" fill="white"/>
<path d="M83.4508 133.853V133.671C82.094 134.095 80.8918 134.507 79.9746 134.895C80.9325 134.537 81.9176 134.239 82.8837 133.894C83.0736 133.886 83.2636 133.869 83.4508 133.853Z" fill="white"/>
<path d="M106.027 128.31H105.991L105.888 128.329L105.671 128.372L105.601 128.386H105.546L105.408 128.415L105.289 128.44L105.191 128.459L105.077 128.483H105.055L104.198 128.657C100.456 129.425 91.8288 131.257 85.4978 133.048L84.9361 133.208L84.2712 133.403C83.9999 133.485 83.7285 133.563 83.4707 133.645V133.826L83.9239 133.775V134.529L86.0487 134.003L86.3363 135.509L83.9239 136.323V138.86C83.924 139.468 83.7679 140.066 83.4707 140.597V147.867C83.4707 147.867 100.939 140.035 101.842 139.132C102.746 138.228 106.059 128.277 106.059 128.277L106.027 128.31ZM87.5738 134.03L89.628 133.126V135.026L87.5738 135.235V134.03ZM84.51 146.377L84.1518 144.871L86.3228 143.967C86.6186 144.269 86.7895 145.473 86.7895 145.473L84.51 146.377ZM87.989 145.172L87.2888 143.815L89.628 142.73L89.9699 143.97L87.989 145.172ZM91.4462 143.365L91.1341 142.16L93.2426 141.256C93.3318 141.756 93.4588 142.247 93.6225 142.727L91.4462 143.365ZM93.8505 133.428L91.4543 134.179C91.4543 134.179 91.4353 133.126 91.4543 132.673L93.8505 132.114V133.428ZM96.9549 140.646L94.7487 141.815V140.307C94.7487 140.307 96.556 139.764 96.9549 139.661C97.3538 139.558 96.9522 140.646 96.9522 140.646H96.9549ZM97.674 132.383L94.7487 133.148V131.623L97.674 131.322V132.383ZM100.7 138.847C100.627 138.847 98.3633 140.052 98.3633 140.065C98.2323 139.565 98.1317 139.058 98.0621 138.545C98.0621 138.545 99.8694 137.943 100.171 137.943C100.472 137.943 100.77 138.847 100.697 138.847H100.7ZM100.971 131.474L98.632 132.234C98.632 132.234 98.4447 131.419 98.3742 130.969C98.3602 130.885 98.352 130.801 98.3497 130.717H100.971V131.474ZM102.168 131.031C101.772 131.031 102.263 130.114 102.168 129.813L104.673 129.21C104.673 129.21 104.673 130.415 104.795 130.717C104.917 131.018 102.575 131.018 102.179 131.031H102.168Z" fill="white"/>
<path d="M39.7817 55.575L39.1792 48.3485C39.1792 48.647 -1.17842 65.5124 0.0264512 67.0185C0.163673 67.1588 0.333283 67.2632 0.52034 67.3225L18.5445 67.4663L39.7817 55.575ZM35.4208 51.0052L36.0232 52.0472L34.6447 52.8451L34.0423 51.8003L35.4208 51.0052ZM32.7071 52.2101L33.3096 53.2521L31.931 54.0499L31.3286 53.0052L32.7071 52.2101ZM29.9935 53.4149L30.5959 54.457L29.2174 55.2548L28.6149 54.21L29.9935 53.4149ZM29.9935 58.8423L30.5959 59.8843L29.2174 60.6794L28.6149 59.6374L29.9935 58.8423ZM26.813 61.8816L26.2133 60.8368L27.5946 60.039L28.197 61.0837L26.813 61.8816ZM27.2988 54.6198L27.9012 55.6618L26.5118 56.4542L25.9094 55.4095L27.2988 54.6198ZM24.1129 63.0837L23.4997 62.0417L24.8782 61.2438L25.4806 62.2886L24.1129 63.0837ZM24.2866 56.1259L24.8891 57.1679L23.4997 57.9657L22.8972 56.921L24.2866 56.1259ZM22.7805 63.4935L21.402 64.2886L20.786 63.2384L22.1645 62.4406L22.7805 63.4935ZM21.2745 57.3307L21.8769 58.3728L20.4902 59.1679L19.8878 58.1231L21.2745 57.3307ZM5.44021 66.3971L4.83778 65.355L6.21632 64.5572L6.81876 65.602L5.44021 66.3971ZM8.44153 64.5952L7.84181 63.5532L9.22035 62.7554L9.82279 63.8001L8.44153 64.5952ZM11.7549 63.3904L11.1525 62.3483L12.5337 61.5505L13.1362 62.5953L11.7549 63.3904ZM13.8634 60.8422L15.242 60.0444L15.8444 61.0892L14.4659 61.8816L13.8634 60.8422ZM15.9719 67.005L15.3587 65.9521L16.7372 65.1542L17.3396 66.199L15.9719 67.005ZM17.1768 59.3361L18.5554 58.541L19.1578 59.5831L17.7793 60.3782L17.1768 59.3361ZM19.459 63.659L20.0614 64.7038L18.6829 65.4989L18.0723 64.4514L19.459 63.659Z" fill="white"/>
<path d="M37.6732 67.6204L18.5445 67.4657L17.1877 68.2228C17.1877 68.2228 3.48369 68.4806 0.514938 67.3219H0.322266C3.36157 75.4276 9.59757 81.6175 11.5026 83.3787C11.6775 83.5401 11.8827 83.6655 12.1062 83.7474C12.3297 83.8294 12.5673 83.8664 12.8051 83.8563L33.1576 82.9825L37.6732 67.6204ZM26.2948 68.6652C26.2948 68.6652 27.5838 70.7737 27.6516 71.0749C27.7194 71.3761 24.5607 71.0749 24.5607 71.0749C24.5607 71.0749 23.3559 68.9664 23.3559 68.6652H26.2948ZM3.79305 70.7737C3.79305 70.7737 2.58818 68.6652 2.58818 68.364H5.51351C5.51351 68.364 6.8025 70.4725 6.88391 70.7737C6.96532 71.0749 3.79305 70.7845 3.79305 70.7845V70.7737ZM9.22038 70.7737C9.22038 70.7737 8.01551 68.6652 8.01551 68.364H10.9354C10.9354 68.364 12.2244 70.4725 12.2922 70.7737C12.3601 71.0749 9.21224 70.7845 9.21224 70.7845L9.22038 70.7737ZM12.8838 83.1209L11.6762 80.8767H15.5785C15.8499 81.0286 16.7427 83.1371 16.7427 83.1371L12.8838 83.1209ZM14.6423 70.7737C14.6423 70.7737 13.4374 68.6652 13.4374 68.364H16.3627C16.3627 68.364 17.6544 70.4725 17.7331 70.7737C17.8118 71.0749 14.6341 70.7845 14.6341 70.7845L14.6423 70.7737ZM18.8593 82.7437L17.725 80.8767L21.5594 80.4262L22.4631 82.5347L18.8593 82.7437ZM20.0642 70.7737C20.0642 70.7737 18.8593 68.6652 18.8593 68.364H21.7846C21.7846 68.364 23.0736 70.4725 23.1415 70.7737C23.2093 71.0749 20.056 70.7845 20.056 70.7845L20.0642 70.7737ZM24.2785 82.4424L23.155 80.5592L26.9895 80.1087L27.8931 82.2172L24.2785 82.4424Z" fill="white"/>
<path d="M17.1947 68.2228L18.5515 67.4657L0.527344 67.3219C3.49067 68.4806 17.1947 68.2228 17.1947 68.2228Z" fill="white"/>
<path d="M20.7891 145.139C20.7953 145.153 20.8057 145.165 20.8189 145.172C20.8352 145.191 20.8216 145.172 20.7891 145.139Z" fill="white"/>
<path d="M26.3398 148.151C26.346 148.163 26.3554 148.172 26.367 148.178C26.3887 148.189 26.3778 148.176 26.3398 148.151Z" fill="white"/>
<path d="M80.7346 142.274C81.0325 142.131 81.3695 142.091 81.6926 142.16C81.757 142.175 81.8191 142.199 81.8771 142.231C82.6756 141.928 83.3402 141.35 83.7522 140.602C84.0495 140.072 84.2055 139.474 84.2054 138.866V133.794L83.7522 133.845C83.565 133.862 83.375 133.878 83.1851 133.886C82.219 134.231 81.234 134.529 80.276 134.887C79.8825 135.037 79.4945 135.191 79.1146 135.368C77.1445 136.285 76.3765 137.479 77.7577 139.52C78.4877 140.605 79.5488 141.335 80.409 142.271L80.5067 142.374C80.58 142.342 80.6587 142.307 80.7346 142.274Z" fill="white"/>
<path d="M81.399 142.51C80.5849 142.718 79.6216 142.621 78.7939 142.51C69.8595 141.37 61.1288 138.984 52.8567 135.421C52.2271 135.15 51.603 134.879 50.9761 134.583C45.2533 131.967 39.7424 128.91 34.4933 125.441C34.298 125.31 33.473 124.933 33.4974 124.673C33.5137 124.453 34.5829 124.108 34.7728 124.013C35.0442 123.877 35.3291 123.742 35.6059 123.598C36.2671 123.261 36.9077 122.885 37.5245 122.472C37.9177 122.204 38.2913 121.908 38.6425 121.587H38.6561C39.7812 120.61 40.6582 119.379 41.2151 117.997C41.2151 117.97 41.2395 117.943 41.2531 117.918C42.7673 114.258 42.694 109.305 42.5149 103.707C42.5014 103.302 42.4769 102.906 42.4498 102.515C42.4498 102.499 42.4498 102.488 42.4498 102.475C42.2722 100.042 41.8123 97.6376 41.0794 95.3107C41.0738 95.2829 41.0656 95.2556 41.055 95.2293V95.2293C40.8433 94.559 40.6181 93.9295 40.3929 93.3297C39.6952 91.4484 38.7848 89.6529 37.6792 87.9784C22.5505 89.1887 28.6047 74.9664 28.6047 74.9664C28.6047 74.6326 28.6237 74.307 28.6318 73.9949C28.6562 73.2161 28.678 72.5051 28.7024 71.8484C28.9737 64.1578 29.3401 64.1985 30.4174 60.147C31.4296 56.3479 33.7064 55.3086 34.4282 55.0671C34.5926 55.011 34.742 54.9182 34.8651 54.7957C37.0985 52.6573 37.4784 50.7903 37.4784 49.6859V49.6424C37.4661 49.315 37.4326 48.9886 37.378 48.6655V47.2408C37.377 46.576 37.5765 45.9263 37.9506 45.3766L42.5231 38.6548C42.5231 38.6548 52.2054 28.6712 60.1321 34.5626C68.0587 40.454 64.9108 42.5896 69.4481 50.1553C70.7479 52.3263 71.2038 54.7278 71.193 57.0697C71.193 57.1349 71.193 57.2 71.193 57.2706C71.1061 62.9421 68.3328 68.1388 68.2432 68.3043L68.3517 68.2338C70.5227 66.7412 75.3259 65.2813 75.5023 68.307C75.5023 68.4726 75.5185 68.6354 75.524 68.7955C75.524 68.8932 75.524 68.9882 75.524 69.0859C75.524 78.7058 64.6096 80.7139 64.6096 80.7139C62.4902 81.9242 61.2826 90.3963 60.976 93.7232C60.6882 96.1957 60.6364 98.69 60.8213 101.172C61.0357 104.187 61.611 108.282 62.8946 114.198C62.9136 114.271 62.9298 114.342 62.9434 114.415C63.3339 116.275 63.931 118.085 64.7236 119.812C65.5221 121.574 66.6141 123.187 67.9528 124.583L67.9908 124.621C68.9756 125.633 70.122 126.474 71.3829 127.109C72.8247 127.877 74.3057 128.568 75.8198 129.18C77.9663 130.1 80.0531 131.153 82.1562 132.165L83.5591 132.846C83.9933 133.058 84.3732 133.356 84.8237 133.527C84.1561 133.967 83.0028 134.105 82.2159 134.377C80.5877 134.936 76.0504 136.236 77.988 138.762C78.973 140.048 80.7016 140.862 82.1562 141.476L82.3217 141.541C82.8319 141.761 81.4886 142.477 81.399 142.51Z" fill="white"/>
<path d="M110.398 88.6078C107.166 82.2958 102.113 77.6201 95.7115 74.4452C95.1525 74.1738 94.5962 73.7695 94.1891 74.5673C93.4564 76.0028 92.2163 76.9499 90.911 77.9078C91.432 78.2714 91.8499 78.5482 92.2516 78.8494C93.915 80.1004 95.2366 82.7164 93.1389 85.042C92.39 85.8561 91.6817 86.7381 90.9897 87.6146C89.0711 90.0569 87.2259 92.5399 85.2476 94.9252C83.3182 97.2508 80.3793 96.7325 79.207 93.932C78.6805 92.6783 78.2952 91.3594 77.6982 90.1329C75.5272 85.7232 77.3074 85.9457 72.2437 87.7177C71.3862 88.0189 71.199 88.3391 71.5843 89.2211C72.5748 91.4843 73.5001 93.7773 74.3387 96.0975C75.1772 98.4177 73.6738 100.494 71.1664 100.575C70.6237 100.304 70.0809 100.716 69.5545 100.575C67.0226 100.168 64.4881 99.7609 61.9562 99.3539C61.3293 99.2562 61.3185 99.704 61.3673 100.133C61.5084 101.392 61.6713 102.648 61.8097 103.907C61.8477 104.244 61.9345 104.521 62.3198 104.532C64.4446 104.591 66.4609 105.476 68.6074 105.346C69.0226 105.848 69.644 105.739 70.184 105.867C72.6508 106.184 73.7308 109.123 72.3251 110.966C70.9194 112.808 69.5273 114.58 68.1406 116.393C66.0186 119.18 66.0457 119.166 68.1624 121.964C68.9086 122.952 69.4486 123.183 70.3089 122.035C72.0782 119.677 73.9995 117.421 75.7796 115.082C76.7647 113.78 77.9288 113.101 79.5787 113.373C81.15 113.644 81.8419 114.768 82.363 116.105C83.2449 118.36 84.3032 120.558 85.0115 122.868C85.8527 125.603 88.2435 128.024 86.7591 131.256C88.3873 131.467 89.7577 130.621 91.2421 130.689L103.242 127.85C104.639 127.115 106.335 127.077 107.407 125.573C115.763 113.85 116.984 101.476 110.398 88.6078ZM78.5855 107.552C78.4963 107.557 78.407 107.544 78.3232 107.513C78.2394 107.482 78.163 107.433 78.0989 107.371C78.0349 107.309 77.9845 107.234 77.951 107.151C77.9175 107.068 77.9016 106.979 77.9044 106.89C77.9002 106.842 77.9002 106.794 77.9044 106.746C77.9395 106.596 78.0212 106.461 78.1377 106.361C78.2542 106.26 78.3996 106.2 78.553 106.187V106.187C78.9519 106.236 79.2341 106.458 79.2341 106.854C79.2389 106.943 79.2257 107.032 79.1954 107.116C79.1651 107.199 79.1183 107.276 79.0578 107.341C78.9973 107.406 78.9243 107.458 78.8431 107.494C78.762 107.531 78.6744 107.55 78.5855 107.552V107.552ZM81.3616 105.821C80.1188 105.837 79.519 105.061 79.3372 103.989C79.169 102.996 80.2409 101.883 81.2558 101.831C81.5213 101.817 81.787 101.857 82.0368 101.948C82.2866 102.039 82.5153 102.18 82.709 102.362C82.9028 102.544 83.0577 102.764 83.1642 103.008C83.2708 103.251 83.3269 103.514 83.329 103.78C83.3417 104.046 83.2997 104.311 83.2058 104.56C83.1118 104.809 82.9678 105.036 82.7827 105.228C82.5976 105.419 82.3753 105.57 82.1295 105.672C81.8837 105.774 81.6196 105.825 81.3535 105.821H81.3616ZM83.8175 101.479C83.7315 101.494 83.6432 101.49 83.5585 101.469C83.4738 101.448 83.3946 101.409 83.326 101.355C83.2574 101.301 83.2009 101.233 83.1603 101.156C83.1197 101.078 83.0958 100.993 83.0902 100.906C83.0631 100.502 83.3616 100.301 83.6818 100.206C84.1133 100.22 84.4009 100.412 84.4416 100.8C84.4545 100.889 84.4475 100.98 84.4213 101.066C84.395 101.153 84.3501 101.232 84.2898 101.299C84.2294 101.366 84.1551 101.418 84.072 101.453C83.989 101.488 83.8993 101.504 83.8094 101.5L83.8175 101.479ZM106.829 116.477C105.144 121.326 102.181 125.188 97.5378 127.668C95.6111 128.699 92.5446 127.763 91.7577 125.522C90.3194 121.432 88.5691 117.449 87.0332 113.392C86.0943 110.914 87.9504 108.575 91.1254 108.827C94.9897 109.4 99.4048 110 103.796 110.727C106.325 111.15 107.776 113.742 106.821 116.488L106.829 116.477ZM103.823 105.544C100.005 104.955 96.1728 104.458 92.3465 103.937C90.8622 103.734 89.5542 103.224 88.9599 101.723C88.3656 100.222 88.7672 98.9876 89.774 97.7637C92.3167 94.6593 94.8513 91.544 97.2529 88.331C99.242 85.6635 102.238 86.1763 104.075 88.1302C107.413 91.6878 108.884 96.0541 109.299 100.836C109.345 104.214 107.158 106.059 103.823 105.544Z" fill="white"/>
<path d="M70.9045 88.5621C70.1528 85.3627 68.7932 82.3614 66.5979 79.93C66.4323 79.7481 66.1854 79.5528 65.9656 79.6586C65.6725 79.8133 65.8489 80.2583 66.047 80.5242C68.4893 83.7806 69.819 87.7887 70.2613 91.8348C70.6358 95.2893 70.3862 98.7818 69.8081 102.198C69.2925 105.227 68.4513 108.258 66.8231 110.882C65.5151 112.969 63.0674 114.437 60.5491 114.003C58.0308 113.569 56.1096 110.885 55.2466 108.681C53.8226 104.919 53.2858 100.88 53.6781 96.8768C54.3434 90.5898 57.3928 84.7969 62.199 80.6898C62.7092 80.2502 63.2302 79.8241 63.7485 79.3954C64.1963 79.0236 63.5559 78.3886 63.1108 78.7549C60.9127 80.5677 58.8314 82.4265 57.2113 84.7928C52.7663 91.2758 51.5967 99.5986 53.7541 107.156C53.9519 107.903 54.1911 108.639 54.4705 109.36C56.2588 113.723 60.9345 116.703 65.3062 113.702C67.3496 112.296 68.6575 110.043 69.5693 107.731C70.9886 104.141 71.5937 100.261 71.6724 96.3992C71.7443 93.765 71.4864 91.1322 70.9045 88.5621V88.5621Z" fill="white"/>
<path d="M36.622 97.8892C34.5949 99.189 32.1255 99.1782 29.9953 97.8892C27.865 96.6002 27.2409 94.6029 26.8664 92.3099C25.8868 86.2774 26.0116 79.5122 28.5489 73.8244C28.5733 73.0456 28.5977 72.3346 28.6194 71.6752C25.3793 77.2436 23.8325 83.8514 24.6276 90.2584C25.07 93.8133 26.3942 97.7426 29.6995 99.6042C30.9718 100.305 32.418 100.628 33.8677 100.535C37.1241 100.345 39.5039 97.9272 40.9232 95.1701L40.9748 95.0643C40.7631 94.3858 40.5378 93.7508 40.3072 93.1647C39.4822 95.0615 38.4673 96.7033 36.622 97.8892Z" fill="white"/>
<path d="M130.917 134.944L133.867 125.717H136.068L132.108 137.239H129.908L126 125.717H128.22L131.132 134.944H130.917Z" fill="white"/>
<path d="M142.387 126.083H144.377L148.225 133.793H148.083L151.918 126.086H153.855V137.237H152.452V127.522H152.699L148.615 135.831H147.682L143.611 127.576H143.771V137.234H142.385L142.387 126.083Z" fill="white"/>
<path d="M160.496 137.448C159.784 137.462 159.081 137.287 158.458 136.941C157.851 136.592 157.362 136.07 157.053 135.443C156.713 134.67 156.537 133.834 156.537 132.99C156.537 132.145 156.713 131.31 157.053 130.536C157.363 129.91 157.852 129.389 158.458 129.041C159.085 128.709 159.784 128.535 160.494 128.535C161.203 128.535 161.902 128.709 162.529 129.041C163.134 129.389 163.621 129.91 163.929 130.536C164.266 131.311 164.439 132.146 164.439 132.99C164.439 133.834 164.266 134.669 163.929 135.443C163.622 136.071 163.134 136.592 162.529 136.941C161.908 137.286 161.207 137.461 160.496 137.448V137.448ZM160.461 136.235C160.953 136.258 161.439 136.122 161.849 135.849C162.258 135.576 162.57 135.178 162.738 134.716C162.948 134.164 163.05 133.577 163.036 132.987C163.036 131.976 162.825 131.178 162.404 130.593C162.189 130.304 161.905 130.072 161.578 129.919C161.251 129.767 160.892 129.698 160.532 129.72C160.033 129.703 159.541 129.84 159.123 130.113C158.728 130.395 158.426 130.788 158.255 131.242C158.044 131.799 157.943 132.391 157.956 132.987C157.956 133.986 158.168 134.777 158.591 135.361C158.806 135.651 159.089 135.882 159.416 136.035C159.742 136.187 160.101 136.256 160.461 136.235V136.235Z" fill="white"/>
<path d="M170.182 137.448C169.479 137.47 168.779 137.351 168.122 137.098C167.62 136.903 167.186 136.566 166.871 136.13C166.585 135.712 166.427 135.219 166.418 134.713H167.761C167.762 134.953 167.822 135.189 167.935 135.401C168.049 135.613 168.213 135.793 168.413 135.926C168.913 136.22 169.488 136.36 170.068 136.33C170.413 136.335 170.757 136.274 171.08 136.151C171.363 136.052 171.616 135.884 171.818 135.663C171.993 135.472 172.09 135.222 172.09 134.963C172.096 134.813 172.067 134.664 172.003 134.527C171.94 134.391 171.845 134.273 171.726 134.181C171.374 133.942 170.98 133.774 170.564 133.685L168.912 133.142C168.294 132.975 167.728 132.657 167.265 132.217C167.078 132.033 166.929 131.814 166.828 131.572C166.727 131.33 166.675 131.07 166.676 130.808C166.672 130.478 166.753 130.152 166.912 129.863C167.07 129.573 167.301 129.329 167.582 129.155C168.294 128.712 169.124 128.495 169.962 128.534C171.004 128.534 171.81 128.748 172.385 129.174C172.65 129.351 172.869 129.588 173.025 129.866C173.18 130.144 173.268 130.455 173.281 130.773H171.924C171.904 130.596 171.842 130.427 171.743 130.28C171.644 130.132 171.512 130.01 171.357 129.923C170.929 129.708 170.451 129.609 169.973 129.636C169.49 129.604 169.01 129.74 168.616 130.021C168.474 130.116 168.356 130.243 168.272 130.392C168.188 130.541 168.14 130.708 168.133 130.879C168.133 131.465 168.636 131.897 169.642 132.176L171.327 132.743C171.942 132.902 172.514 133.196 173.001 133.603C173.191 133.774 173.34 133.984 173.441 134.218C173.541 134.452 173.589 134.705 173.582 134.96C173.578 135.397 173.433 135.821 173.167 136.168C172.857 136.57 172.451 136.887 171.986 137.09C171.418 137.339 170.802 137.461 170.182 137.448V137.448Z" fill="white"/>
<path d="M175.27 129.706V128.748H180.697V129.706H175.27ZM179.069 137.448C178.639 137.453 178.214 137.36 177.826 137.177C177.461 136.998 177.158 136.714 176.955 136.363C176.73 135.956 176.621 135.497 176.637 135.033V126.387H177.994V135.014C177.994 135.891 178.403 136.33 179.221 136.33C179.458 136.33 179.695 136.303 179.926 136.249C180.187 136.186 180.444 136.106 180.694 136.01L180.89 137.003C180.597 137.131 180.296 137.238 179.989 137.323C179.689 137.407 179.38 137.449 179.069 137.448Z" fill="white"/>
<path d="M183.135 137.234V128.73H184.521V137.234H183.135ZM184.095 133.4C184.075 132.494 184.179 131.59 184.405 130.713C184.55 130.106 184.865 129.552 185.314 129.118C185.718 128.764 186.24 128.575 186.777 128.588C186.952 128.59 187.127 128.606 187.3 128.637C187.462 128.663 187.621 128.703 187.775 128.757L187.686 130.114C187.508 130.056 187.326 130.01 187.143 129.975C186.97 129.94 186.795 129.921 186.619 129.918C186.173 129.896 185.737 130.05 185.403 130.347C185.069 130.679 184.837 131.1 184.733 131.56C184.584 132.161 184.513 132.778 184.524 133.397L184.095 133.4Z" fill="white"/>
<path d="M191.915 137.449C191.315 137.471 190.72 137.342 190.183 137.074C189.775 136.865 189.433 136.547 189.194 136.156C188.954 135.765 188.827 135.315 188.827 134.857C188.803 134.353 188.956 133.857 189.258 133.454C189.564 133.08 189.972 132.804 190.433 132.659C190.976 132.484 191.543 132.399 192.113 132.407C192.561 132.407 193.008 132.451 193.448 132.54C193.894 132.626 194.332 132.748 194.759 132.903V133.772C194.369 133.621 193.965 133.508 193.554 133.435C193.149 133.357 192.737 133.315 192.324 133.31C191.822 133.293 191.324 133.415 190.886 133.663C190.688 133.789 190.529 133.967 190.425 134.178C190.322 134.388 190.278 134.623 190.3 134.857C190.298 135.056 190.336 135.253 190.414 135.436C190.491 135.619 190.606 135.784 190.751 135.921C191.049 136.216 191.527 136.364 192.183 136.366C192.621 136.372 193.053 136.259 193.432 136.04C193.784 135.84 194.085 135.562 194.311 135.226C194.513 134.94 194.625 134.6 194.634 134.249H194.97C194.976 134.798 194.849 135.339 194.601 135.828C194.359 136.33 193.976 136.751 193.5 137.04C193.024 137.329 192.474 137.473 191.917 137.457L191.915 137.449ZM194.807 137.234L194.631 135.37V131.731C194.631 130.968 194.468 130.417 194.143 130.084C193.945 129.905 193.714 129.768 193.462 129.682C193.21 129.596 192.943 129.561 192.677 129.582C192.338 129.578 192 129.632 191.679 129.742C191.399 129.835 191.152 130.006 190.968 130.236C190.783 130.482 190.687 130.783 190.696 131.09H189.152C189.126 130.557 189.286 130.031 189.605 129.603C189.931 129.214 190.364 128.931 190.851 128.789C191.44 128.612 192.052 128.527 192.666 128.537C193.26 128.527 193.849 128.639 194.398 128.865C194.893 129.078 195.306 129.444 195.578 129.91C195.885 130.48 196.033 131.122 196.004 131.769V137.237L194.807 137.234Z" fill="white"/>
<path d="M207.416 137.449C206.513 137.472 205.625 137.213 204.876 136.708C204.151 136.187 203.586 135.474 203.247 134.648C202.845 133.68 202.648 132.638 202.669 131.59C202.636 130.513 202.85 129.444 203.296 128.464C203.665 127.671 204.258 127.003 205 126.542C205.737 126.1 206.583 125.873 207.443 125.888C208.631 125.888 209.588 126.186 210.314 126.781C211.042 127.381 211.565 128.193 211.809 129.104L210.319 129.405C210.119 128.758 209.734 128.182 209.212 127.75C208.715 127.34 208.087 127.121 207.443 127.131C206.861 127.128 206.293 127.303 205.815 127.633C205.284 128.01 204.871 128.528 204.621 129.128C204.295 129.907 204.141 130.746 204.167 131.59C204.154 132.394 204.276 133.194 204.526 133.959C204.73 134.591 205.106 135.155 205.611 135.587C206.13 135.995 206.777 136.206 207.437 136.181C208.202 136.223 208.952 135.969 209.535 135.473C209.792 135.237 209.995 134.948 210.129 134.626C210.264 134.305 210.327 133.957 210.314 133.609H211.823C211.845 134.332 211.656 135.045 211.28 135.663C210.904 136.242 210.368 136.7 209.739 136.982C209.008 137.308 208.215 137.467 207.416 137.449V137.449Z" fill="white"/>
<path d="M217.5 137.448C216.788 137.462 216.085 137.287 215.462 136.941C214.855 136.592 214.366 136.07 214.057 135.443C213.717 134.67 213.541 133.834 213.541 132.99C213.541 132.145 213.717 131.31 214.057 130.536C214.367 129.91 214.856 129.389 215.462 129.041C216.089 128.709 216.788 128.535 217.497 128.535C218.207 128.535 218.906 128.709 219.533 129.041C220.138 129.39 220.626 129.91 220.936 130.536C221.272 131.311 221.446 132.146 221.446 132.99C221.446 133.834 221.272 134.669 220.936 135.443C220.627 136.07 220.138 136.591 219.533 136.941C218.912 137.286 218.211 137.461 217.5 137.448V137.448ZM217.465 136.241C217.957 136.263 218.443 136.128 218.853 135.854C219.262 135.581 219.574 135.184 219.742 134.721C219.952 134.17 220.054 133.582 220.04 132.992C220.04 131.98 219.828 131.182 219.411 130.599C219.195 130.309 218.911 130.077 218.584 129.924C218.256 129.772 217.896 129.703 217.535 129.725C217.037 129.708 216.546 129.845 216.13 130.119C215.734 130.4 215.43 130.793 215.259 131.247C215.048 131.804 214.946 132.397 214.96 132.992C214.96 133.991 215.172 134.782 215.595 135.367C215.81 135.655 216.094 135.885 216.42 136.037C216.747 136.189 217.106 136.257 217.465 136.235V136.241Z" fill="white"/>
<path d="M224.133 137.234V128.748H225.321L225.482 130.452C225.712 129.881 226.102 129.388 226.605 129.033C227.118 128.691 227.725 128.517 228.342 128.534C228.945 128.517 229.541 128.672 230.059 128.982C230.539 129.293 230.917 129.74 231.145 130.265C231.412 130.891 231.541 131.566 231.525 132.246V137.234H230.168V132.246C230.168 131.434 229.974 130.817 229.585 130.395C229.382 130.181 229.135 130.014 228.862 129.904C228.588 129.795 228.294 129.745 228 129.76C227.526 129.749 227.061 129.895 226.678 130.176C226.284 130.485 225.986 130.9 225.818 131.372C225.602 131.965 225.499 132.592 225.514 133.223V137.234H224.133ZM236.073 137.234V132.246C236.073 131.432 235.878 130.819 235.492 130.395C235.266 130.174 234.995 130.003 234.698 129.894C234.4 129.786 234.083 129.742 233.767 129.766C233.451 129.79 233.144 129.882 232.866 130.034C232.589 130.187 232.347 130.397 232.157 130.65C231.75 131.247 231.544 132.067 231.544 133.114H230.906C230.896 132.439 230.972 131.765 231.131 131.109C231.256 130.593 231.481 130.106 231.794 129.676C232.068 129.307 232.431 129.012 232.849 128.819C233.295 128.627 233.778 128.534 234.263 128.547C234.866 128.53 235.462 128.686 235.981 128.995C236.461 129.307 236.838 129.753 237.066 130.279C237.333 130.904 237.462 131.58 237.446 132.26V137.247L236.073 137.234Z" fill="white"/>
<path d="M240.742 141.408V128.749H241.895L242.126 130.738V141.408H240.742ZM244.596 137.449C244.023 137.465 243.459 137.317 242.967 137.023C242.495 136.724 242.125 136.288 241.906 135.774C241.64 135.141 241.512 134.458 241.532 133.772H242.115C242.1 134.238 242.214 134.699 242.444 135.104C242.65 135.449 242.947 135.73 243.301 135.918C243.648 136.099 244.034 136.192 244.425 136.19C244.86 136.187 245.285 136.059 245.649 135.821C246.061 135.553 246.393 135.177 246.609 134.735C246.877 134.189 247.011 133.587 247 132.979C247.016 132.384 246.899 131.793 246.658 131.248C246.459 130.803 246.141 130.421 245.738 130.146C245.36 129.895 244.914 129.762 244.46 129.766C244.063 129.765 243.672 129.866 243.326 130.06C242.965 130.26 242.667 130.556 242.463 130.914C242.233 131.34 242.119 131.82 242.134 132.304H241.548C241.526 131.59 241.666 130.881 241.958 130.23C242.196 129.709 242.582 129.269 243.068 128.966C243.542 128.681 244.086 128.534 244.639 128.54C245.297 128.541 245.94 128.729 246.495 129.083C247.087 129.457 247.568 129.984 247.887 130.608C248.263 131.344 248.449 132.162 248.43 132.988C248.45 133.822 248.264 134.649 247.887 135.395C247.565 136.024 247.078 136.555 246.479 136.931C245.912 137.276 245.26 137.456 244.596 137.449V137.449Z" fill="white"/>
<path d="M254.058 137.448C253.361 137.459 252.677 137.263 252.093 136.884C251.508 136.494 251.039 135.953 250.736 135.318C250.391 134.598 250.219 133.807 250.234 133.009C250.212 132.182 250.382 131.362 250.731 130.613C251.024 129.978 251.496 129.443 252.089 129.074C252.682 128.704 253.37 128.517 254.069 128.534C254.644 128.517 255.214 128.652 255.721 128.925C256.171 129.18 256.55 129.544 256.823 129.983C257.107 130.445 257.303 130.954 257.404 131.486C257.514 132.058 257.545 132.643 257.496 133.223H251.344V132.371H256.573L256.166 132.642C256.183 132.292 256.163 131.941 256.107 131.595C256.056 131.258 255.95 130.933 255.792 130.632C255.643 130.343 255.42 130.099 255.146 129.926C254.824 129.735 254.454 129.64 254.08 129.655C253.594 129.64 253.117 129.786 252.723 130.07C252.359 130.352 252.077 130.727 251.909 131.155C251.723 131.623 251.631 132.123 251.637 132.626V133.193C251.63 133.735 251.722 134.274 251.909 134.783C252.07 135.223 252.352 135.607 252.723 135.893C253.127 136.154 253.598 136.293 254.08 136.293C254.561 136.293 255.032 136.154 255.436 135.893C255.618 135.75 255.77 135.572 255.881 135.369C255.992 135.166 256.062 134.943 256.085 134.713H257.523C257.453 135.232 257.25 135.725 256.935 136.143C256.619 136.561 256.201 136.891 255.721 137.101C255.198 137.335 254.631 137.453 254.058 137.448V137.448Z" fill="white"/>
<path d="M259.051 129.706V128.748H264.465V129.706H259.051ZM262.85 137.448C262.42 137.453 261.995 137.36 261.607 137.177C261.242 136.998 260.939 136.714 260.736 136.363C260.511 135.957 260.4 135.497 260.416 135.033V126.387H261.773V135.014C261.773 135.891 262.181 136.33 262.999 136.33C263.237 136.33 263.474 136.303 263.705 136.249C263.966 136.186 264.222 136.106 264.473 136.01L264.668 137.003C264.376 137.131 264.075 137.238 263.767 137.323C263.469 137.406 263.16 137.448 262.85 137.448V137.448Z" fill="white"/>
<path d="M267.695 126.738C267.572 126.744 267.448 126.726 267.332 126.684C267.216 126.642 267.11 126.577 267.019 126.493C266.936 126.409 266.871 126.308 266.829 126.198C266.786 126.087 266.767 125.969 266.772 125.85C266.767 125.735 266.787 125.62 266.829 125.513C266.872 125.406 266.937 125.309 267.019 125.229C267.213 125.078 267.452 124.996 267.698 124.996C267.943 124.996 268.182 125.078 268.376 125.229C268.459 125.309 268.524 125.406 268.566 125.513C268.609 125.62 268.628 125.735 268.623 125.85C268.628 125.969 268.609 126.087 268.567 126.198C268.524 126.308 268.459 126.409 268.376 126.493C268.285 126.578 268.178 126.643 268.061 126.685C267.943 126.727 267.819 126.745 267.695 126.738ZM267.003 137.231V128.73H268.387V137.234L267.003 137.231Z" fill="white"/>
<path d="M271.016 129.706V128.748H276.443V129.706H271.016ZM274.815 137.448C274.385 137.453 273.96 137.36 273.572 137.177C273.207 136.998 272.903 136.715 272.701 136.363C272.475 135.957 272.365 135.497 272.381 135.033V126.387H273.737V135.014C273.737 135.891 274.146 136.33 274.964 136.33C275.202 136.33 275.438 136.303 275.67 136.249C275.93 136.186 276.187 136.106 276.438 136.01L276.633 137.003C276.34 137.13 276.039 137.237 275.732 137.323C275.433 137.406 275.125 137.448 274.815 137.448V137.448Z" fill="white"/>
<path d="M279.66 126.738C279.537 126.744 279.413 126.726 279.297 126.684C279.181 126.642 279.075 126.577 278.984 126.493C278.901 126.409 278.836 126.308 278.793 126.198C278.751 126.087 278.732 125.969 278.737 125.85C278.732 125.735 278.751 125.62 278.794 125.513C278.837 125.406 278.901 125.309 278.984 125.229C279.178 125.078 279.417 124.996 279.663 124.996C279.908 124.996 280.147 125.078 280.341 125.229C280.424 125.309 280.489 125.406 280.531 125.513C280.574 125.62 280.593 125.735 280.588 125.85C280.593 125.969 280.574 126.087 280.532 126.198C280.489 126.308 280.424 126.409 280.341 126.493C280.25 126.578 280.142 126.643 280.025 126.685C279.908 126.727 279.784 126.745 279.66 126.738ZM278.968 137.231V128.73H280.352V137.234L278.968 137.231Z" fill="white"/>
<path d="M282.699 128.749H284.279L286.941 136.046H286.745L289.41 128.749H290.989L287.6 137.234H286.078L282.699 128.749Z" fill="white"/>
<path d="M295.458 137.449C294.858 137.471 294.263 137.342 293.726 137.074C293.318 136.865 292.976 136.547 292.737 136.156C292.497 135.765 292.37 135.315 292.37 134.857C292.346 134.353 292.499 133.857 292.801 133.454C293.107 133.079 293.517 132.803 293.979 132.659C294.52 132.484 295.087 132.398 295.656 132.407C296.104 132.407 296.551 132.451 296.991 132.54C297.437 132.626 297.875 132.748 298.302 132.903V133.772C297.912 133.621 297.508 133.508 297.097 133.435C296.692 133.357 296.28 133.315 295.867 133.31C295.365 133.293 294.867 133.415 294.429 133.663C294.231 133.789 294.072 133.967 293.968 134.178C293.865 134.388 293.821 134.623 293.843 134.857C293.841 135.056 293.88 135.253 293.958 135.436C294.035 135.619 294.149 135.784 294.294 135.921C294.592 136.216 295.07 136.364 295.726 136.366C296.164 136.372 296.596 136.259 296.975 136.04C297.327 135.84 297.628 135.562 297.854 135.226C298.056 134.94 298.168 134.6 298.177 134.249H298.513C298.518 134.797 298.393 135.339 298.147 135.828C297.907 136.306 297.544 136.711 297.094 137.001C296.604 137.308 296.035 137.463 295.458 137.449V137.449ZM298.35 137.234L298.174 135.37V131.731C298.174 130.968 298.011 130.417 297.686 130.084C297.488 129.905 297.256 129.768 297.005 129.682C296.753 129.596 296.486 129.561 296.22 129.582C295.881 129.578 295.543 129.632 295.222 129.742C294.942 129.835 294.695 130.006 294.511 130.236C294.326 130.482 294.23 130.783 294.239 131.09H292.695C292.669 130.557 292.829 130.031 293.148 129.603C293.474 129.214 293.907 128.931 294.394 128.789C294.983 128.612 295.595 128.527 296.209 128.537C296.803 128.527 297.392 128.639 297.941 128.865C298.437 129.077 298.851 129.443 299.121 129.91C299.428 130.48 299.576 131.122 299.547 131.769V137.237L298.35 137.234Z" fill="white"/>
<path d="M129.822 158.759C129.149 158.768 128.489 158.58 127.922 158.216C127.331 157.829 126.856 157.289 126.547 156.653C126.21 155.911 126.035 155.105 126.035 154.289C126.035 153.474 126.21 152.668 126.547 151.926C126.848 151.304 127.312 150.775 127.89 150.395C128.438 150.038 129.078 149.849 129.732 149.853C130.313 149.834 130.885 149.993 131.373 150.307C131.862 150.621 132.243 151.075 132.468 151.611C132.745 152.261 132.878 152.964 132.859 153.671H132.316C132.335 153.176 132.223 152.684 131.993 152.246C131.79 151.881 131.491 151.578 131.127 151.372C130.778 151.175 130.383 151.073 129.982 151.074C129.53 151.071 129.088 151.206 128.715 151.462C128.319 151.736 128.003 152.111 127.8 152.547C127.56 153.084 127.443 153.669 127.458 154.257C127.443 154.855 127.559 155.449 127.8 155.996C127.998 156.446 128.314 156.833 128.715 157.117C129.087 157.375 129.529 157.511 129.982 157.508C130.373 157.505 130.756 157.4 131.095 157.204C131.463 156.994 131.768 156.69 131.979 156.322C132.22 155.892 132.339 155.406 132.324 154.914H132.867C132.887 155.632 132.749 156.346 132.462 157.006C132.23 157.532 131.854 157.983 131.377 158.306C130.915 158.608 130.374 158.766 129.822 158.759ZM132.555 158.544L132.324 156.555V146.433H133.711V158.542L132.555 158.544Z" fill="white"/>
<path d="M140.256 158.759C139.559 158.769 138.874 158.573 138.289 158.195C137.703 157.804 137.234 157.262 136.932 156.626C136.586 155.907 136.414 155.117 136.43 154.319C136.407 153.492 136.578 152.671 136.929 151.921C137.222 151.287 137.695 150.753 138.288 150.384C138.881 150.015 139.569 149.828 140.267 149.845C140.842 149.828 141.411 149.963 141.917 150.235C142.366 150.49 142.745 150.853 143.018 151.291C143.303 151.753 143.5 152.264 143.599 152.797C143.71 153.368 143.742 153.952 143.694 154.531H137.54V153.679H142.769L142.359 153.95C142.378 153.6 142.359 153.249 142.302 152.903C142.249 152.567 142.142 152.242 141.987 151.94C141.836 151.652 141.613 151.409 141.339 151.234C141.016 151.044 140.646 150.95 140.272 150.963C139.786 150.948 139.309 151.095 138.915 151.381C138.551 151.662 138.269 152.037 138.101 152.466C137.917 152.933 137.825 153.432 137.83 153.934V154.504C137.821 155.045 137.913 155.584 138.101 156.091C138.261 156.532 138.543 156.917 138.915 157.201C139.32 157.463 139.791 157.602 140.272 157.602C140.754 157.602 141.225 157.463 141.629 157.201C141.811 157.058 141.963 156.879 142.074 156.676C142.186 156.473 142.255 156.249 142.278 156.018H143.716C143.642 156.545 143.434 157.045 143.113 157.47C142.798 157.878 142.386 158.2 141.914 158.406C141.393 158.643 140.828 158.763 140.256 158.759V158.759Z" fill="white"/>
<path d="M154.689 158.791C153.76 158.824 152.844 158.575 152.061 158.075C151.277 157.575 150.665 156.849 150.303 155.994C149.866 154.971 149.655 153.865 149.687 152.754C149.652 151.625 149.872 150.504 150.33 149.473C150.711 148.643 151.328 147.946 152.105 147.467C152.889 147.006 153.785 146.77 154.694 146.786C156.038 146.786 157.087 147.112 157.842 147.763C158.6 148.421 159.111 149.316 159.294 150.303L157.055 150.713C156.901 150.153 156.597 149.647 156.176 149.247C155.774 148.874 155.242 148.673 154.694 148.688C154.193 148.684 153.704 148.841 153.299 149.136C152.848 149.485 152.505 149.956 152.311 150.493C152.044 151.217 151.919 151.985 151.942 152.756C151.927 153.503 152.036 154.246 152.265 154.957C152.439 155.509 152.763 156.001 153.202 156.379C153.625 156.715 154.154 156.891 154.694 156.876C155.01 156.895 155.327 156.852 155.626 156.75C155.926 156.647 156.202 156.486 156.439 156.276C156.643 156.078 156.803 155.839 156.909 155.576C157.015 155.312 157.065 155.029 157.055 154.745H159.294C159.322 155.511 159.134 156.269 158.751 156.933C158.373 157.541 157.821 158.023 157.166 158.314C156.386 158.654 155.54 158.817 154.689 158.791V158.791Z" fill="white"/>
<path d="M162.985 148.349C162.637 148.371 162.295 148.255 162.032 148.026C161.814 147.778 161.693 147.459 161.693 147.129C161.693 146.799 161.814 146.48 162.032 146.232C162.302 146.018 162.637 145.901 162.982 145.901C163.327 145.901 163.662 146.018 163.932 146.232C164.153 146.479 164.276 146.798 164.276 147.129C164.276 147.46 164.153 147.78 163.932 148.026C163.67 148.252 163.33 148.368 162.985 148.349V148.349ZM161.937 158.542V149.896H164.032V158.542H161.937Z" fill="white"/>
<path d="M167.572 158.542V149.931H169.401L169.673 151.635V158.542H167.572ZM173.485 158.542V153.5C173.524 152.976 173.359 152.458 173.024 152.053C172.869 151.891 172.681 151.764 172.473 151.679C172.264 151.595 172.041 151.556 171.816 151.565C171.417 151.558 171.027 151.678 170.701 151.909C170.351 152.176 170.088 152.539 169.944 152.954C169.746 153.51 169.654 154.098 169.673 154.688H168.981C168.954 153.74 169.095 152.794 169.399 151.896C169.617 151.236 170.028 150.656 170.579 150.232C171.103 149.864 171.732 149.673 172.373 149.69C173 149.667 173.62 149.832 174.153 150.164C174.641 150.49 175.02 150.955 175.238 151.5C175.491 152.138 175.614 152.821 175.599 153.508V158.542H173.485Z" fill="white"/>
<path d="M181.844 158.792C181.132 158.798 180.434 158.6 179.83 158.222C179.208 157.832 178.702 157.281 178.365 156.629C177.987 155.886 177.801 155.06 177.822 154.227C177.798 153.381 177.985 152.542 178.365 151.785C178.692 151.145 179.192 150.608 179.807 150.237C180.423 149.865 181.13 149.673 181.849 149.682C182.468 149.666 183.081 149.808 183.63 150.094C184.12 150.36 184.535 150.744 184.837 151.212C185.148 151.698 185.358 152.24 185.456 152.808C185.562 153.413 185.567 154.031 185.472 154.637H179.483V153.5H183.985L183.575 153.771C183.594 153.49 183.581 153.207 183.537 152.927C183.495 152.655 183.409 152.391 183.282 152.146C183.161 151.912 182.979 151.714 182.756 151.573C182.491 151.42 182.188 151.345 181.882 151.356C181.495 151.344 181.115 151.456 180.797 151.676C180.495 151.897 180.262 152.198 180.124 152.545C179.964 152.94 179.886 153.364 179.893 153.79V154.623C179.884 155.062 179.957 155.498 180.11 155.91C180.235 156.26 180.461 156.566 180.759 156.789C181.075 157.012 181.457 157.125 181.844 157.109C182.207 157.126 182.567 157.031 182.875 156.838C183.019 156.74 183.141 156.614 183.235 156.468C183.328 156.321 183.39 156.157 183.418 155.986H185.532C185.451 156.521 185.236 157.028 184.905 157.457C184.568 157.887 184.131 158.228 183.632 158.45C183.068 158.693 182.458 158.809 181.844 158.792V158.792Z" fill="white"/>
<path d="M188.039 158.542V149.931H189.868L190.099 151.405C190.343 150.875 190.735 150.427 191.228 150.113C191.711 149.82 192.269 149.67 192.834 149.682C193.462 149.659 194.082 149.824 194.614 150.157C195.102 150.483 195.48 150.948 195.7 151.492C195.95 152.131 196.072 152.813 196.058 153.5V158.542H193.963V153.5C194.002 152.976 193.836 152.458 193.502 152.053C193.346 151.891 193.158 151.764 192.95 151.68C192.742 151.595 192.518 151.556 192.294 151.565C191.895 151.558 191.504 151.679 191.179 151.91C190.829 152.176 190.566 152.539 190.422 152.954C190.224 153.51 190.132 154.098 190.15 154.688V158.542H188.039ZM199.74 158.542V153.5C199.779 152.976 199.614 152.458 199.279 152.053C199.124 151.891 198.936 151.764 198.728 151.68C198.52 151.595 198.296 151.556 198.071 151.565C197.78 151.556 197.491 151.621 197.232 151.755C196.973 151.888 196.752 152.085 196.59 152.327C196.229 152.838 196.047 153.606 196.047 154.637H195.176C195.162 153.861 195.247 153.087 195.431 152.333C195.561 151.779 195.806 151.259 196.15 150.805C196.435 150.435 196.808 150.142 197.236 149.953C197.676 149.768 198.15 149.675 198.628 149.682C199.253 149.659 199.87 149.825 200.4 150.157C200.888 150.482 201.266 150.948 201.485 151.492C201.741 152.129 201.866 152.813 201.852 153.5V158.542H199.74Z" fill="white"/>
<path d="M207.558 158.791C206.919 158.813 206.284 158.68 205.707 158.403C205.247 158.177 204.86 157.825 204.592 157.388C204.348 156.978 204.22 156.509 204.22 156.032C204.204 155.539 204.355 155.055 204.649 154.659C204.967 154.269 205.391 153.979 205.87 153.825C206.471 153.63 207.102 153.538 207.734 153.554C208.179 153.552 208.622 153.588 209.061 153.66C209.482 153.731 209.899 153.826 210.309 153.945V155.169C209.961 155.057 209.605 154.974 209.243 154.922C208.884 154.864 208.521 154.834 208.157 154.832C207.733 154.815 207.311 154.908 206.934 155.104C206.774 155.198 206.644 155.336 206.559 155.501C206.474 155.666 206.437 155.852 206.453 156.037C206.455 156.193 206.491 156.347 206.558 156.488C206.626 156.628 206.723 156.752 206.844 156.851C207.203 157.113 207.644 157.236 208.087 157.199C208.474 157.211 208.856 157.112 209.189 156.914C209.475 156.74 209.712 156.495 209.875 156.203C210.026 155.944 210.107 155.65 210.111 155.351H210.608C210.615 155.941 210.497 156.526 210.263 157.068C210.047 157.576 209.691 158.011 209.237 158.325C208.739 158.65 208.152 158.813 207.558 158.791V158.791ZM210.38 158.542L210.109 156.447V152.984C210.146 152.508 210.016 152.033 209.739 151.644C209.495 151.354 209.08 151.209 208.494 151.209C208.194 151.202 207.895 151.253 207.615 151.359C207.386 151.444 207.187 151.594 207.042 151.79C206.905 151.989 206.835 152.227 206.841 152.469H204.551C204.526 151.9 204.692 151.34 205.02 150.876C205.368 150.441 205.842 150.124 206.377 149.969C207.065 149.764 207.78 149.667 208.497 149.682C209.165 149.667 209.829 149.79 210.448 150.043C210.986 150.265 211.439 150.652 211.745 151.147C212.072 151.725 212.232 152.383 212.206 153.047V158.542H210.38Z" fill="white"/>
<path d="M219.733 147.019H222.024L227.261 155.231H227.103V147.019H229.196V158.542H227.063L221.489 149.823H221.825V158.542H219.73L219.733 147.019Z" fill="white"/>
<path d="M235.707 158.792C234.995 158.797 234.295 158.6 233.691 158.222C233.07 157.831 232.565 157.281 232.228 156.629C231.849 155.886 231.663 155.061 231.686 154.227C231.662 153.381 231.848 152.542 232.228 151.785C232.554 151.145 233.053 150.609 233.668 150.237C234.282 149.865 234.989 149.673 235.707 149.682C236.326 149.666 236.939 149.808 237.487 150.094C237.977 150.361 238.392 150.745 238.695 151.212C239.005 151.698 239.214 152.24 239.311 152.808C239.418 153.412 239.424 154.03 239.33 154.637H233.36V153.5H237.859L237.452 153.771C237.47 153.489 237.456 153.206 237.411 152.927C237.372 152.655 237.286 152.39 237.159 152.146C237.032 151.91 236.845 151.713 236.616 151.573C236.352 151.419 236.049 151.344 235.743 151.356C235.356 151.343 234.975 151.455 234.657 151.676C234.355 151.897 234.121 152.198 233.981 152.545C233.823 152.941 233.745 153.364 233.751 153.79V154.623C233.743 155.062 233.817 155.498 233.968 155.91C234.095 156.259 234.32 156.564 234.616 156.789C234.931 156.992 235.296 157.103 235.67 157.109C236.044 157.115 236.412 157.017 236.733 156.824C236.876 156.726 236.998 156.6 237.092 156.454C237.185 156.307 237.248 156.143 237.276 155.972H239.387C239.309 156.508 239.094 157.014 238.763 157.443C238.425 157.873 237.987 158.214 237.487 158.436C236.927 158.683 236.319 158.804 235.707 158.792V158.792Z" fill="white"/>
<path d="M245.233 162.998C244.37 163.019 243.511 162.881 242.698 162.591C242.08 162.374 241.526 162.007 241.086 161.522C240.732 161.127 240.534 160.617 240.527 160.086C240.515 159.814 240.569 159.542 240.685 159.295C240.802 159.048 240.976 158.834 241.195 158.67C241.683 158.323 242.273 158.147 242.872 158.17L244.397 158.738C243.928 158.708 243.461 158.823 243.059 159.066C242.909 159.165 242.786 159.301 242.704 159.462C242.621 159.622 242.581 159.8 242.587 159.98C242.587 160.387 242.822 160.715 243.292 160.963C243.902 161.235 244.566 161.36 245.233 161.329C245.764 161.34 246.292 161.248 246.788 161.058C247.178 160.914 247.526 160.676 247.803 160.366C248.028 160.117 248.156 159.795 248.163 159.459C248.166 159.362 248.148 159.265 248.112 159.175C248.075 159.085 248.019 159.003 247.949 158.936C247.765 158.785 247.529 158.713 247.292 158.732H244.394C243.854 158.742 243.316 158.65 242.809 158.461C242.377 158.303 241.988 158.045 241.675 157.706C241.405 157.419 241.253 157.04 241.252 156.645C241.244 156.308 241.351 155.978 241.556 155.709C241.768 155.437 242.049 155.227 242.37 155.101C242.741 154.953 243.137 154.88 243.537 154.887L244.079 155.579C243.909 155.579 243.741 155.614 243.585 155.682C243.433 155.746 243.301 155.849 243.2 155.98C243.096 156.121 243.043 156.292 243.048 156.466C243.046 156.58 243.073 156.692 243.126 156.793C243.178 156.894 243.255 156.981 243.349 157.044C243.669 157.221 244.033 157.299 244.397 157.267H247.292C248.049 157.225 248.803 157.4 249.463 157.771C249.721 157.937 249.929 158.169 250.067 158.442C250.205 158.716 250.267 159.021 250.248 159.326C250.241 159.968 250.026 160.59 249.634 161.098C249.179 161.689 248.583 162.156 247.9 162.455C247.063 162.833 246.151 163.019 245.233 162.998V162.998ZM245.339 155.88C244.695 155.887 244.058 155.755 243.471 155.492C242.932 155.256 242.464 154.881 242.115 154.407C241.772 153.934 241.594 153.362 241.607 152.778C241.594 152.188 241.772 151.609 242.115 151.128C242.46 150.65 242.929 150.275 243.471 150.043C244.06 149.786 244.696 149.657 245.339 149.666C245.971 149.659 246.597 149.788 247.176 150.043C247.716 150.278 248.185 150.652 248.532 151.128C248.88 151.608 249.061 152.187 249.048 152.778C249.06 153.363 248.879 153.935 248.532 154.407C248.181 154.879 247.714 155.253 247.176 155.492C246.599 155.754 245.972 155.886 245.339 155.88ZM245.358 154.423C245.583 154.44 245.81 154.406 246.022 154.325C246.233 154.244 246.425 154.117 246.581 153.953C246.848 153.617 246.994 153.201 246.994 152.772C246.994 152.342 246.848 151.926 246.581 151.59C246.238 151.297 245.801 151.136 245.349 151.136C244.898 151.136 244.461 151.297 244.117 151.59C243.841 151.922 243.69 152.34 243.69 152.772C243.69 153.203 243.841 153.621 244.117 153.953C244.279 154.115 244.473 154.24 244.687 154.32C244.901 154.4 245.13 154.433 245.358 154.417V154.423ZM248.394 151.066L247.433 150.523C247.423 150.046 247.548 149.576 247.794 149.166C248.026 148.785 248.357 148.474 248.752 148.266C249.161 148.049 249.617 147.939 250.079 147.945L249.973 149.951C249.564 149.924 249.155 150.018 248.798 150.222C248.664 150.315 248.555 150.442 248.484 150.59C248.413 150.738 248.382 150.902 248.394 151.066V151.066Z" fill="white"/>
<path d="M252.242 158.542V149.896H254.34V158.542H252.242ZM253.824 154.759C253.798 153.81 253.927 152.863 254.207 151.956C254.391 151.324 254.745 150.754 255.23 150.309C255.627 149.961 256.137 149.768 256.665 149.766C256.801 149.765 256.936 149.774 257.07 149.793C257.197 149.81 257.323 149.837 257.447 149.872L257.417 151.975C257.265 151.941 257.1 151.911 256.921 151.886C256.762 151.864 256.603 151.852 256.443 151.85C256.031 151.835 255.625 151.952 255.284 152.184C254.954 152.431 254.708 152.774 254.581 153.166C254.412 153.681 254.333 154.221 254.348 154.762L253.824 154.759Z" fill="white"/>
<path d="M262.608 158.792C261.865 158.803 261.131 158.628 260.473 158.284C259.83 157.94 259.304 157.413 258.961 156.77C258.562 155.99 258.37 155.121 258.402 154.246C258.369 153.36 258.561 152.479 258.961 151.687C259.302 151.044 259.829 150.518 260.473 150.178C261.134 149.842 261.867 149.671 262.608 149.682C263.341 149.672 264.066 149.842 264.717 150.178C265.358 150.52 265.882 151.046 266.223 151.687C266.622 152.479 266.814 153.36 266.782 154.246C266.813 155.121 266.621 155.99 266.223 156.77C265.881 157.412 265.357 157.939 264.717 158.284C264.068 158.628 263.343 158.802 262.608 158.792V158.792ZM262.538 156.963C262.928 156.969 263.312 156.863 263.642 156.656C263.981 156.434 264.247 156.117 264.408 155.744C264.604 155.27 264.697 154.759 264.679 154.246C264.679 153.342 264.498 152.655 264.136 152.187C263.965 151.961 263.742 151.78 263.486 151.66C263.23 151.539 262.948 151.481 262.665 151.492C262.263 151.479 261.867 151.59 261.53 151.809C261.193 152.029 260.931 152.346 260.779 152.718C260.582 153.203 260.49 153.724 260.508 154.246C260.508 155.151 260.689 155.828 261.051 156.279C261.227 156.502 261.453 156.681 261.712 156.8C261.97 156.919 262.254 156.975 262.538 156.963V156.963Z" fill="white"/>
<path d="M125.025 57.3356L132.624 15.2738C132.635 15.2019 132.673 15.1368 132.729 15.0912C132.786 15.0455 132.858 15.0226 132.93 15.0269H141.807C141.879 15.0226 141.951 15.0455 142.008 15.0912C142.064 15.1368 142.102 15.2019 142.113 15.2738L149.4 57.3356C149.44 57.5419 149.359 57.6423 149.155 57.6423H142.36C142.195 57.6423 142.089 57.5419 142.054 57.3356L141.381 52.8662H133.047L132.374 57.3356C132.333 57.5419 132.23 57.6423 132.067 57.6423H125.264C125.107 57.6423 125.025 57.5392 125.025 57.3356ZM134.271 46.3154H140.149L137.639 29.1108L137.272 26.8449L137.028 29.1108L134.271 46.3154Z" fill="white"/>
<path d="M154.777 57.6424C154.736 57.6478 154.694 57.6436 154.654 57.6301C154.615 57.6165 154.579 57.5941 154.549 57.5644C154.52 57.5347 154.498 57.4986 154.485 57.459C154.471 57.4193 154.468 57.3772 154.473 57.3358L154.595 15.274C154.59 15.2406 154.593 15.2066 154.604 15.1746C154.614 15.1426 154.632 15.1134 154.656 15.0894C154.68 15.0655 154.708 15.0474 154.74 15.0365C154.772 15.0257 154.806 15.0224 154.84 15.027L166.289 14.9673C168.45 14.9046 170.585 15.458 172.443 16.563C174.276 17.6405 175.804 19.1675 176.883 20.9998C177.984 22.8595 178.555 24.985 178.535 27.1463V44.7172C178.563 46.9887 177.97 49.2246 176.82 51.1839C175.693 53.126 174.077 54.7388 172.133 55.8615C170.188 56.9843 167.983 57.5777 165.738 57.5827L154.777 57.6424ZM161.941 50.112H165.74C166.454 50.1257 167.162 49.9911 167.821 49.7169C168.479 49.4427 169.074 49.0349 169.567 48.5191C170.07 48.0242 170.468 47.4324 170.737 46.7794C171.006 46.1265 171.139 45.4259 171.13 44.72V27.0811C171.134 26.4464 171.009 25.8175 170.761 25.2332C170.513 24.6488 170.148 24.1215 169.689 23.6836C169.253 23.2257 168.724 22.8659 168.139 22.6282C167.553 22.3905 166.923 22.2803 166.291 22.3051L162.006 22.3675L161.941 50.112Z" fill="white"/>
<path d="M184.846 57.6427C184.683 57.6427 184.602 57.5423 184.602 57.3361L184.664 15.2743C184.659 15.2409 184.662 15.2069 184.672 15.1749C184.683 15.1428 184.701 15.1137 184.724 15.0897C184.748 15.0658 184.777 15.0477 184.809 15.0368C184.841 15.026 184.875 15.0227 184.908 15.0273H204.563C204.726 15.0273 204.808 15.1304 204.808 15.334V22.1914C204.812 22.2247 204.81 22.2587 204.799 22.2908C204.789 22.3228 204.771 22.3519 204.747 22.3759C204.723 22.3999 204.694 22.418 204.663 22.4288C204.631 22.4396 204.597 22.4429 204.563 22.4383H192.023V31.9877H204.577C204.61 31.9831 204.644 31.9864 204.676 31.9972C204.708 32.0081 204.737 32.0262 204.761 32.0501C204.784 32.0741 204.802 32.1033 204.813 32.1353C204.823 32.1673 204.826 32.2013 204.821 32.2347L204.881 39.1518C204.885 39.1849 204.882 39.2186 204.871 39.2503C204.861 39.282 204.843 39.3108 204.819 39.3344C204.796 39.358 204.767 39.3759 204.735 39.3866C204.703 39.3973 204.67 39.4005 204.637 39.396H192.023V50.1123H204.637C204.799 50.1123 204.881 50.2154 204.881 50.4189V57.3985C204.885 57.4316 204.882 57.4653 204.871 57.497C204.861 57.5287 204.843 57.5574 204.819 57.5811C204.796 57.6047 204.767 57.6226 204.735 57.6333C204.703 57.644 204.67 57.6472 204.637 57.6427H184.846ZM190.908 11.9066C190.705 11.9066 190.624 11.8252 190.664 11.6624L195.548 1.07907C195.559 1.00713 195.597 0.941946 195.654 0.89663C195.711 0.851314 195.783 0.829236 195.855 0.83484H202.835C203.079 0.83484 203.16 0.91625 203.079 1.07907L197.38 11.6624C197.35 11.7347 197.299 11.7966 197.234 11.8401C197.169 11.8835 197.092 11.9067 197.014 11.9066H190.908Z" fill="white"/>
<path d="M211.783 57.6427C211.62 57.6427 211.539 57.5423 211.539 57.3361L211.599 15.334C211.593 15.2923 211.597 15.2499 211.61 15.21C211.623 15.1701 211.646 15.1339 211.676 15.1041C211.705 15.0744 211.742 15.052 211.781 15.0387C211.821 15.0253 211.864 15.0214 211.905 15.0273H218.703C218.745 15.0214 218.787 15.0253 218.827 15.0387C218.867 15.052 218.903 15.0744 218.933 15.1041C218.963 15.1339 218.985 15.1701 218.998 15.21C219.012 15.2499 219.016 15.2923 219.01 15.334L218.947 50.1123H231.56C231.602 50.1064 231.645 50.1103 231.684 50.1236C231.724 50.137 231.761 50.1594 231.79 50.1891C231.82 50.2189 231.842 50.2551 231.856 50.295C231.869 50.3349 231.873 50.3773 231.867 50.419V57.3361C231.873 57.3777 231.869 57.4202 231.856 57.4601C231.842 57.4999 231.82 57.5362 231.79 57.5659C231.761 57.5957 231.724 57.6181 231.684 57.6314C231.645 57.6447 231.602 57.6486 231.56 57.6427H211.783Z" fill="white"/>
<path d="M237.378 57.6424C237.336 57.6483 237.294 57.6444 237.254 57.6311C237.214 57.6178 237.178 57.5954 237.148 57.5656C237.118 57.5359 237.096 57.4996 237.082 57.4598C237.069 57.4199 237.065 57.3774 237.071 57.3358L237.133 15.274C237.128 15.2406 237.131 15.2066 237.142 15.1746C237.152 15.1426 237.17 15.1134 237.194 15.0895C237.218 15.0655 237.246 15.0474 237.278 15.0366C237.31 15.0257 237.344 15.0225 237.378 15.027H244.235C244.268 15.0225 244.302 15.0257 244.334 15.0366C244.366 15.0474 244.395 15.0655 244.419 15.0895C244.443 15.1134 244.46 15.1426 244.471 15.1746C244.481 15.2066 244.484 15.2406 244.479 15.274L244.542 57.3358C244.542 57.542 244.46 57.6424 244.298 57.6424H237.378Z" fill="white"/>
<path d="M249.068 57.3356L256.667 15.2738C256.678 15.2019 256.716 15.1368 256.772 15.0912C256.829 15.0455 256.901 15.0226 256.973 15.0269H265.852C265.925 15.0227 265.996 15.0457 266.052 15.0914C266.108 15.1371 266.146 15.2022 266.156 15.2738L273.443 57.3356C273.483 57.5419 273.402 57.6423 273.198 57.6423H266.414C266.249 57.6423 266.143 57.5419 266.107 57.3356L265.434 52.8662H257.106L256.433 57.3356C256.393 57.5419 256.289 57.6423 256.127 57.6423H249.342C249.15 57.6423 249.068 57.5392 249.068 57.3356ZM258.314 46.3154H264.202L261.692 29.1108L261.326 26.8449L261.082 29.1108L258.314 46.3154Z" fill="white"/>
<path d="M137.516 112.17C135.388 112.191 133.297 111.608 131.486 110.488C129.689 109.383 128.197 107.847 127.145 106.019C126.057 104.151 125.495 102.025 125.516 99.8639V97.0471C125.51 97.0055 125.514 96.963 125.528 96.9232C125.541 96.8833 125.563 96.847 125.593 96.8173C125.623 96.7876 125.659 96.7651 125.699 96.7518C125.739 96.7385 125.781 96.7346 125.823 96.7405H132.68C132.841 96.7405 132.925 96.8436 132.925 97.0471V99.8721C132.903 101.159 133.391 102.402 134.281 103.332C134.691 103.789 135.192 104.153 135.753 104.402C136.314 104.651 136.92 104.778 137.534 104.775C138.147 104.772 138.753 104.639 139.311 104.385C139.869 104.132 140.367 103.762 140.773 103.302C141.653 102.378 142.14 101.148 142.129 99.8721C142.129 98.3633 141.15 97.0571 139.191 95.9535L136.119 94.2303C134.733 93.4578 133.427 92.7234 132.2 92.0268C129.957 90.7225 128.293 89.0798 127.21 87.0988C126.106 85.0385 125.545 82.7306 125.581 80.3934C125.548 78.2284 126.122 76.0975 127.237 74.2415C128.307 72.4553 129.813 70.9698 131.614 69.924C133.419 68.8756 135.47 68.3258 137.557 68.3311C139.644 68.3363 141.692 68.8964 143.492 69.9539C145.281 71.0127 146.775 72.5061 147.834 74.2958C148.924 76.1392 149.487 78.2465 149.462 80.3879V85.4082C149.467 85.4416 149.464 85.4756 149.453 85.5076C149.443 85.5396 149.425 85.5688 149.401 85.5927C149.378 85.6167 149.349 85.6348 149.317 85.6456C149.285 85.6565 149.251 85.6597 149.218 85.6552H142.36C142.326 85.6602 142.292 85.6573 142.26 85.6467C142.228 85.6361 142.198 85.618 142.174 85.594C142.15 85.57 142.132 85.5406 142.122 85.5084C142.111 85.4761 142.108 85.4418 142.113 85.4082L142.053 80.3879C142.077 79.7445 141.969 79.103 141.735 78.5029C141.502 77.9028 141.149 77.3567 140.697 76.8982C140.287 76.4659 139.794 76.1224 139.246 75.8889C138.698 75.6555 138.109 75.5372 137.513 75.5413C136.899 75.5342 136.291 75.6589 135.729 75.907C135.167 76.1551 134.665 76.5209 134.257 76.9796C133.375 77.8891 132.887 79.11 132.9 80.3771C132.9 81.7249 133.186 82.8474 133.758 83.7447C134.329 84.6421 135.37 85.4996 136.878 86.3173C137.085 86.4394 137.481 86.6538 138.072 86.9604C138.664 87.2671 139.307 87.6144 140.002 87.9998C140.697 88.3851 141.318 88.727 141.869 89.012C142.42 89.2969 142.756 89.4814 142.881 89.5547C144.784 90.5767 146.435 92.0087 147.717 93.7473C148.9 95.4008 149.492 97.4316 149.492 99.8395C149.524 101.988 148.99 104.107 147.942 105.983C146.893 107.859 145.369 109.425 143.522 110.523C141.708 111.611 139.631 112.181 137.516 112.17V112.17Z" fill="white"/>
<path d="M151.721 111.254L159.319 69.1917C159.33 69.12 159.368 69.0552 159.425 69.01C159.482 68.9648 159.553 68.9425 159.626 68.9475H168.505C168.577 68.9425 168.649 68.9648 168.705 69.01C168.762 69.0552 168.8 69.12 168.811 69.1917L176.098 111.254C176.136 111.457 176.054 111.56 175.851 111.56H169.066C168.904 111.56 168.795 111.457 168.76 111.254L168.087 106.784H159.74L159.067 111.254C159.026 111.457 158.923 111.56 158.76 111.56H151.976C151.802 111.56 151.721 111.457 151.721 111.254ZM160.966 100.233H166.844L164.339 83.026L163.97 80.7628L163.726 83.026L160.966 100.233Z" fill="white"/>
<path d="M181.418 111.56C181.255 111.56 181.174 111.457 181.174 111.253L181.296 69.1917C181.291 69.1585 181.295 69.1248 181.305 69.0931C181.316 69.0615 181.334 69.0327 181.358 69.009C181.381 68.9854 181.41 68.9676 181.442 68.9569C181.473 68.9462 181.507 68.9429 181.54 68.9474H189.011C189.097 68.9514 189.18 68.9755 189.255 69.018C189.329 69.0604 189.393 69.12 189.44 69.1917L195.008 77.2729L200.579 69.1889C200.626 69.1172 200.69 69.0577 200.764 69.0153C200.839 68.9728 200.922 68.9486 201.008 68.9447H208.541C208.574 68.9402 208.608 68.9435 208.64 68.9541C208.671 68.9648 208.7 68.9827 208.724 69.0063C208.747 69.03 208.765 69.0587 208.776 69.0904C208.787 69.1221 208.79 69.1558 208.785 69.1889L208.907 111.251C208.907 111.454 208.826 111.557 208.663 111.557H201.743C201.581 111.557 201.499 111.454 201.499 111.251L201.437 80.0246L195.008 89.3325L188.642 80.0273L188.579 111.253C188.579 111.457 188.498 111.56 188.335 111.56H181.418Z" fill="white"/>
<path d="M215.579 111.56C215.537 111.566 215.495 111.562 215.455 111.549C215.415 111.536 215.379 111.513 215.349 111.484C215.319 111.454 215.297 111.418 215.284 111.378C215.27 111.338 215.266 111.295 215.272 111.254L215.394 69.1919C215.39 69.1585 215.393 69.1245 215.404 69.0926C215.415 69.0607 215.433 69.0317 215.457 69.0081C215.481 68.9844 215.51 68.9666 215.542 68.9561C215.574 68.9456 215.608 68.9427 215.641 68.9477H227.397C231.153 68.9477 234.122 70.091 236.306 72.3777C238.489 74.6644 239.581 77.7689 239.581 81.691C239.581 84.5856 239.01 87.0958 237.866 89.2215C236.837 91.2217 235.295 92.9122 233.397 94.1196C231.601 95.2519 229.519 95.847 227.397 95.8347H222.743V111.265C222.749 111.306 222.745 111.349 222.732 111.389C222.718 111.428 222.696 111.465 222.666 111.494C222.636 111.524 222.6 111.547 222.56 111.56C222.52 111.573 222.478 111.577 222.436 111.571L215.579 111.56ZM222.743 88.4155H227.397C228.701 88.4155 229.834 87.7932 230.794 86.5485C231.755 85.3038 232.234 83.6811 232.233 81.6802C232.233 80.0864 231.804 78.7802 230.946 77.7616C230.089 76.7431 228.906 76.233 227.397 76.2311L222.743 76.2936V88.4155Z" fill="white"/>
<path d="M239.824 111.254L247.423 69.1917C247.434 69.12 247.472 69.0552 247.528 69.01C247.585 68.9648 247.657 68.9425 247.729 68.9475H256.603C256.675 68.9425 256.747 68.9648 256.804 69.01C256.86 69.0552 256.898 69.12 256.909 69.1917L264.196 111.254C264.236 111.457 264.155 111.56 263.951 111.56H257.167C257.002 111.56 256.896 111.457 256.861 111.254L256.188 106.784H247.859L247.186 111.254C247.146 111.457 247.043 111.56 246.88 111.56H240.096C239.906 111.56 239.824 111.457 239.824 111.254ZM249.07 100.233H254.947L252.437 83.026L252.071 80.7628L251.827 83.026L249.07 100.233Z" fill="white"/>
<path d="M269.584 111.56C269.542 111.566 269.5 111.562 269.461 111.548C269.421 111.534 269.385 111.512 269.356 111.482C269.327 111.453 269.304 111.417 269.291 111.377C269.278 111.337 269.274 111.295 269.28 111.254L269.34 69.1919C269.335 69.1588 269.338 69.125 269.349 69.0934C269.36 69.0617 269.378 69.0329 269.401 69.0093C269.425 68.9856 269.454 68.9678 269.485 68.9571C269.517 68.9464 269.551 68.9432 269.584 68.9477H276.441C276.475 68.9427 276.509 68.9456 276.541 68.9561C276.573 68.9666 276.602 68.9844 276.626 69.0081C276.65 69.0317 276.668 69.0607 276.679 69.0926C276.69 69.1245 276.693 69.1585 276.688 69.1919L276.748 111.254C276.748 111.457 276.667 111.56 276.504 111.56H269.584Z" fill="white"/>
<path d="M294.686 112.17C292.557 112.191 290.466 111.608 288.656 110.488C286.855 109.378 285.354 107.843 284.284 106.019C283.181 104.157 282.61 102.028 282.631 99.864L282.694 80.4559C282.67 78.3051 283.233 76.1884 284.322 74.3338C285.383 72.516 286.889 70.9984 288.699 69.9241C290.508 68.8301 292.585 68.2581 294.699 68.2715C296.815 68.2471 298.894 68.8199 300.699 69.9241C302.482 71.0129 303.966 72.5283 305.016 74.3338C306.105 76.189 306.668 78.3052 306.645 80.4559L306.704 99.864C306.726 102.025 306.163 104.151 305.076 106.019C304.024 107.847 302.532 109.383 300.734 110.488C298.918 111.611 296.821 112.195 294.686 112.17V112.17ZM294.686 104.762C295.298 104.759 295.902 104.623 296.457 104.365C297.012 104.106 297.505 103.731 297.901 103.264C298.784 102.353 299.278 101.133 299.277 99.864L299.217 80.4559C299.248 79.1892 298.787 77.9599 297.931 77.0258C297.524 76.5681 297.021 76.205 296.459 75.9617C295.896 75.7184 295.287 75.6009 294.675 75.6174C294.066 75.6084 293.462 75.7263 292.901 75.9636C292.341 76.201 291.836 76.5526 291.418 76.9959C290.971 77.4518 290.621 77.9932 290.387 78.5877C290.154 79.1821 290.043 79.8176 290.061 80.4559V99.8721C290.04 101.159 290.528 102.403 291.418 103.332C291.829 103.79 292.333 104.155 292.897 104.4C293.46 104.646 294.071 104.768 294.686 104.757V104.762Z" fill="white"/>
</svg>
