<svg width="40" height="54" viewBox="0 0 40 54" fill="none" xmlns="http://www.w3.org/2000/svg">
<path d="M38.2824 11.8627C38.3956 12.4802 38.7623 12.9828 39.0974 13.4763C39.3373 13.8259 39.2993 14.1211 39.1445 14.4199C38.8212 15.043 38.8665 15.6959 38.8728 16.3614C38.8846 17.3096 38.6745 18.2233 38.3938 19.1324C38.0868 20.1458 37.2799 20.5985 36.455 21.0767C35.1609 21.8265 33.799 22.4794 32.7594 23.605C32.9822 23.1757 33.2475 22.7619 33.415 22.3118C33.5898 21.8428 34.1965 21.6318 34.1395 21.0441C34.1847 21.025 34.2545 21.0187 34.2726 20.9843C34.7797 20.0326 35.371 19.1053 34.9617 17.9353C34.8585 17.6392 34.8811 17.3014 34.8177 16.9872C34.7507 16.6567 34.6701 16.2935 34.2988 16.1821C33.7446 16.0155 33.3616 15.656 33.0881 15.186C32.3637 13.9318 31.5777 12.7211 30.6477 11.61C30.5055 11.4407 30.405 11.1898 30.1197 11.1898L30.1306 11.1735C30.1107 11.064 30.1659 10.9091 29.9703 10.9019C29.83 10.692 29.753 10.4462 29.7484 10.1937C29.8662 9.098 29.9739 7.99775 29.3572 6.99711C28.8809 6.22558 28.382 5.46673 27.8767 4.71331C27.3904 3.98886 27.0291 3.17386 26.3282 2.60518C26.215 2.51462 26.0837 2.3163 26.2267 2.15783C26.3417 2.03015 26.4984 2.1361 26.6469 2.18228C27.0934 2.32355 27.5325 2.48474 28.0125 2.49923C28.6402 2.5252 29.244 2.74684 29.7394 3.13311C30.0364 3.35588 30.2402 3.70633 30.5417 3.92276C31.4952 4.61098 32.3528 5.40605 33.252 6.16219C33.8488 6.66658 34.4292 7.19271 35.0486 7.67265C35.6336 8.12543 36.2476 8.58998 36.6053 9.29088C37.0083 10.0787 37.4628 10.8403 37.8577 11.6326C37.9645 11.8454 38.0804 11.8898 38.2824 11.8627Z" fill="#525252"/>
<path d="M34.1339 21.0416C34.1937 21.6321 33.5906 21.8431 33.4095 22.3094C33.2419 22.7622 32.9766 23.1733 32.7538 23.6026C32.215 24.0363 32.0774 24.739 31.6536 25.2552C31.2472 25.7453 30.7191 26.1201 30.1223 26.3419C29.6487 26.523 29.2167 26.7946 28.764 27.012C28.4823 27.1478 28.3782 26.8843 28.198 26.9812C28.2406 26.7575 28.3791 26.5818 28.495 26.3971C29.0818 25.4671 29.7003 24.5561 30.2482 23.6035C30.6801 22.8537 31.1537 22.093 30.8766 21.1394C30.7399 20.6686 30.3469 20.4204 30.0616 20.0763C29.5763 19.4832 29.3209 18.7578 28.9161 18.1167C27.9435 16.5773 26.9103 15.0695 26.1533 13.4006C25.7612 12.5376 25.7811 11.585 25.5121 10.6966C25.5311 10.4593 25.2903 10.2882 25.3491 10.041C25.4352 9.89247 25.5212 9.73943 25.4487 9.56285C25.0258 8.53142 24.5867 7.51177 23.3497 7.20841C23.1405 7.15679 22.9557 7.08888 22.9557 6.82627C22.9505 6.59142 22.8681 6.36484 22.7212 6.18151C22.4495 5.81929 22.2549 5.41994 22.2395 4.94543C22.2349 4.7933 22.2503 4.60132 22.0801 4.49266C22.1833 4.41297 22.1978 4.30068 22.2223 4.18024C22.359 3.51466 22.4178 3.48568 23.0671 3.75554C23.1745 3.80566 23.2918 3.83073 23.4102 3.82885C23.5287 3.82696 23.6451 3.79818 23.7508 3.74467C24.1502 3.54816 24.5423 3.60702 24.9181 3.8153C25.6489 4.2219 26.1705 4.84854 26.6341 5.51955C26.8677 5.85823 27.0516 6.18514 27.5234 6.25577C27.7805 6.2938 27.9861 6.52019 28.1473 6.7502C28.8832 7.79053 29.4224 8.95679 29.7383 10.1913C29.7427 10.4435 29.8198 10.689 29.9602 10.8985L30.1205 11.1702L30.1096 11.1865C30.5859 13.1244 30.9608 15.0804 31.2914 17.05C31.4725 18.123 32.072 18.891 32.8996 19.5348C33.4267 19.9378 33.9265 20.3743 34.1339 21.0416Z" fill="#525252"/>
<path d="M29.7458 10.1904C29.4299 8.95586 28.8906 7.78961 28.1547 6.74928C27.9935 6.51927 27.788 6.2965 27.5308 6.25485C27.059 6.18421 26.8752 5.85731 26.6416 5.51863C26.1779 4.84762 25.6563 4.22097 24.9255 3.81438C24.5497 3.6061 24.1576 3.54271 23.7583 3.74375C23.6526 3.79726 23.5361 3.82604 23.4177 3.82792C23.2992 3.8298 23.1819 3.80474 23.0746 3.75461C22.4253 3.48295 22.3664 3.51373 22.2297 4.17932C22.2052 4.29976 22.1908 4.41204 22.0875 4.49173C21.8313 4.54697 21.5777 4.53158 21.3124 4.63753C20.5399 4.94632 19.954 5.51139 19.2903 5.96597C18.8936 6.23764 18.6292 6.66325 18.1801 6.86247C18.0768 5.89534 17.9156 4.92821 18.2145 3.9647C18.3539 3.51192 18.5894 3.16419 19.0222 2.93146C19.4551 2.69874 19.8372 2.38813 20.2592 2.14363C21.2725 1.55231 22.2732 0.926569 23.4848 0.816997C23.5853 0.807941 23.6967 0.754513 23.7845 0.78168C24.9618 1.1439 26.0557 0.470169 27.213 0.492808C27.7699 0.502769 28.2951 0.432136 28.6963 0.912079C28.7274 0.952291 28.7686 0.983536 28.8158 1.00263C30.3127 1.45541 31.3251 2.63263 32.5358 3.50377C33.7837 4.40299 35.2063 5.03688 36.3545 6.0837C36.6179 6.319 36.8249 6.61055 36.9603 6.93673C37.4783 8.17824 37.6205 9.51756 37.9764 10.8007C38.0742 11.1539 38.1801 11.5052 38.2824 11.8566C38.0805 11.8838 37.9646 11.8394 37.855 11.6203C37.4602 10.8279 37.0056 10.0663 36.6026 9.27849C36.245 8.57759 35.631 8.11213 35.046 7.66026C34.4239 7.18032 33.8461 6.65419 33.2494 6.1498C32.3538 5.39366 31.4926 4.59859 30.5391 3.91037C30.2375 3.69394 30.0338 3.34349 29.7367 3.12072C29.2413 2.73446 28.6375 2.51281 28.0098 2.48684C27.5299 2.47235 27.0907 2.31116 26.6443 2.16989C26.4976 2.12371 26.3391 2.01776 26.2241 2.14544C26.081 2.30392 26.2123 2.50042 26.3255 2.59279C27.0264 3.16329 27.3877 3.97828 27.874 4.70092C28.3793 5.45434 28.8783 6.21319 29.3546 6.98472C29.9713 7.99441 29.8635 9.09828 29.7458 10.1904Z" fill="#525252"/>
<path d="M18.1791 6.86604C18.6319 6.66682 18.8927 6.2403 19.2894 5.96954C19.9549 5.51676 20.539 4.94989 21.3115 4.64109C21.5768 4.53514 21.8303 4.55054 22.0866 4.4953C22.2569 4.60306 22.2415 4.79504 22.246 4.94808C22.2614 5.42259 22.4534 5.81831 22.7277 6.18416C22.8744 6.36724 22.9568 6.59347 22.9623 6.82801C22.831 6.84974 22.6825 6.92581 22.572 6.88687C21.757 6.60524 21.2318 7.11144 20.6703 7.53977C20.4249 7.72722 20.4349 7.86305 20.7111 8.02968C21.1983 8.32489 21.6601 8.65722 22.16 8.93523C23.1502 9.49233 24.2312 9.86973 25.3529 10.05C25.2941 10.2972 25.5341 10.4683 25.5159 10.7056C25.4536 10.9446 25.3162 11.1573 25.1238 11.3123C24.8006 11.565 24.5452 11.9136 24.2934 12.2459C23.9521 12.6987 23.5264 12.9269 22.955 12.9052C22.6019 12.8925 22.2478 12.9206 21.8946 12.9305C21.4545 12.5683 20.9954 12.2269 20.578 11.8439C20.1605 11.4608 19.6588 11.4862 19.1626 11.4391C19.4134 11.258 19.5538 11.0289 19.3256 10.7635C18.8936 10.261 18.9117 9.7294 19.1164 9.14894C19.1671 9.00586 19.2477 8.83743 19.1571 8.6364C18.9507 8.75683 18.8393 8.94247 18.7261 9.12358C18.574 9.36899 18.6174 9.72759 18.3874 9.90689C17.7001 10.4421 16.9938 10.9573 16.1797 11.2942C16.618 10.6467 16.7737 9.87519 17.1043 9.18154C17.3931 8.57663 17.7083 7.9844 17.9989 7.38039C18.0813 7.21287 18.2453 7.07794 18.1791 6.86604Z" fill="#525252"/>
<path d="M16.1803 11.2862C16.9953 10.9493 17.7007 10.434 18.388 9.89885C18.618 9.71774 18.5745 9.36095 18.7267 9.11555C18.8399 8.93443 18.9513 8.7488 19.1577 8.62836C19.2483 8.82939 19.1677 8.99782 19.117 9.1409C18.9123 9.72136 18.8942 10.2529 19.3262 10.7555C19.5544 11.0208 19.4167 11.2536 19.1632 11.431C17.5685 11.5397 16.1993 12.1455 15.0728 13.2883C14.9206 13.4423 14.7495 13.5772 14.5874 13.7212C14.4199 13.2349 14.7911 12.2651 15.3444 11.9282C15.6541 11.7407 15.9086 11.5017 16.1803 11.2862Z" fill="#525252"/>
<path d="M24.3312 18.4962C25.2603 18.7225 26.2328 19.9133 26.155 20.8044C26.0825 21.6257 26.1441 22.457 25.9938 23.2757C25.5093 22.6934 24.9171 22.86 24.3276 23.0448C24.1202 23.109 23.7897 23.5039 23.5615 23.5165L23.4609 23.2159C23.7091 22.4915 24.0658 21.7996 24.1618 21.0136C24.2669 20.1361 24.6608 19.3465 24.3312 18.4962Z" fill="#525252"/>
<path d="M34.1369 21.0415C33.9296 20.3741 33.4297 19.9376 32.9072 19.5319C32.0795 18.888 31.48 18.1201 31.2989 17.0471C30.9684 15.0802 30.5935 13.1215 30.1172 11.1836C30.4024 11.1836 30.503 11.4344 30.6451 11.6038C31.5751 12.7149 32.3611 13.9256 33.0856 15.1798C33.3573 15.6534 33.7421 16.0129 34.2963 16.1759C34.6676 16.2873 34.7491 16.6504 34.8152 16.9809C34.8786 17.2943 34.8559 17.6329 34.9592 17.9291C35.3685 19.099 34.7781 20.0263 34.2701 20.9781C34.2519 21.0161 34.1822 21.0224 34.1369 21.0415Z" fill="#525252"/>
<path d="M30.1251 11.1675L29.9648 10.8958C30.1623 10.9031 30.107 11.0579 30.1251 11.1675Z" fill="#525252"/>
<path d="M25.3564 10.0455C24.2346 9.86525 23.1536 9.48785 22.1634 8.93075C21.6608 8.65908 21.199 8.32403 20.7145 8.0252C20.4383 7.85858 20.4283 7.72274 20.6737 7.53529C21.2352 7.10697 21.7604 6.60076 22.5754 6.88239C22.6859 6.92133 22.8344 6.84526 22.9657 6.82353C22.9657 7.08704 23.1468 7.15496 23.3596 7.20658C24.5966 7.51265 25.0358 8.53231 25.4587 9.56102C25.5284 9.74394 25.4424 9.89698 25.3564 10.0455Z" fill="#525252"/>
<path d="M30.8799 21.1418C30.7431 20.6709 30.3501 20.4228 30.0649 20.0787C29.5795 19.4856 29.3241 18.7602 28.9194 18.1191C27.9468 16.5796 26.9136 15.0719 26.1565 13.403C25.7644 12.54 25.7843 11.5873 25.5154 10.699C25.4531 10.938 25.3156 11.1507 25.1233 11.3057C24.8 11.5583 24.5446 11.907 24.2929 12.2393C23.9515 12.6921 23.5259 12.9203 22.9545 12.8986C22.6013 12.8859 22.2472 12.914 21.8941 12.9239C21.9765 12.981 22.1078 13.0217 22.1322 13.0969C22.3496 13.777 22.7824 14.3647 22.921 15.0828C23.1573 16.3107 23.7088 17.4173 24.3246 18.494C25.2537 18.7204 26.2262 19.9112 26.1484 20.8022C26.0759 21.6236 26.1375 22.4549 25.9872 23.2735C26.1837 23.9916 25.9482 24.592 25.5951 25.2268C25.2329 25.8797 24.5347 26.0372 24.0556 26.5036C23.7936 26.7623 23.4625 26.9399 23.1021 27.0152C22.4682 27.142 22.1386 27.5975 21.8877 28.1807C21.7247 28.5601 21.7066 28.9685 21.5382 29.3353C21.3698 29.702 21.4848 29.8179 21.8742 29.827C22.559 29.841 23.2429 29.767 23.9089 29.6069C23.9488 29.5164 24.0502 29.4584 24.0248 29.3425L23.0387 27.6537C22.9735 27.5631 22.8304 27.4725 22.8893 27.3666C22.8304 27.4734 22.9735 27.5631 23.0387 27.6537L24.0248 29.3425L24.1806 29.2864C24.264 29.3503 24.363 29.3907 24.4673 29.4035C24.5716 29.4162 24.6774 29.4008 24.7737 29.3588C25.394 29.1442 26.027 28.9685 26.65 28.7648C27.2215 28.5773 27.6516 28.2386 27.8418 27.6355C27.9083 27.3934 28.0305 27.1701 28.1985 26.9835C28.2411 26.7599 28.3797 26.5842 28.4956 26.3995C29.0824 25.4695 29.7009 24.5585 30.2487 23.6058C30.6834 22.8624 31.1579 22.0972 30.8799 21.1418ZM23.4299 27.5006C23.4109 27.4653 23.391 27.43 23.3701 27.3974C23.391 27.43 23.4109 27.4653 23.4299 27.5006C23.4761 27.5694 23.5205 27.6364 23.5721 27.7035C23.5241 27.6383 23.4761 27.5712 23.4299 27.5024V27.5006ZM23.6454 27.804C23.6943 27.871 23.7432 27.938 23.7903 28.0059C23.7432 27.9398 23.6952 27.8728 23.6454 27.8058V27.804ZM23.9252 28.2115C23.989 28.3153 24.0445 28.424 24.091 28.5366C24.0444 28.4246 23.989 28.3165 23.9252 28.2133V28.2115Z" fill="#525252"/>
<path d="M7.11328 23.3093C7.11328 23.4098 7.51535 24.1134 7.51535 24.1134C7.51535 24.1134 8.57303 24.2139 8.54677 24.1134C8.52051 24.0129 8.094 23.3093 8.094 23.3093H7.11328Z" fill="#525252"/>
<path d="M27.6641 47.9691C27.7716 47.967 27.8787 47.9543 27.9837 47.9311C27.8759 47.908 27.7634 47.9214 27.6641 47.9691Z" fill="#525252"/>
<path d="M8.54688 27.3786L8.92177 28.007L10.128 27.9319L9.82642 27.2283L8.54688 27.3786Z" fill="#525252"/>
<path d="M6.73633 27.4792L7.11213 28.1077L8.31742 28.0325L8.01588 27.3289L6.73633 27.4792Z" fill="#525252"/>
<path d="M29.6254 45.7206L29.5303 45.218L28.8203 45.3937V45.9886L29.6254 45.7206Z" fill="#525252"/>
<path d="M4.92763 24.1134C4.90137 24.0129 4.47486 23.3093 4.47486 23.3093H3.49414C3.49414 23.4098 3.89621 24.1134 3.89621 24.1134C3.89621 24.1134 4.95118 24.2139 4.92763 24.1134Z" fill="#525252"/>
<path d="M6.30859 46.8255V47.9466C6.30859 47.9466 7.60354 48.8096 7.75748 48.9228C7.67598 48.7969 7.77287 47.7274 7.77287 47.7274L6.30859 46.8255Z" fill="#525252"/>
<path d="M1.68555 23.3093C1.68555 23.4098 2.08761 24.1134 2.08761 24.1134C2.08761 24.1134 3.1453 24.2139 3.11904 24.1134C3.09278 24.0129 2.66173 23.3093 2.66173 23.3093H1.68555Z" fill="#525252"/>
<path d="M6.02094 27.4809H4.71875L5.11901 28.2352H6.40942C6.40942 28.2352 6.10787 27.5298 6.02094 27.4809Z" fill="#525252"/>
<path d="M7.6144 41.0969V39.8183L6.30859 39.0875V40.3136C6.30859 40.2937 7.6144 41.1975 7.6144 41.0969Z" fill="#525252"/>
<path d="M8.3169 37.7806L7.51367 38.0532V38.5847L8.3169 38.4471V37.7806Z" fill="#525252"/>
<path d="M9.72405 37.3788L8.91992 37.6523V38.183L9.72405 38.0453V37.3788Z" fill="#525252"/>
<path d="M10.4922 41.009L11.6359 41.8005L11.951 42.0223L11.9375 42.0015L10.4922 41.009Z" fill="#525252"/>
<path d="M11.2338 36.9767L10.4297 37.2502V37.7808L11.2338 37.6432V36.9767Z" fill="#525252"/>
<path d="M10.0526 24.2138C10.0264 24.1133 9.59986 23.4097 9.59986 23.4097H8.61914C8.61914 23.5102 9.02121 24.2138 9.02121 24.2138C9.02121 24.2138 10.0798 24.3116 10.0526 24.2138Z" fill="#525252"/>
<path d="M15.2534 35.871L14.4492 36.1445V36.6751L15.2534 36.5375V35.871Z" fill="#525252"/>
<path d="M12.7397 36.5745L11.9355 36.8479V37.3786L12.7397 37.2409V36.5745Z" fill="#525252"/>
<path d="M14.147 36.1725L13.3438 36.446V36.9767L14.147 36.839V36.1725Z" fill="#525252"/>
<path d="M5.30469 23.3093C5.30469 23.4098 5.70675 24.1134 5.70675 24.1134C5.70675 24.1134 6.76444 24.2139 6.73818 24.1134C6.71192 24.0129 6.28087 23.3093 6.28087 23.3093H5.30469Z" fill="#525252"/>
<path d="M8.92519 19.2215L8.46484 19.4872L8.66588 19.8354L9.12622 19.5697L8.92519 19.2215Z" fill="#525252"/>
<path d="M7.31581 21.7333L6.85547 21.9991L7.0565 22.3473L7.51685 22.0815L7.31581 21.7333Z" fill="#525252"/>
<path d="M10.8334 18.3167L10.373 18.5825L10.5741 18.9307L11.0344 18.6649L10.8334 18.3167Z" fill="#525252"/>
<path d="M9.92909 18.7188L9.46875 18.9846L9.66978 19.3328L10.1301 19.067L9.92909 18.7188Z" fill="#525252"/>
<path d="M10.8334 20.1258L10.373 20.3916L10.5741 20.7398L11.0344 20.474L10.8334 20.1258Z" fill="#525252"/>
<path d="M11.7377 17.9139L11.2773 18.1797L11.4784 18.5279L11.9387 18.2621L11.7377 17.9139Z" fill="#525252"/>
<path d="M12.6439 17.5119L12.1836 17.7777L12.3846 18.1259L12.845 17.8601L12.6439 17.5119Z" fill="#525252"/>
<path d="M10.0268 20.5274L9.56641 20.7932L9.76744 21.1414L10.2278 20.8756L10.0268 20.5274Z" fill="#525252"/>
<path d="M5.90761 20.5266L5.44727 20.7924L5.6483 21.1406L6.10864 20.8748L5.90761 20.5266Z" fill="#525252"/>
<path d="M5.00527 21.0302L4.54492 21.296L4.74595 21.6442L5.2063 21.3784L5.00527 21.0302Z" fill="#525252"/>
<path d="M6.41152 22.2359L5.95117 22.5017L6.1522 22.8499L6.61255 22.5841L6.41152 22.2359Z" fill="#525252"/>
<path d="M7.01308 20.0248L6.55273 20.2906L6.75377 20.6388L7.21411 20.373L7.01308 20.0248Z" fill="#525252"/>
<path d="M3.8998 21.4326L3.43945 21.6984L3.64049 22.0466L4.10083 21.7808L3.8998 21.4326Z" fill="#525252"/>
<path d="M8.22011 21.3318L7.75977 21.5975L7.9608 21.9457L8.42114 21.68L8.22011 21.3318Z" fill="#525252"/>
<path d="M7.91933 19.6239L7.45898 19.8896L7.66002 20.2378L8.12036 19.9721L7.91933 19.6239Z" fill="#525252"/>
<path d="M2.89394 22.0352L2.43359 22.301L2.63463 22.6492L3.09497 22.3834L2.89394 22.0352Z" fill="#525252"/>
<path d="M9.12441 20.9296L8.66406 21.1954L8.8651 21.5436L9.32544 21.2778L9.12441 20.9296Z" fill="#525252"/>
<path d="M30.7304 44.9165L30.0449 45.2181V45.6201L30.7304 45.5504V44.9165Z" fill="#525252"/>
<path d="M26.4091 52.1519H25.4238V52.8998H26.4091V52.1519Z" fill="#525252"/>
<path d="M28.3179 48.4338H27.7148V49.1374H28.3179V48.4338Z" fill="#525252"/>
<path d="M27.7162 52.2523H26.9121V52.7549H27.7162V52.2523Z" fill="#525252"/>
<path d="M23.532 52.0015H22.4082V52.8998H23.532V52.0015Z" fill="#525252"/>
<path d="M25.1414 52.1519H24.0176V52.8998H25.1414V52.1519Z" fill="#525252"/>
<path d="M15.8555 52.0513L17.3587 52.3528L17.3632 51.3296L15.86 51.028L15.8555 52.0513Z" fill="#525252"/>
<path d="M18.8712 46.5048L17.4685 46.2032L17.4648 47.2274L18.8675 47.529L18.8712 46.5048Z" fill="#525252"/>
<path d="M20.3789 52.6542H21.7825L21.7861 51.8637L20.3834 51.6301L20.3789 52.6542Z" fill="#525252"/>
<path d="M17.8672 52.3529L19.6711 52.6544L19.6756 51.6302L17.8717 51.3296L17.8672 52.3529Z" fill="#525252"/>
<path d="M34.2466 46.524C34.1461 46.524 33.543 46.725 33.543 46.725C33.5662 46.8959 33.5998 47.0653 33.6435 47.2321C33.6435 47.2276 34.3987 46.8255 34.4232 46.8255C34.4476 46.8255 34.3471 46.524 34.2466 46.524Z" fill="#525252"/>
<path d="M16.6623 47.019V45.8092L15.5566 45.1174V46.2774C15.5566 46.2584 16.6623 47.1141 16.6623 47.019Z" fill="#525252"/>
<path d="M33.6585 44.1966C33.6821 44.3514 33.7446 44.6186 33.7446 44.6186L34.5252 44.365V44.1124H33.6504C33.6512 44.1406 33.6539 44.1687 33.6585 44.1966Z" fill="#525252"/>
<path d="M34.9176 43.8108C34.9493 43.9114 34.7853 44.2211 34.9176 44.2174C35.0498 44.2138 35.834 44.2129 35.7941 44.1124C35.7543 44.0119 35.7534 43.6098 35.7534 43.6098L34.9176 43.8108Z" fill="#525252"/>
<path d="M9.48055 42.4037V41.1251L8.17384 40.3943V41.6204C8.16931 41.5996 9.48055 42.5042 9.48055 42.4037Z" fill="#525252"/>
<path d="M31.3388 45.2677L32.1384 45.0169V44.5786L31.3388 44.7652C31.3324 44.9164 31.3388 45.2677 31.3388 45.2677Z" fill="#525252"/>
<path d="M28.9043 48.8357L29.0238 49.3383L29.7836 49.0332C29.7836 49.0332 29.7265 48.6311 29.6278 48.5306L28.9043 48.8357Z" fill="#525252"/>
<path d="M29.9473 48.4843L30.1809 48.9362L30.842 48.5341L30.7279 48.1203L29.9473 48.4843Z" fill="#525252"/>
<path d="M33.1757 47.0928C33.0426 47.1273 32.4395 47.3084 32.4395 47.3084V47.8164L33.1757 47.4261C33.1757 47.4261 33.3088 47.0575 33.1757 47.0928Z" fill="#525252"/>
<path d="M32.4395 44.9238L33.4156 44.6685V44.3135L32.4395 44.4149V44.9238Z" fill="#525252"/>
<path d="M31.2324 47.9312L31.3366 48.3333L32.061 48.1204C32.0064 47.9603 31.964 47.7962 31.9342 47.6296L31.2324 47.9312Z" fill="#525252"/>
<path d="M22.591 47.9021C22.6408 47.6802 21.5352 47.3733 21.5352 47.4339V48.4844L22.591 48.6347C22.591 48.6347 22.5883 47.9139 22.591 47.9021Z" fill="#525252"/>
<path d="M12.9406 44.6078V43.397L11.8848 42.7052V43.8652C11.8848 43.8462 12.9406 44.7029 12.9406 44.6078Z" fill="#525252"/>
<path d="M20.9814 47.2085L19.5787 46.9069L19.5742 47.9311L20.9778 48.2326L20.9814 47.2085Z" fill="#525252"/>
<path d="M27.1127 48.4338H26.3086V49.1374H27.1127V48.4338Z" fill="#525252"/>
<path d="M25.8079 48.3331H24.8027V49.0367H25.8079V48.3331Z" fill="#525252"/>
<path d="M10.3281 50.2429L11.4338 50.5444L11.4365 49.5202L10.3308 49.2187L10.3281 50.2429Z" fill="#525252"/>
<path d="M13.9453 51.5489L15.4485 51.8514L15.4531 50.8272L13.9498 50.5256L13.9453 51.5489Z" fill="#525252"/>
<path d="M8.36719 48.132V49.0946C8.36719 49.0946 9.48011 49.8336 9.61051 49.9304C9.53988 49.8227 9.62319 48.9072 9.62319 48.9072L8.36719 48.132Z" fill="#525252"/>
<path d="M11.134 43.5019V42.2912L9.97852 41.5994V42.7603C9.97852 42.7413 11.134 43.5997 11.134 43.5019Z" fill="#525252"/>
<path d="M24.1968 48.3883C24.2375 48.2217 23.3438 47.9926 23.3438 48.037V48.823L24.1968 48.9362C24.1968 48.9362 24.195 48.3992 24.1968 48.3883Z" fill="#525252"/>
<path d="M12.1367 50.9468L13.2415 51.2483L13.2451 50.2242L12.1394 49.9226L12.1367 50.9468Z" fill="#525252"/>
<path d="M14.801 45.7124V44.5053L13.6953 43.8135V44.9735C13.6953 44.9518 14.801 45.8075 14.801 45.7124Z" fill="#525252"/>
<path d="M10.4921 41.009L11.9409 42.0051L11.9545 42.026L15.2073 41.8548L16.9115 38.4382L15.9091 35.218L6.31836 37.9854L6.40891 38.1828L10.4921 41.009ZM14.4493 36.1444L15.2535 35.8727V36.5365L14.4493 36.6741V36.1444ZM13.3436 36.4459L14.1478 36.1743V36.8408L13.3436 36.9784V36.4459ZM11.9373 36.848L12.7415 36.5763V37.2428L11.9373 37.3805V36.848ZM10.4296 37.2501L11.2337 36.9784V37.6449L10.4296 37.7825V37.2501ZM8.92183 37.6521L9.72596 37.3805V38.047L8.92183 38.1846V37.6521ZM7.5155 38.0533L8.31873 37.7816V38.4481L7.5155 38.5858V38.0533Z" fill="#525252"/>
<path d="M35.5898 43.4333L35.876 43.3754L35.5898 43.4333Z" fill="#525252"/>
<path d="M29.3457 44.8993C31.4584 44.3017 34.3371 43.6904 35.5859 43.4341C34.3371 43.6904 31.4593 44.3008 29.3457 44.8993Z" fill="#525252"/>
<path d="M28.9355 45.0179L29.1574 44.9527L28.9355 45.0179Z" fill="#525252"/>
<path d="M28.0432 47.9547C28.0239 47.944 28.0031 47.9361 27.9816 47.9311C27.8766 47.9543 27.7695 47.967 27.662 47.9691C27.6366 47.98 27.6104 47.9918 27.5841 48.0054L27.5515 47.971C26.8397 47.971 25.8554 47.7301 25.8554 47.7301C20.4891 47.0056 15.4497 44.3306 11.9497 42.0251L11.6346 41.8032L10.4909 41.0118L6.40953 38.1828L6.31898 37.9854C5.75391 37.903 5.65611 38.4844 5.65611 38.4844C5.65611 38.4844 5.45508 46.4234 5.45508 47.7301C5.45508 49.0368 9.97832 51.5497 18.9225 52.956C27.8666 54.3624 28.6708 52.4362 28.6708 52.4362V47.4149C28.5322 47.6635 28.3097 47.8548 28.0432 47.9547ZM7.61573 39.8183V41.0969C7.61573 41.1974 6.30902 40.2937 6.30902 40.3136V39.0875L7.61573 39.8183ZM7.75881 48.9254C7.7733 48.9363 7.77782 48.9408 7.76877 48.9363C7.76437 48.9338 7.76088 48.93 7.75881 48.9254C7.60758 48.8122 6.30992 47.9492 6.30992 47.9492V46.8254L7.77148 47.731C7.77148 47.731 7.67368 48.7995 7.75881 48.9254ZM8.17174 40.3942L9.47936 41.125V42.4036C9.47936 42.5041 8.17265 41.5995 8.17265 41.6203L8.17174 40.3942ZM9.6161 49.9306C9.62877 49.9396 9.6324 49.9433 9.62515 49.9396C9.62129 49.9376 9.61814 49.9344 9.6161 49.9306C9.4857 49.8337 8.37277 49.0947 8.37277 49.0947V48.1321L9.62877 48.9073C9.62877 48.9073 9.54184 49.8228 9.61248 49.9306H9.6161ZM9.97832 41.5995L11.1338 42.2913V43.502C11.1338 43.5971 9.97832 42.7414 9.97832 42.7604V41.5995ZM11.4354 50.5445L10.3297 50.243V49.2188L11.4344 49.5204L11.4354 50.5445ZM26.3091 48.4337H27.1132V49.1373H26.3091V48.4337ZM24.8013 48.3332H25.8065V49.0332H24.8013V48.3332ZM23.3434 48.0371C23.3434 47.9927 24.2372 48.2182 24.1964 48.3884C24.1964 48.3966 24.1964 48.9317 24.1964 48.9317L23.3434 48.8186V48.0371ZM21.5323 47.434C21.5323 47.3733 22.638 47.6803 22.5882 47.9021C22.5882 47.9139 22.5882 48.6347 22.5882 48.6347L21.5323 48.4844V47.434ZM19.5772 46.9069L20.9799 47.2085V48.2327L19.5763 47.9311L19.5772 46.9069ZM11.8845 42.7052L12.9404 43.397V44.6077C12.9404 44.6983 11.8845 43.8462 11.8845 43.8652V42.7052ZM13.2428 51.2482L12.1381 50.9466V49.9224L13.2437 50.224L13.2428 51.2482ZM13.6956 43.8108L14.8013 44.5054V45.7152C14.8013 45.8058 13.6956 44.9546 13.6956 44.9736V43.8108ZM15.4497 51.8503L13.9465 51.5497L13.951 50.5255L15.4542 50.8271L15.4497 51.8503ZM15.5547 45.1176L16.6604 45.8094V47.0192C16.6604 47.1098 15.5547 46.2586 15.5547 46.2776V45.1176ZM17.3577 52.3529L15.8545 52.0514L15.859 51.0281L17.3622 51.3297L17.3577 52.3529ZM17.4663 46.2033L18.869 46.5049V47.529L17.4663 47.2275V46.2033ZM19.6705 52.6554L17.8666 52.3538L17.8711 51.3306L19.675 51.6312L19.6705 52.6554ZM21.7813 52.6554H20.3786L20.3831 51.6312L21.7858 51.8648L21.7813 52.6554ZM23.5326 52.9008H22.4089V52.0025H23.5326V52.9008ZM25.14 52.9008H24.0171V52.1528H25.14V52.9008ZM26.4078 52.9008H25.4234V52.1528H26.4132L26.4078 52.9008ZM27.7145 52.7559H26.9113V52.2533H27.7154L27.7145 52.7559ZM28.3176 49.1337H27.7145V48.4301H28.3149L28.3176 49.1337Z" fill="#525252"/>
<path d="M28.6698 45.1593V45.0986C28.217 45.2399 27.8158 45.3775 27.5098 45.507C27.8294 45.3875 28.1581 45.2879 28.4805 45.1729C28.5439 45.1702 28.6073 45.1647 28.6698 45.1593Z" fill="#525252"/>
<path d="M36.2047 43.3092H36.1929L36.1585 43.3155L36.0861 43.33L36.0625 43.3346H36.0444L35.9982 43.3445L35.9584 43.3527L35.9258 43.359L35.8878 43.3672H35.8805L35.5944 43.4251C34.3456 43.6814 31.4668 44.2926 29.3542 44.8903L29.1667 44.9437L28.9449 45.0089C28.8543 45.0361 28.7638 45.0624 28.6777 45.0895V45.1502L28.829 45.133V45.3847L29.538 45.2091L29.634 45.7116L28.829 45.9833V46.83C28.829 47.0329 28.7769 47.2325 28.6777 47.4096V49.8355C28.6777 49.8355 34.5068 47.2221 34.8083 46.9206C35.1099 46.619 36.2156 43.2983 36.2156 43.2983L36.2047 43.3092ZM30.0469 45.2181L30.7324 44.9166V45.5505L30.0469 45.6202V45.2181ZM29.0246 49.3384L28.905 48.8358L29.6295 48.5343C29.7282 48.6348 29.7852 49.0368 29.7852 49.0368L29.0246 49.3384ZM30.1855 48.9363L29.9518 48.4835L30.7324 48.1213L30.8465 48.5352L30.1855 48.9363ZM31.3392 48.3332L31.235 47.9312L31.9386 47.6296C31.9684 47.7962 32.0108 47.9603 32.0654 48.1204L31.3392 48.3332ZM32.1415 45.0171L31.3419 45.2679C31.3419 45.2679 31.3355 44.9166 31.3419 44.7653L32.1415 44.5788V45.0171ZM33.1774 47.4259L32.4412 47.8161V47.3127C32.4412 47.3127 33.0443 47.1315 33.1774 47.0971C33.3105 47.0627 33.1765 47.4259 33.1765 47.4259H33.1774ZM33.4174 44.6684L32.4412 44.9238V44.4149L33.4174 44.3144V44.6684ZM34.4271 46.8255C34.4026 46.8255 33.6474 47.2275 33.6474 47.2321C33.6037 47.0652 33.5701 46.8959 33.5469 46.725C33.5469 46.725 34.15 46.5239 34.2505 46.5239C34.351 46.5239 34.4506 46.8255 34.4262 46.8255H34.4271ZM34.5177 44.3651L33.7371 44.6186C33.7371 44.6186 33.6746 44.347 33.651 44.1967C33.6464 44.1688 33.6436 44.1407 33.6429 44.1124H34.5177V44.3651ZM34.917 44.2175C34.7848 44.2175 34.9487 43.9114 34.917 43.8109L35.7528 43.6099C35.7528 43.6099 35.7528 44.0119 35.7936 44.1124C35.8343 44.2129 35.0528 44.213 34.9206 44.2175H34.917Z" fill="#525252"/>
<path d="M14.0975 19.0379L13.8964 16.6264C13.8964 16.726 0.429027 22.354 0.831092 22.8566C0.876883 22.9034 0.933483 22.9382 0.995904 22.958L7.01059 23.006L14.0975 19.0379ZM12.6422 17.5129L12.8433 17.8607L12.3832 18.1269L12.1822 17.7783L12.6422 17.5129ZM11.7367 17.915L11.9377 18.2627L11.4777 18.529L11.2767 18.1803L11.7367 17.915ZM10.8311 18.3171L11.0322 18.6648L10.5721 18.931L10.3711 18.5824L10.8311 18.3171ZM10.8311 20.1282L11.0322 20.4759L10.5721 20.7412L10.3711 20.3935L10.8311 20.1282ZM9.76981 21.1424L9.56968 20.7938L10.0306 20.5275L10.2316 20.8762L9.76981 21.1424ZM9.93191 18.7191L10.1329 19.0669L9.6693 19.3313L9.46826 18.9827L9.93191 18.7191ZM8.86879 21.5436L8.66413 21.1958L9.12415 20.9296L9.32519 21.2782L8.86879 21.5436ZM8.92674 19.2217L9.12777 19.5695L8.66413 19.8357L8.4631 19.487L8.92674 19.2217ZM8.42416 21.6803L7.96414 21.9456L7.75858 21.5952L8.2186 21.3289L8.42416 21.6803ZM7.92158 19.6238L8.12261 19.9715L7.65987 20.2368L7.45884 19.8882L7.92158 19.6238ZM2.63767 22.6492L2.43664 22.3015L2.89666 22.0353L3.09769 22.3839L2.63767 22.6492ZM3.63921 22.048L3.43909 21.7002L3.89911 21.434L4.10014 21.7826L3.63921 22.048ZM4.7449 21.6459L4.54386 21.2982L5.00479 21.0319L5.20582 21.3806L4.7449 21.6459ZM5.44851 20.7956L5.90853 20.5293L6.10956 20.878L5.64954 21.1424L5.44851 20.7956ZM6.15212 22.8521L5.94747 22.5007L6.40749 22.2345L6.60852 22.5831L6.15212 22.8521ZM6.55419 20.293L7.01421 20.0277L7.21525 20.3754L6.75522 20.6407L6.55419 20.293ZM7.31576 21.7355L7.51679 22.0842L7.05677 22.3495L6.85302 22L7.31576 21.7355Z" fill="#525252"/>
<path d="M13.3937 23.0572L7.01048 23.0056L6.5577 23.2582C6.5577 23.2582 1.98466 23.3443 0.993982 22.9576H0.929688C1.94391 25.6625 4.02487 27.728 4.66057 28.3157C4.71895 28.3696 4.78741 28.4114 4.862 28.4388C4.93659 28.4662 5.01586 28.4785 5.09523 28.4751L11.8869 28.1835L13.3937 23.0572ZM9.59674 23.4058C9.59674 23.4058 10.0269 24.1094 10.0495 24.21C10.0722 24.3105 9.01809 24.21 9.01809 24.21C9.01809 24.21 8.61603 23.5063 8.61603 23.4058H9.59674ZM2.08789 24.1094C2.08789 24.1094 1.68583 23.4058 1.68583 23.3053H2.66201C2.66201 23.3053 3.09215 24.0089 3.11932 24.1094C3.14648 24.21 2.08789 24.1131 2.08789 24.1131V24.1094ZM3.899 24.1094C3.899 24.1094 3.49693 23.4058 3.49693 23.3053H4.47131C4.47131 23.3053 4.90145 24.0089 4.92408 24.1094C4.94672 24.21 3.89628 24.1131 3.89628 24.1131L3.899 24.1094ZM5.1215 28.2297L4.71852 27.4808H6.02071C6.11127 27.5315 6.40919 28.2351 6.40919 28.2351L5.1215 28.2297ZM5.70829 24.1094C5.70829 24.1094 5.30623 23.4058 5.30623 23.3053H6.28241C6.28241 23.3053 6.71346 24.0089 6.73972 24.1094C6.76598 24.21 5.70558 24.1131 5.70558 24.1131L5.70829 24.1094ZM7.11552 28.1038L6.737 27.4808L8.01655 27.3305L8.3181 28.0341L7.11552 28.1038ZM7.51759 24.1094C7.51759 24.1094 7.11552 23.4058 7.11552 23.3053H8.09171C8.09171 23.3053 8.52185 24.0089 8.54449 24.1094C8.56713 24.21 7.51487 24.1131 7.51487 24.1131L7.51759 24.1094ZM8.92391 28.0033L8.54902 27.3749L9.82856 27.2246L10.1301 27.9282L8.92391 28.0033Z" fill="#525252"/>
<path d="M6.55996 23.2582L7.01273 23.0056L0.998047 22.9576C1.98691 23.3443 6.55996 23.2582 6.55996 23.2582Z" fill="#525252"/>
<path d="M7.75977 48.9255C7.76196 48.9303 7.76565 48.9344 7.7703 48.937C7.77605 48.9437 7.77126 48.937 7.75977 48.9255Z" fill="#525252"/>
<path d="M9.61328 49.9305C9.61544 49.9346 9.61878 49.9379 9.62286 49.9401C9.63053 49.9439 9.62669 49.9391 9.61328 49.9305Z" fill="#525252"/>
<path d="M27.7645 47.9691C27.8638 47.9213 27.9763 47.9079 28.0841 47.931C28.1056 47.936 28.1263 47.944 28.1457 47.9546C28.4121 47.8535 28.6339 47.6609 28.7714 47.4113C28.8706 47.2342 28.9227 47.0346 28.9227 46.8317V45.1392L28.7714 45.1564C28.709 45.1619 28.6456 45.1673 28.5822 45.17C28.2598 45.285 27.9311 45.3846 27.6114 45.5042C27.4801 45.554 27.3506 45.6056 27.2238 45.6644C26.5664 45.9705 26.3101 46.369 26.7711 47.0499C27.0147 47.4122 27.3687 47.6558 27.6558 47.9682L27.6884 48.0026C27.7128 47.9917 27.7391 47.9799 27.7645 47.9691Z" fill="#525252"/>
<path d="M27.9856 48.0479C27.7139 48.1177 27.3924 48.0851 27.1162 48.0479C24.1348 47.6677 21.2214 46.8716 18.461 45.6826C18.2509 45.5921 18.0426 45.5015 17.8334 45.4028C15.9237 44.5299 14.0847 43.5099 12.3331 42.352C12.2679 42.3085 11.9926 42.1827 12.0007 42.0957C12.0062 42.0224 12.363 41.9074 12.4263 41.8757C12.5169 41.8304 12.612 41.7851 12.7043 41.7371C12.925 41.6246 13.1387 41.4991 13.3446 41.3613C13.4758 41.2719 13.6005 41.1733 13.7177 41.0661H13.7222C14.0976 40.74 14.3903 40.3294 14.5761 39.8681C14.5761 39.859 14.5843 39.85 14.5888 39.8418C15.0941 38.6202 15.0697 36.9676 15.0099 35.0994C15.0054 34.9645 14.9972 34.8323 14.9882 34.7019C14.9882 34.6965 14.9882 34.6928 14.9882 34.6883C14.9289 33.8764 14.7754 33.0741 14.5308 32.2976C14.529 32.2884 14.5262 32.2793 14.5227 32.2705C14.4521 32.0468 14.3769 31.8367 14.3017 31.6366C14.0689 31.0088 13.7651 30.4096 13.3962 29.8508C8.34773 30.2547 10.368 25.5087 10.368 25.5087C10.368 25.3973 10.3744 25.2887 10.3771 25.1845C10.3852 24.9246 10.3925 24.6874 10.4006 24.4682C10.4912 21.9019 10.6134 21.9155 10.9729 20.5635C11.3107 19.2957 12.0705 18.9489 12.3113 18.8683C12.3662 18.8496 12.416 18.8186 12.4571 18.7777C13.2024 18.0642 13.3292 17.4411 13.3292 17.0726V17.0581C13.3251 16.9488 13.3139 16.8399 13.2957 16.7321V16.2567C13.2953 16.0348 13.3619 15.818 13.4867 15.6346L15.0126 13.3915C15.0126 13.3915 18.2436 10.06 20.8887 12.0259C23.5339 13.9919 22.4834 14.7046 23.9975 17.2292C24.4313 17.9537 24.5834 18.7551 24.5798 19.5366C24.5798 19.5583 24.5798 19.5801 24.5798 19.6036C24.5508 21.4962 23.6253 23.2303 23.5954 23.2856L23.6317 23.262C24.3561 22.764 25.9589 22.2768 26.0178 23.2865C26.0178 23.3417 26.0232 23.3961 26.025 23.4495C26.025 23.4821 26.025 23.5138 26.025 23.5464C26.025 26.7566 22.3829 27.4267 22.3829 27.4267C21.6757 27.8306 21.2727 30.6577 21.1704 31.7679C21.0743 32.593 21.057 33.4253 21.1188 34.2536C21.1903 35.2597 21.3823 36.6262 21.8106 38.6003C21.8169 38.6248 21.8224 38.6483 21.8269 38.6727C21.9572 39.2934 22.1564 39.8975 22.4209 40.4739C22.6874 41.0617 23.0518 41.6 23.4985 42.0659L23.5112 42.0785C23.8398 42.4162 24.2224 42.6968 24.6432 42.9089C25.1243 43.1649 25.6185 43.3955 26.1237 43.5999C26.84 43.9068 27.5364 44.2582 28.2382 44.596L28.7064 44.8233C28.8513 44.8939 28.9781 44.9935 29.1284 45.0506C28.9056 45.1973 28.5207 45.2434 28.2581 45.334C27.7148 45.5205 26.2007 45.9543 26.8473 46.7974C27.176 47.2266 27.7528 47.4983 28.2382 47.7029L28.2935 47.7247C28.4637 47.798 28.0154 48.0371 27.9856 48.0479Z" fill="#525252"/>
<path d="M9.78513 31.2959C9.9101 32.0611 10.1184 32.7267 10.8292 33.1577C11.5401 33.5888 12.3642 33.5915 13.0406 33.1577C13.6564 32.762 13.9951 32.2141 14.2712 31.5793C14.0387 30.9514 13.7348 30.3522 13.3657 29.7936C8.31814 30.1975 10.3375 25.4524 10.3375 25.4524C10.3375 25.3401 10.3439 25.2323 10.3466 25.1273C9.49989 27.028 9.45823 29.2828 9.78513 31.2959Z" fill="#525252"/>
<path d="M37.6624 30.0608C36.5839 27.9545 34.8977 26.3942 32.7615 25.3347C32.575 25.2441 32.3893 25.1092 32.2535 25.3754C32.009 25.8545 31.5952 26.1705 31.1596 26.4902C31.3335 26.6115 31.4729 26.7039 31.6069 26.8044C32.162 27.2219 32.6031 28.0948 31.9031 28.8709C31.6531 29.1425 31.4168 29.4368 31.1859 29.7293C30.5456 30.5443 29.9299 31.3729 29.2697 32.1689C28.6259 32.945 27.6451 32.772 27.2539 31.8375C27.0783 31.4191 26.9497 30.979 26.7505 30.5697C26.026 29.0982 26.6201 29.1724 24.9303 29.7638C24.6441 29.8643 24.5817 29.9711 24.7102 30.2654C25.0408 31.0207 25.3496 31.7859 25.6294 32.5601C25.9092 33.3344 25.4075 34.0271 24.5708 34.0543C24.3897 33.9637 24.2086 34.1014 24.0329 34.0543C23.188 33.9184 22.3422 33.7826 21.4973 33.6468C21.2882 33.6142 21.2845 33.7636 21.3008 33.9067C21.3479 34.3268 21.4023 34.7461 21.4484 35.1663C21.4611 35.2786 21.4901 35.3709 21.6187 35.3746C22.3277 35.3945 23.0006 35.6897 23.7169 35.6462C23.8554 35.8138 24.0628 35.7775 24.243 35.8201C25.0661 35.926 25.4265 36.9068 24.9575 37.5216C24.4884 38.1365 24.0238 38.7278 23.5611 39.3327C22.853 40.2627 22.862 40.2582 23.5683 41.1918C23.8174 41.5215 23.9976 41.5984 24.2846 41.2154C24.8751 40.4285 25.5162 39.6759 26.1102 38.8954C26.4389 38.4607 26.8274 38.2343 27.378 38.3249C27.9023 38.4154 28.1332 38.7903 28.3071 39.2368C28.6014 39.9893 28.9546 40.7228 29.1909 41.4934C29.4716 42.4062 30.2694 43.2139 29.7741 44.2925C30.3174 44.3631 30.7747 44.0806 31.2701 44.1032L35.2744 43.156C35.7408 42.9106 36.3068 42.8979 36.6645 42.3962C39.4527 38.4842 39.8602 34.3549 37.6624 30.0608ZM27.0466 36.3824C27.0168 36.3842 26.987 36.3798 26.959 36.3694C26.9311 36.359 26.9056 36.3429 26.8842 36.3221C26.8628 36.3013 26.846 36.2763 26.8348 36.2486C26.8236 36.221 26.8183 36.1913 26.8193 36.1615C26.8179 36.1455 26.8179 36.1295 26.8193 36.1135C26.831 36.0635 26.8582 36.0185 26.8971 35.985C26.936 35.9515 26.9845 35.9312 27.0357 35.927C27.1688 35.9433 27.263 36.0175 27.263 36.1497C27.2646 36.1793 27.2602 36.209 27.2501 36.2368C27.24 36.2647 27.2244 36.2903 27.2042 36.312C27.184 36.3337 27.1596 36.3511 27.1325 36.3632C27.1055 36.3754 27.0762 36.3819 27.0466 36.3824ZM27.973 35.8047C27.5582 35.8101 27.3581 35.5511 27.2974 35.1935C27.2413 34.862 27.599 34.4907 27.9376 34.4735C28.0262 34.4688 28.1149 34.482 28.1983 34.5125C28.2816 34.5429 28.3579 34.5899 28.4226 34.6507C28.4873 34.7115 28.5389 34.7847 28.5745 34.866C28.61 34.9473 28.6288 35.035 28.6295 35.1237C28.6337 35.2124 28.6197 35.3011 28.5883 35.3842C28.557 35.4672 28.5089 35.543 28.4472 35.6068C28.3854 35.6706 28.3112 35.7211 28.2292 35.7551C28.1472 35.7892 28.059 35.806 27.9702 35.8047H27.973ZM28.7925 34.3558C28.7638 34.3608 28.7343 34.3598 28.7061 34.3526C28.6778 34.3455 28.6514 34.3325 28.6285 34.3145C28.6056 34.2965 28.5867 34.2738 28.5732 34.248C28.5596 34.2222 28.5516 34.1938 28.5498 34.1647C28.5407 34.0298 28.6403 33.9628 28.7472 33.9311C28.8912 33.9356 28.9872 33.9999 29.0008 34.1294C29.005 34.1592 29.0027 34.1895 28.994 34.2182C28.9852 34.247 28.9702 34.2734 28.9501 34.2957C28.9299 34.318 28.9051 34.3356 28.8774 34.3473C28.8497 34.3589 28.8198 34.3643 28.7898 34.3631L28.7925 34.3558ZM36.4716 39.3608C35.9092 40.979 34.9204 42.2676 33.371 43.0953C32.728 43.4394 31.7047 43.127 31.4421 42.379C30.9622 41.0144 30.3781 39.685 29.8656 38.3312C29.5522 37.5044 30.1716 36.7238 31.2311 36.8081C32.5206 36.9991 33.994 37.1993 35.4592 37.4419C36.3031 37.5832 36.7876 38.448 36.4689 39.3644L36.4716 39.3608ZM35.4682 35.7123C34.1941 35.5158 32.9155 35.3501 31.6386 35.1762C31.1433 35.1083 30.7068 34.9381 30.5085 34.4373C30.3102 33.9365 30.4442 33.5245 30.7802 33.1161C31.6287 32.0802 32.4745 31.0406 33.2759 29.9684C33.9397 29.0783 34.9394 29.2494 35.5524 29.9014C36.6663 31.0886 37.1571 32.5456 37.2956 34.1412C37.311 35.2686 36.5812 35.8844 35.4682 35.7123Z" fill="#525252"/>
<path d="M24.484 30.0455C24.2331 28.9779 23.7794 27.9763 23.0469 27.165C22.9916 27.1043 22.9092 27.0391 22.8359 27.0744C22.7381 27.126 22.7969 27.2745 22.863 27.3633C23.678 28.45 24.1217 29.7875 24.2693 31.1376C24.3943 32.2904 24.311 33.4559 24.1181 34.5959C23.9461 35.6065 23.6653 36.618 23.122 37.4937C22.6855 38.1901 21.8687 38.68 21.0284 38.5351C20.188 38.3902 19.5469 37.4946 19.2589 36.7593C18.7837 35.504 18.6046 34.156 18.7355 32.8202C18.9575 30.7222 19.9751 28.7891 21.5789 27.4185C21.7492 27.2718 21.9231 27.1297 22.096 26.9866C22.2454 26.8625 22.0317 26.6506 21.8832 26.7729C21.1497 27.3778 20.4552 27.9981 19.9145 28.7877C18.4312 30.9511 18.041 33.7284 18.7609 36.2504C18.8269 36.4997 18.9067 36.7452 18.9999 36.9857C19.5967 38.4418 21.157 39.4361 22.6158 38.4346C23.2977 37.9655 23.7342 37.2139 24.0384 36.4424C24.512 35.2443 24.714 33.9494 24.7402 32.6608C24.7642 31.7818 24.6781 30.9032 24.484 30.0455Z" fill="#525252"/>
<path d="M13.0439 33.1579C12.3674 33.5917 11.5434 33.5881 10.8325 33.1579C10.1216 32.7278 9.91336 32.0613 9.7884 31.2961C9.46149 29.2831 9.50315 27.0255 10.3498 25.1275C10.358 24.8676 10.3661 24.6303 10.3734 24.4103C9.29215 26.2685 8.77599 28.4735 9.04132 30.6115C9.18892 31.7978 9.63083 33.109 10.7338 33.7302C11.1584 33.9641 11.641 34.0719 12.1247 34.0408C13.2114 33.9775 14.0056 33.1706 14.4792 32.2506L14.4964 32.2152C14.4257 31.9889 14.3506 31.777 14.2736 31.5814C13.9983 32.2143 13.6596 32.7622 13.0439 33.1579Z" fill="#525252"/>
</svg>
