<svg width="1039" height="970" viewBox="0 0 1039 970" fill="none" xmlns="http://www.w3.org/2000/svg">
<g id="edge" filter="url(#filter0_d_1501_3096)">
<g id="e6">
<g id="E2">
<mask id="path-1-inside-1_1501_3096" fill="white">
<path d="M477.468 909.385C482.892 845.986 485.899 782.442 486.49 718.753C486.695 695.355 483.956 667.324 463.305 656.335C447.682 648.048 427.572 654.076 414.475 665.969C401.377 677.861 393.726 694.525 386.435 710.623L347.2 797.187C345.56 800.776 343.099 804.957 339.122 804.809C335.021 804.661 332.889 800.037 331.642 796.153C325.491 776.989 319.338 757.825 313.181 738.662C307.375 720.593 301.248 701.917 288.651 687.741C276.054 673.566 255.108 664.909 237.64 672.309C216.932 681.072 210.141 706.606 206.475 728.806C197.69 781.593 191.73 834.812 188.621 888.237C188.244 894.733 188.449 902.429 193.779 906.157C196.97 908.383 201.161 908.482 205.023 908.498L465.281 909.5"/>
</mask>
<path d="M486.49 718.753L489.49 718.781L489.49 718.78L486.49 718.753ZM463.305 656.335L464.714 653.686L464.711 653.684L463.305 656.335ZM386.435 710.623L389.167 711.861L389.167 711.86L386.435 710.623ZM347.2 797.187L349.929 798.434L349.932 798.426L347.2 797.187ZM339.122 804.809L339.233 801.811L339.23 801.811L339.122 804.809ZM331.642 796.153L334.499 795.236L334.499 795.236L331.642 796.153ZM313.181 738.662L316.037 737.744L316.037 737.744L313.181 738.662ZM237.64 672.309L238.809 675.072L238.81 675.071L237.64 672.309ZM206.475 728.806L209.434 729.299L209.435 729.295L206.475 728.806ZM188.621 888.237L185.626 888.062L185.626 888.063L188.621 888.237ZM193.779 906.157L192.06 908.616L192.063 908.618L193.779 906.157ZM205.023 908.498L205.011 911.498L205.012 911.498L205.023 908.498ZM480.458 909.641C485.888 846.166 488.899 782.546 489.49 718.781L483.49 718.726C482.9 782.339 479.897 845.806 474.479 909.129L480.458 909.641ZM489.49 718.78C489.593 707.002 488.964 693.795 485.602 682.064C482.232 670.305 476.012 659.698 464.714 653.686L461.896 658.983C471.248 663.96 476.724 672.864 479.834 683.717C482.953 694.598 483.592 707.106 483.49 718.727L489.49 718.78ZM464.711 653.684C447.575 644.595 426.11 651.351 412.458 663.748L416.491 668.19C429.034 656.801 447.788 651.5 461.899 658.985L464.711 653.684ZM412.458 663.748C398.825 676.126 390.947 693.388 383.702 709.385L389.167 711.86C396.504 695.662 403.93 679.595 416.491 668.19L412.458 663.748ZM383.702 709.384L344.468 795.949L349.932 798.426L389.167 711.861L383.702 709.384ZM344.471 795.94C343.68 797.672 342.806 799.275 341.8 800.401C340.822 801.497 340.006 801.84 339.233 801.811L339.01 807.807C342.215 807.926 344.618 806.253 346.275 804.398C347.904 802.574 349.08 800.292 349.929 798.434L344.471 795.94ZM339.23 801.811C338.444 801.783 337.64 801.363 336.742 800.123C335.823 798.853 335.094 797.089 334.499 795.236L328.786 797.069C329.438 799.101 330.398 801.591 331.881 803.641C333.387 805.721 335.699 807.688 339.014 807.807L339.23 801.811ZM334.499 795.236C328.348 776.072 322.194 756.908 316.037 737.744L310.325 739.579C316.481 758.743 322.635 777.906 328.786 797.069L334.499 795.236ZM316.037 737.744C310.265 719.781 303.98 700.474 290.894 685.748L286.409 689.734C298.517 703.359 304.485 721.405 310.325 739.58L316.037 737.744ZM290.894 685.748C277.796 671.009 255.549 661.464 236.469 669.547L238.81 675.071C254.668 668.354 274.313 676.122 286.409 689.734L290.894 685.748ZM236.471 669.546C225.195 674.318 217.875 683.602 212.944 694.259C208.024 704.891 205.359 717.15 203.515 728.317L209.435 729.295C211.257 718.262 213.82 706.655 218.389 696.779C222.947 686.928 229.376 679.064 238.809 675.072L236.471 669.546ZM203.516 728.314C194.713 781.206 188.741 834.531 185.626 888.062L191.616 888.411C194.718 835.093 200.666 781.98 209.434 729.299L203.516 728.314ZM185.626 888.063C185.434 891.363 185.368 895.241 186.123 898.85C186.885 902.487 188.55 906.16 192.06 908.616L195.499 903.699C193.678 902.425 192.575 900.387 191.996 897.62C191.411 894.825 191.43 891.606 191.616 888.41L185.626 888.063ZM192.063 908.618C196.143 911.464 201.315 911.482 205.011 911.498L205.036 905.498C201.006 905.481 197.797 905.302 195.496 903.697L192.063 908.618ZM205.012 911.498L465.27 912.5L465.293 906.5L205.035 905.498L205.012 911.498Z" fill="black" mask="url(#path-1-inside-1_1501_3096)"/>
</g>
</g>
<g id="e5">
<g id="E4">
<mask id="path-3-inside-2_1501_3096" fill="white">
<path d="M495.191 141.883C561.595 134.624 628.248 130.662 695.152 130C694.347 178.403 697.182 226.798 703.633 274.776C708.912 314.08 655.833 332.218 636.418 297.637L635.941 296.78C620.274 268.134 616.656 234.662 612.569 202.259C611.5 193.819 610.11 184.767 603.353 179.119C599.02 175.484 592.807 174.395 588.087 177.512C583.366 180.629 583.094 186.02 582.964 190.975L578.611 362.961C535.695 364.322 500.273 330.054 499.823 287.143C499.303 237.744 496.024 188.412 490 139.379"/>
</mask>
<path d="M695.152 130L698.151 130.05L698.203 126.97L695.122 127L695.152 130ZM703.633 274.776L706.606 274.377L706.606 274.376L703.633 274.776ZM636.418 297.637L633.796 299.095L633.802 299.106L636.418 297.637ZM635.941 296.78L633.309 298.219L633.314 298.229L633.319 298.238L635.941 296.78ZM612.569 202.259L615.546 201.883L615.545 201.882L612.569 202.259ZM603.353 179.119L601.425 181.417L601.428 181.42L603.353 179.119ZM582.964 190.975L579.965 190.896L579.965 190.899L582.964 190.975ZM578.611 362.961L578.706 365.959L581.539 365.869L581.61 363.037L578.611 362.961ZM499.823 287.143L502.823 287.111L502.823 287.111L499.823 287.143ZM495.517 144.865C561.822 137.617 628.377 133.661 695.181 133L695.122 127C628.12 127.664 561.367 131.631 494.865 138.901L495.517 144.865ZM692.152 129.95C691.345 178.503 694.189 227.048 700.66 275.176L706.606 274.376C700.176 226.547 697.349 178.302 698.151 130.05L692.152 129.95ZM700.66 275.175C705.515 311.327 656.768 327.756 639.034 296.169L633.802 299.106C654.898 336.681 712.309 316.834 706.606 274.377L700.66 275.175ZM639.04 296.179L638.563 295.322L633.319 298.238L633.796 299.095L639.04 296.179ZM638.573 295.34C623.234 267.295 619.654 234.455 615.546 201.883L609.593 202.634C613.659 234.869 617.313 268.972 633.309 298.219L638.573 295.34ZM615.545 201.882C614.501 193.642 613.073 183.334 605.277 176.817L601.428 181.42C607.147 186.2 608.498 193.997 609.593 202.636L615.545 201.882ZM605.281 176.82C600.201 172.559 592.531 170.983 586.434 175.009L589.74 180.016C593.084 177.807 597.839 178.409 601.425 181.417L605.281 176.82ZM586.434 175.009C580.231 179.104 580.088 186.204 579.965 190.896L585.963 191.053C586.099 185.835 586.501 182.155 589.74 180.016L586.434 175.009ZM579.965 190.899L575.612 362.885L581.61 363.037L585.963 191.05L579.965 190.899ZM578.516 359.962C537.297 361.27 503.255 328.356 502.823 287.111L496.823 287.174C497.29 331.752 534.094 367.374 578.706 365.959L578.516 359.962ZM502.823 287.111C502.302 237.6 499.015 188.157 492.978 139.013L487.022 139.744C493.032 188.667 496.304 237.887 496.823 287.174L502.823 287.111Z" fill="white" mask="url(#path-3-inside-2_1501_3096)"/>
</g>
</g>
<g id="e4">
<g id="Vector">
<mask id="path-5-inside-3_1501_3096" fill="white">
<path d="M24.8216 247.084C243.884 232.014 463.205 222.078 682.785 217.277C698.03 216.954 713.955 216.761 727.679 223.478C741.403 230.195 751.89 246.083 747.261 260.519C740.108 282.866 708.776 282.737 685.763 278.668C557.19 256.089 426.051 251.87 296.287 266.138C250.746 271.143 203.781 279.055 165.976 304.89C120.661 335.763 94.4438 388.854 84.507 442.752C74.5703 496.65 78.8104 551.904 83.2447 606.61C383.679 638.193 689.291 647.59 986.294 591.787C1001.12 589.009 1016.98 585.328 1027.14 574.381C1040.09 560.43 1039.7 539.277 1038.37 520.385C1031.06 417.046 1010.6 307.247 938.034 233.133C888.706 182.562 819.99 154.337 750.304 141.904C680.617 129.471 609.408 131.473 538.718 133.54C364.841 138.664 190.952 143.788 17.0535 148.912C16.5664 182.19 19.4072 215.434 25.5337 248.15"/>
</mask>
<path d="M682.785 217.277L682.722 214.278L682.72 214.278L682.785 217.277ZM747.261 260.519L744.404 259.603L744.404 259.604L747.261 260.519ZM685.763 278.668L686.285 275.713L686.282 275.713L685.763 278.668ZM296.287 266.138L296.614 269.12L296.615 269.12L296.287 266.138ZM165.976 304.89L167.665 307.369L167.668 307.367L165.976 304.89ZM83.2447 606.61L80.2545 606.852L80.4556 609.333L82.9311 609.593L83.2447 606.61ZM986.294 591.787L985.742 588.838L985.74 588.838L986.294 591.787ZM1027.14 574.381L1029.34 576.422L1029.34 576.421L1027.14 574.381ZM1038.37 520.385L1041.37 520.175L1041.37 520.174L1038.37 520.385ZM938.034 233.133L935.887 235.228L935.891 235.232L938.034 233.133ZM538.718 133.54L538.631 130.541L538.63 130.541L538.718 133.54ZM17.0535 148.912L16.9651 145.913L14.0958 145.998L14.0538 148.868L17.0535 148.912ZM25.0275 250.077C244.043 235.01 463.318 225.077 682.851 220.277L682.72 214.278C463.093 219.08 243.725 229.018 24.6157 244.091L25.0275 250.077ZM682.849 220.277C698.221 219.951 713.396 219.827 726.36 226.172L728.998 220.783C714.514 213.694 697.84 213.958 682.722 214.278L682.849 220.277ZM726.36 226.172C732.688 229.27 738.288 234.502 741.744 240.586C745.194 246.659 746.404 253.367 744.404 259.603L750.118 261.435C752.747 253.235 751.028 244.782 746.96 237.622C742.899 230.473 736.393 224.403 728.998 220.783L726.36 226.172ZM744.404 259.604C741.299 269.304 732.948 274.407 721.888 276.554C710.805 278.705 697.636 277.72 686.285 275.713L685.241 281.622C696.904 283.684 710.906 284.798 723.031 282.444C735.178 280.086 746.07 274.081 750.118 261.433L744.404 259.604ZM686.282 275.713C557.429 253.085 426.005 248.857 295.959 263.156L296.615 269.12C426.097 254.883 556.95 259.093 685.244 281.622L686.282 275.713ZM295.959 263.156C250.403 268.163 202.761 276.119 164.283 302.413L167.668 307.367C204.801 281.992 251.089 274.124 296.614 269.12L295.959 263.156ZM164.287 302.411C118.099 333.879 91.5846 387.816 81.5568 442.208L87.4573 443.296C97.3031 389.891 123.224 337.647 167.665 307.369L164.287 302.411ZM81.5568 442.208C71.5366 496.558 75.8249 552.205 80.2545 606.852L86.2349 606.367C81.7958 551.603 77.6039 496.741 87.4573 443.296L81.5568 442.208ZM82.9311 609.593C383.492 641.19 689.434 650.616 986.848 594.735L985.74 588.838C689.149 644.564 383.865 635.196 83.5584 603.626L82.9311 609.593ZM986.846 594.735C1001.56 591.98 1018.41 588.193 1029.34 576.422L1024.94 572.339C1015.54 582.463 1000.68 586.039 985.742 588.838L986.846 594.735ZM1029.34 576.421C1036.36 568.854 1039.67 559.43 1041.08 549.664C1042.48 539.928 1042.03 529.639 1041.37 520.175L1035.38 520.596C1036.04 530.024 1036.45 539.757 1035.14 548.807C1033.84 557.829 1030.87 565.956 1024.94 572.34L1029.34 576.421ZM1041.37 520.174C1034.05 416.758 1013.56 305.977 940.178 231.035L935.891 235.232C1007.65 308.518 1028.07 417.333 1035.38 520.597L1041.37 520.174ZM940.182 231.039C890.278 179.877 820.905 151.453 750.83 138.951L749.777 144.857C819.076 157.221 887.135 185.247 935.887 235.228L940.182 231.039ZM750.83 138.951C680.788 126.454 609.27 128.476 538.631 130.541L538.806 136.539C609.547 134.47 680.445 132.488 749.777 144.857L750.83 138.951ZM538.63 130.541C364.752 135.665 190.864 140.789 16.9651 145.913L17.1418 151.911C191.041 146.787 364.929 141.663 538.807 136.539L538.63 130.541ZM14.0538 148.868C13.5638 182.346 16.4217 215.79 22.585 248.702L28.4824 247.598C22.3928 215.079 19.569 182.034 20.0531 148.956L14.0538 148.868Z" fill="black" mask="url(#path-5-inside-3_1501_3096)"/>
</g>
</g>
<g id="e3">
<path id="Vector_2" d="M558.832 439.638C561.997 485.508 564.084 531.432 565.092 577.411C565.16 580.603 565.2 583.938 563.79 586.811C562.379 589.685 559.042 591.881 556.011 590.912C551.318 589.414 551.345 582.853 552.2 578.035C556.941 551.112 557.827 523.653 554.831 496.481C553.78 486.945 552.118 477.111 546.693 469.195C540.21 459.706 529.061 454.216 517.742 452.136C506.424 450.055 494.82 450.943 483.332 451.871C476.699 514.78 474.726 578.773 486.445 640.964C487.028 644.068 487.801 647.389 490.1 649.517C493.03 652.228 497.472 652.147 501.439 651.869C523.14 650.337 546.198 646.054 561.762 630.858C572.382 620.53 578.309 606.141 580.92 591.549C583.531 576.957 583.111 562.046 582.677 547.244C581.601 510.836 580.525 474.424 579.449 438.011C572.46 437.909 565.479 438.504 558.608 439.787" fill="#D75D12"/>
</g>
<g id="e2">
<path id="Vector_3" d="M610 822.538C585.587 748.144 555.807 675.627 520.896 605.559C515.704 595.15 509.354 583.854 498.305 580.258C491.84 578.152 484.825 579.114 478.089 580.093L441.016 585.483C434.362 586.454 427.413 587.531 421.983 591.522C414.705 596.87 411.764 606.184 409.275 614.881C387.692 690.342 368.267 766.379 351 842.992C374.108 850.809 399.195 849.385 423.519 847.592C477.495 843.626 531.35 838.322 585.085 831.679C593.25 830.675 604.127 825.631 601.391 817.856" fill="#3C6128"/>
</g>
<g id="e1">
<path id="Vector_4" d="M834.846 582.123C749.738 574.843 664.436 570.806 578.939 570.014C547.529 569.738 509.899 573.415 495.148 601.134C484.023 622.105 492.116 649.098 508.08 666.678C524.045 684.259 546.415 694.529 568.024 704.316L684.23 756.98C689.048 759.182 694.66 762.484 694.462 767.823C694.263 773.327 688.056 776.189 682.841 777.863C657.116 786.119 631.39 794.379 605.665 802.643C581.409 810.437 556.338 818.66 537.308 835.569C518.279 852.477 506.658 880.593 516.592 904.041C528.356 931.837 562.633 940.952 592.434 945.873C663.296 957.665 734.738 965.665 806.456 969.838C815.177 970.344 825.507 970.069 830.513 962.913C833.501 958.631 833.633 953.006 833.655 947.821L835 598.481" fill="white"/>
</g>
<g id="date">
<path id="06_12" d="M220.893 385.2C216.593 385.2 212.768 384.25 209.418 382.35C206.093 380.45 203.481 377.562 201.581 373.687C199.706 369.787 198.768 364.862 198.768 358.912C198.768 352.887 199.706 347.937 201.581 344.062C203.481 340.162 206.093 337.275 209.418 335.4C212.768 333.5 216.593 332.55 220.893 332.55C225.143 332.55 228.918 333.5 232.218 335.4C235.518 337.275 238.118 340.162 240.018 344.062C241.918 347.937 242.868 352.887 242.868 358.912C242.868 364.862 241.918 369.787 240.018 373.687C238.118 377.562 235.518 380.45 232.218 382.35C228.918 384.25 225.143 385.2 220.893 385.2ZM220.893 374.287C223.793 374.287 226.118 373 227.868 370.425C229.618 367.825 230.493 363.987 230.493 358.912C230.493 353.837 229.618 349.987 227.868 347.362C226.118 344.712 223.793 343.387 220.893 343.387C217.868 343.387 215.481 344.712 213.731 347.362C212.006 349.987 211.143 353.837 211.143 358.912C211.143 363.987 212.006 367.825 213.731 370.425C215.481 373 217.868 374.287 220.893 374.287ZM271.881 385.2C267.506 385.2 263.618 384.125 260.218 381.975C256.818 379.8 254.143 376.8 252.193 372.975C250.268 369.125 249.306 364.712 249.306 359.737C249.306 353.837 250.268 348.875 252.193 344.85C254.143 340.8 256.818 337.737 260.218 335.662C263.643 333.587 267.556 332.55 271.956 332.55C275.631 332.55 278.868 333.212 281.668 334.537C284.493 335.862 286.693 337.725 288.268 340.125C289.868 342.525 290.656 345.35 290.631 348.6H277.956C277.806 346.975 277.256 345.7 276.306 344.775C275.381 343.85 274.081 343.387 272.406 343.387C269.006 343.387 266.281 344.912 264.231 347.962C262.206 351.012 261.193 355.137 261.193 360.337C261.193 360.887 261.206 361.437 261.231 361.987C261.281 362.512 261.343 363.037 261.418 363.562C262.018 360.737 263.018 358.537 264.418 356.962C265.818 355.362 267.456 354.237 269.331 353.587C271.231 352.912 273.206 352.575 275.256 352.575C278.506 352.575 281.331 353.275 283.731 354.675C286.131 356.075 287.993 358 289.318 360.45C290.643 362.9 291.306 365.687 291.306 368.812C291.306 372.062 290.481 374.925 288.831 377.4C287.206 379.85 284.931 381.762 282.006 383.137C279.106 384.513 275.731 385.2 271.881 385.2ZM271.881 374.287C273.731 374.287 275.381 373.712 276.831 372.562C278.281 371.412 279.006 369.962 279.006 368.212C279.006 366.287 278.281 364.787 276.831 363.712C275.381 362.612 273.731 362.062 271.881 362.062C270.681 362.062 269.556 362.312 268.506 362.813C267.456 363.287 266.606 363.987 265.956 364.912C265.306 365.812 264.981 366.912 264.981 368.212C264.981 369.962 265.668 371.412 267.043 372.562C268.443 373.712 270.056 374.287 271.881 374.287ZM298.399 384V373.5H351.199V384H298.399ZM368.972 333.225H377.672V384H365.672V347.662C364.247 348.012 362.91 348.287 361.66 348.487C360.435 348.687 359.197 348.775 357.947 348.75V337.35C359.772 337.2 361.547 336.812 363.272 336.187C365.022 335.562 366.922 334.575 368.972 333.225ZM388.269 384V374.25C388.269 371.525 388.644 369.175 389.394 367.2C390.144 365.2 391.356 363.487 393.031 362.062C394.706 360.637 396.919 359.412 399.669 358.387L410.356 354.412C412.281 353.662 413.681 352.775 414.556 351.75C415.431 350.725 415.869 349.487 415.869 348.037C415.869 346.712 415.344 345.537 414.294 344.512C413.244 343.462 411.694 342.937 409.644 342.937C407.744 342.937 406.106 343.512 404.731 344.662C403.356 345.812 402.569 347.45 402.369 349.575H389.094C389.069 345.625 389.981 342.4 391.831 339.9C393.706 337.375 396.194 335.525 399.294 334.35C402.394 333.15 405.769 332.55 409.419 332.55C412.969 332.55 416.194 333.2 419.094 334.5C422.019 335.8 424.344 337.637 426.069 340.012C427.819 342.362 428.694 345.162 428.694 348.412C428.694 350.987 428.231 353.275 427.306 355.275C426.381 357.275 424.894 359.062 422.844 360.637C420.794 362.187 418.069 363.6 414.669 364.875L404.056 368.887C402.606 369.437 401.606 369.975 401.056 370.5C400.531 371 400.269 371.662 400.269 372.487V373.05H428.544V384H388.269Z" fill="#3C6128"/>
<path id="2022" d="M208.659 534.65L208.257 538.79H245.632L245.172 545H201.874L202.622 535.397C203.005 531.219 203.944 527.769 205.439 525.047C206.973 522.326 208.947 520.083 211.362 518.32C213.777 516.557 216.46 515.042 219.412 513.777L232.177 508.085C235.742 506.59 238.559 504.597 240.629 502.105C242.699 499.575 243.888 496.393 244.194 492.56C244.693 488.42 243.773 485.085 241.434 482.555C239.096 480.025 235.723 478.76 231.314 478.76C226.906 478.76 223.207 479.757 220.217 481.75C217.227 483.705 215.349 486.637 214.582 490.547H208.142C208.755 486.867 210.078 483.705 212.109 481.06C214.179 478.377 216.882 476.326 220.217 474.907C223.552 473.489 227.443 472.78 231.889 472.78C235.953 472.78 239.441 473.662 242.354 475.425C245.306 477.188 247.529 479.603 249.024 482.67C250.519 485.698 251.094 489.11 250.749 492.905C250.174 498.502 248.373 502.967 245.344 506.302C242.354 509.637 238.674 512.206 234.304 514.007L221.079 519.815C217.284 521.502 214.352 523.514 212.282 525.852C210.25 528.152 209.043 531.085 208.659 534.65ZM282.923 546.035C278.054 546.035 273.953 544.674 270.618 541.952C267.321 539.231 264.944 535.148 263.488 529.705C262.031 524.262 261.705 517.477 262.51 509.35C263.2 501.262 264.772 494.515 267.225 489.11C269.717 483.667 272.918 479.584 276.828 476.862C280.738 474.141 285.165 472.78 290.11 472.78C294.978 472.78 299.08 474.141 302.415 476.862C305.788 479.584 308.203 483.667 309.66 489.11C311.155 494.515 311.538 501.262 310.81 509.35C310.082 517.477 308.453 524.262 305.923 529.705C303.393 535.148 300.153 539.231 296.205 541.952C292.295 544.674 287.868 546.035 282.923 546.035ZM283.728 540.112C289.708 540.112 294.423 537.448 297.873 532.12C301.323 526.753 303.546 519.163 304.543 509.35C305.539 499.613 304.753 492.1 302.185 486.81C299.655 481.52 295.362 478.875 289.305 478.875C283.517 478.875 278.859 481.52 275.333 486.81C271.844 492.1 269.583 499.613 268.548 509.35C267.628 519.163 268.452 526.753 271.02 532.12C273.588 537.448 277.824 540.112 283.728 540.112ZM326.579 534.65L326.177 538.79H363.552L363.092 545H319.794L320.542 535.397C320.925 531.219 321.864 527.769 323.359 525.047C324.893 522.326 326.867 520.083 329.282 518.32C331.697 516.557 334.38 515.042 337.332 513.777L350.097 508.085C353.662 506.59 356.479 504.597 358.549 502.105C360.619 499.575 361.808 496.393 362.114 492.56C362.613 488.42 361.693 485.085 359.354 482.555C357.016 480.025 353.643 478.76 349.234 478.76C344.826 478.76 341.127 479.757 338.137 481.75C335.147 483.705 333.269 486.637 332.502 490.547H326.062C326.675 486.867 327.998 483.705 330.029 481.06C332.099 478.377 334.802 476.326 338.137 474.907C341.472 473.489 345.363 472.78 349.809 472.78C353.873 472.78 357.361 473.662 360.274 475.425C363.226 477.188 365.449 479.603 366.944 482.67C368.439 485.698 369.014 489.11 368.669 492.905C368.094 498.502 366.293 502.967 363.264 506.302C360.274 509.637 356.594 512.206 352.224 514.007L338.999 519.815C335.204 521.502 332.272 523.514 330.202 525.852C328.17 528.152 326.963 531.085 326.579 534.65ZM385.202 534.65L384.8 538.79H422.175L421.715 545H378.417L379.165 535.397C379.548 531.219 380.487 527.769 381.982 525.047C383.516 522.326 385.49 520.083 387.905 518.32C390.32 516.557 393.003 515.042 395.955 513.777L408.72 508.085C412.285 506.59 415.102 504.597 417.172 502.105C419.242 499.575 420.431 496.393 420.737 492.56C421.236 488.42 420.316 485.085 417.977 482.555C415.639 480.025 412.266 478.76 407.857 478.76C403.449 478.76 399.75 479.757 396.76 481.75C393.77 483.705 391.892 486.637 391.125 490.547H384.685C385.298 486.867 386.621 483.705 388.652 481.06C390.722 478.377 393.425 476.326 396.76 474.907C400.095 473.489 403.986 472.78 408.432 472.78C412.496 472.78 415.984 473.662 418.897 475.425C421.849 477.188 424.072 479.603 425.567 482.67C427.062 485.698 427.637 489.11 427.292 492.905C426.717 498.502 424.916 502.967 421.887 506.302C418.897 509.637 415.217 512.206 410.847 514.007L397.622 519.815C393.827 521.502 390.895 523.514 388.825 525.852C386.793 528.152 385.586 531.085 385.202 534.65Z" fill="black"/>
<path id="novembro" d="M198.379 444L200.96 416.508H203.512L203.338 422.221C204.286 420.191 205.533 418.625 207.079 417.523C208.645 416.421 210.443 415.87 212.473 415.87C214.387 415.87 216.002 416.334 217.316 417.262C218.65 418.19 219.617 419.543 220.216 421.322C220.835 423.101 221.009 425.256 220.738 427.789L219.23 444H216.33L217.838 427.789C218.128 424.812 217.684 422.569 216.504 421.061C215.344 419.534 213.73 418.77 211.661 418.77C209.071 418.77 207.002 419.853 205.455 422.018C203.909 424.183 202.971 427.045 202.642 430.602L201.395 444H198.379ZM237.773 444.522C235.53 444.522 233.607 443.981 232.002 442.898C230.417 441.796 229.247 440.182 228.493 438.055C227.758 435.909 227.536 433.299 227.826 430.225C228.135 427.132 228.87 424.522 230.03 422.395C231.19 420.249 232.669 418.625 234.467 417.523C236.265 416.421 238.276 415.87 240.499 415.87C242.761 415.87 244.685 416.44 246.27 417.581C247.855 418.702 249.015 420.336 249.75 422.482C250.504 424.609 250.726 427.19 250.417 430.225C250.127 433.299 249.402 435.899 248.242 438.026C247.082 440.153 245.603 441.767 243.805 442.869C242.026 443.971 240.016 444.522 237.773 444.522ZM237.918 441.68C240.644 441.68 242.809 440.636 244.414 438.548C246.019 436.46 246.995 433.686 247.343 430.225C247.691 426.745 247.275 423.961 246.096 421.873C244.917 419.785 242.954 418.741 240.209 418.741C237.502 418.741 235.376 419.775 233.829 421.844C232.302 423.893 231.374 426.687 231.045 430.225C230.832 432.487 230.919 434.488 231.306 436.228C231.712 437.949 232.456 439.292 233.539 440.259C234.622 441.206 236.081 441.68 237.918 441.68ZM255.489 416.508H258.795L265.059 440.288L275.731 416.508H279.037L266.306 444H263.058L255.489 416.508ZM291.264 444.522C289.079 444.522 287.204 443.971 285.638 442.869C284.091 441.748 282.951 440.133 282.216 438.026C281.501 435.899 281.288 433.338 281.578 430.341C281.868 427.344 282.574 424.763 283.695 422.598C284.836 420.433 286.276 418.77 288.016 417.61C289.775 416.45 291.728 415.87 293.874 415.87C295.363 415.87 296.658 416.141 297.76 416.682C298.862 417.204 299.78 417.948 300.515 418.915C301.25 419.882 301.781 421.003 302.11 422.279C302.458 423.555 302.613 424.947 302.574 426.455C302.555 427.093 302.497 427.799 302.4 428.572C302.323 429.345 302.207 430.109 302.052 430.863H283.26L284.681 429.964C284.43 432.168 284.488 434.169 284.855 435.967C285.222 437.746 285.947 439.167 287.03 440.23C288.132 441.274 289.65 441.796 291.583 441.796C293.362 441.796 294.879 441.303 296.136 440.317C297.393 439.331 298.234 437.9 298.659 436.025H301.82C301.356 437.9 300.602 439.476 299.558 440.752C298.533 442.009 297.306 442.956 295.875 443.594C294.444 444.213 292.907 444.522 291.264 444.522ZM284.681 429.152L283.637 428.63H300.921L299.5 428.978C299.751 427.141 299.761 425.43 299.529 423.845C299.297 422.26 298.727 420.984 297.818 420.017C296.909 419.031 295.556 418.538 293.758 418.538C291.999 418.538 290.481 419.031 289.205 420.017C287.948 421.003 286.943 422.308 286.189 423.932C285.435 425.537 284.932 427.277 284.681 429.152ZM309.452 444L312.033 416.508H314.585C314.565 417.455 314.536 418.412 314.498 419.379C314.459 420.326 314.43 421.274 314.411 422.221C315.358 420.191 316.605 418.625 318.152 417.523C319.718 416.421 321.516 415.87 323.546 415.87C325.73 415.87 327.519 416.469 328.911 417.668C330.322 418.867 331.24 420.587 331.666 422.83C332.632 420.491 333.918 418.751 335.523 417.61C337.127 416.45 338.964 415.87 341.033 415.87C342.947 415.87 344.561 416.334 345.876 417.262C347.21 418.19 348.176 419.543 348.776 421.322C349.394 423.101 349.578 425.256 349.327 427.789L347.819 444H344.919L346.456 427.789C346.726 424.908 346.301 422.685 345.18 421.119C344.078 419.553 342.434 418.77 340.25 418.77C338.529 418.77 337.069 419.244 335.871 420.191C334.691 421.138 333.754 422.463 333.058 424.164C332.362 425.865 331.859 427.866 331.55 430.167L330.303 444H327.403L328.911 427.789C329.201 424.812 328.756 422.569 327.577 421.061C326.417 419.534 324.802 418.77 322.734 418.77C320.143 418.77 318.074 419.853 316.528 422.018C314.981 424.183 314.043 427.045 313.715 430.602L312.468 444H309.452ZM368.553 444.522C366.851 444.522 365.353 444.068 364.058 443.159C362.782 442.25 361.834 440.907 361.216 439.128L360.114 444H357.91L361.622 404.647H364.609L362.985 421.032C363.913 419.408 365.102 418.142 366.552 417.233C368.002 416.324 369.568 415.87 371.25 415.87C373.028 415.87 374.643 416.363 376.093 417.349C377.562 418.335 378.722 419.737 379.573 421.554C380.443 423.371 380.878 425.508 380.878 427.963C380.878 429.684 380.626 431.511 380.124 433.444C379.621 435.358 378.857 437.156 377.833 438.838C376.827 440.52 375.551 441.893 374.005 442.956C372.458 444 370.641 444.522 368.553 444.522ZM368.437 441.651C370.099 441.651 371.52 441.216 372.7 440.346C373.879 439.457 374.836 438.326 375.571 436.953C376.325 435.561 376.876 434.082 377.224 432.516C377.572 430.95 377.746 429.481 377.746 428.108C377.746 425.189 377.069 422.907 375.716 421.264C374.362 419.601 372.68 418.77 370.67 418.77C369.297 418.77 368.002 419.176 366.784 419.988C365.566 420.781 364.551 421.941 363.739 423.468C362.927 424.976 362.414 426.813 362.202 428.978L361.999 431.443C361.786 433.376 361.892 435.116 362.318 436.663C362.743 438.19 363.468 439.408 364.493 440.317C365.537 441.206 366.851 441.651 368.437 441.651ZM387.502 444L390.083 416.45H393.099L392.577 421.583C393.409 419.65 394.404 418.238 395.564 417.349C396.724 416.44 398.126 415.986 399.769 415.986C400.195 415.986 400.678 416.025 401.219 416.102C401.78 416.179 402.312 416.344 402.814 416.595L402.234 419.756C401.693 419.543 401.132 419.379 400.552 419.263C399.972 419.128 399.402 419.06 398.841 419.06C397.295 419.06 396.028 419.592 395.042 420.655C394.056 421.699 393.283 423.149 392.722 425.005C392.181 426.842 391.814 428.959 391.62 431.356L390.518 444H387.502ZM414.888 444.522C412.646 444.522 410.722 443.981 409.117 442.898C407.532 441.796 406.362 440.182 405.608 438.055C404.874 435.909 404.651 433.299 404.941 430.225C405.251 427.132 405.985 424.522 407.145 422.395C408.305 420.249 409.784 418.625 411.582 417.523C413.38 416.421 415.391 415.87 417.614 415.87C419.876 415.87 421.8 416.44 423.385 417.581C424.971 418.702 426.131 420.336 426.865 422.482C427.619 424.609 427.842 427.19 427.532 430.225C427.242 433.299 426.517 435.899 425.357 438.026C424.197 440.153 422.718 441.767 420.92 442.869C419.142 443.971 417.131 444.522 414.888 444.522ZM415.033 441.68C417.759 441.68 419.925 440.636 421.529 438.548C423.134 436.46 424.11 433.686 424.458 430.225C424.806 426.745 424.391 423.961 423.211 421.873C422.032 419.785 420.07 418.741 417.324 418.741C414.618 418.741 412.491 419.775 410.944 421.844C409.417 423.893 408.489 426.687 408.16 430.225C407.948 432.487 408.035 434.488 408.421 436.228C408.827 437.949 409.572 439.292 410.654 440.259C411.737 441.206 413.197 441.68 415.033 441.68Z" fill="#3C6128"/>
</g>
<rect id="Rectangle 56" width="773" height="35" fill="#EEA80A"/>
</g>
<defs>
<filter id="filter0_d_1501_3096" x="-4" y="0" width="1047" height="978" filterUnits="userSpaceOnUse" color-interpolation-filters="sRGB">
<feFlood flood-opacity="0" result="BackgroundImageFix"/>
<feColorMatrix in="SourceAlpha" type="matrix" values="0 0 0 0 0 0 0 0 0 0 0 0 0 0 0 0 0 0 127 0" result="hardAlpha"/>
<feOffset dy="4"/>
<feGaussianBlur stdDeviation="2"/>
<feComposite in2="hardAlpha" operator="out"/>
<feColorMatrix type="matrix" values="0 0 0 0 0 0 0 0 0 0 0 0 0 0 0 0 0 0 0.25 0"/>
<feBlend mode="normal" in2="BackgroundImageFix" result="effect1_dropShadow_1501_3096"/>
<feBlend mode="normal" in="SourceGraphic" in2="effect1_dropShadow_1501_3096" result="shape"/>
</filter>
</defs>
</svg>
