<svg width="402" height="359" viewBox="0 0 402 359" fill="none" xmlns="http://www.w3.org/2000/svg">
<path d="M10.8798 296.797L17.4065 276.38H22.276L13.5157 301.865H8.6462L0 276.368H4.91152L11.3541 296.785L10.8798 296.797Z" fill="#0F0E0E"/>
<path d="M36.2598 277.19H40.6609L49.175 294.251H48.8628L57.3469 277.196H61.634V301.871H58.5297V280.373H59.0761L50.0697 298.76H47.9742L38.9677 280.493H39.322V301.865H36.2598V277.19Z" fill="#0F0E0E"/>
<path d="M76.3304 302.339C74.7546 302.369 73.199 301.982 71.8211 301.217C70.4786 300.445 69.3959 299.291 68.7109 297.902C67.9587 296.191 67.5703 294.342 67.5703 292.473C67.5703 290.604 67.9587 288.756 68.7109 287.045C69.3969 285.658 70.4794 284.506 71.8211 283.736C73.2081 283 74.7542 282.615 76.3244 282.615C77.8945 282.615 79.4407 283 80.8276 283.736C82.1662 284.506 83.2448 285.658 83.9258 287.045C84.6705 288.757 85.0549 290.605 85.0549 292.473C85.0549 294.341 84.6705 296.189 83.9258 297.902C83.2467 299.291 82.1678 300.445 80.8276 301.217C79.4536 301.981 77.9022 302.368 76.3304 302.339V302.339ZM76.2523 299.655C77.3408 299.705 78.4167 299.406 79.323 298.801C80.2293 298.196 80.9185 297.317 81.2899 296.292C81.756 295.072 81.9804 293.773 81.9504 292.467C81.9504 290.225 81.4841 288.46 80.5514 287.171C80.0758 286.529 79.448 286.017 78.7247 285.679C78.0013 285.342 77.2052 285.19 76.4084 285.237C75.3048 285.2 74.2167 285.504 73.2922 286.108C72.4178 286.731 71.7489 287.601 71.3708 288.606C70.9044 289.839 70.6801 291.15 70.7103 292.467C70.7103 294.677 71.1787 296.429 72.1153 297.722C72.5903 298.362 73.2172 298.874 73.9394 299.212C74.6616 299.549 75.4565 299.702 76.2523 299.655Z" fill="#0F0E0E"/>
<path d="M97.7616 302.339C96.2061 302.386 94.6569 302.123 93.2043 301.565C92.0943 301.132 91.133 300.388 90.4363 299.421C89.803 298.497 89.4544 297.407 89.4336 296.286H92.4057C92.4072 296.818 92.5394 297.341 92.7907 297.809C93.042 298.277 93.4047 298.676 93.8468 298.971C94.954 299.62 96.2273 299.931 97.5094 299.865C98.2741 299.875 99.0338 299.74 99.749 299.469C100.374 299.249 100.935 298.878 101.382 298.388C101.77 297.966 101.984 297.412 101.983 296.839C101.997 296.507 101.932 296.177 101.792 295.876C101.652 295.575 101.441 295.312 101.178 295.109C100.4 294.581 99.5275 294.208 98.6082 294.01L94.9515 292.809C93.5851 292.441 92.3323 291.737 91.3069 290.762C90.8934 290.355 90.5651 289.87 90.3414 289.335C90.1176 288.8 90.0029 288.225 90.004 287.645C89.9948 286.914 90.1746 286.194 90.5259 285.553C90.8773 284.912 91.3883 284.373 92.0094 283.988C93.5849 283.007 95.4212 282.527 97.2752 282.613C99.5809 282.613 101.364 283.087 102.637 284.03C103.223 284.422 103.708 284.946 104.052 285.561C104.396 286.175 104.59 286.863 104.618 287.567H101.616C101.571 287.177 101.434 286.802 101.216 286.475C100.998 286.149 100.705 285.878 100.361 285.687C99.414 285.211 98.3581 284.991 97.2992 285.051C96.2302 284.981 95.1698 285.282 94.2971 285.904C93.982 286.113 93.721 286.394 93.5353 286.724C93.3496 287.054 93.2444 287.423 93.2283 287.801C93.2283 289.098 94.3411 290.055 96.5667 290.672L100.295 291.927C101.656 292.278 102.922 292.929 104 293.83C104.419 294.208 104.75 294.672 104.972 295.19C105.194 295.709 105.301 296.269 105.285 296.833C105.277 297.8 104.954 298.738 104.366 299.505C103.681 300.395 102.783 301.097 101.754 301.547C100.497 302.098 99.1342 302.368 97.7616 302.339Z" fill="#0F0E0E"/>
<path d="M109.018 285.207V283.087H121.026V285.207H109.018ZM117.424 302.339C116.473 302.35 115.533 302.145 114.674 301.739C113.867 301.343 113.196 300.716 112.746 299.937C112.25 299.038 112.007 298.021 112.044 296.995V277.863H115.046V296.953C115.046 298.895 115.951 299.865 117.76 299.865C118.285 299.867 118.809 299.806 119.321 299.685C119.898 299.546 120.466 299.37 121.02 299.157L121.452 301.355C120.806 301.638 120.139 301.874 119.459 302.063C118.796 302.248 118.112 302.341 117.424 302.339V302.339Z" fill="#0F0E0E"/>
<path d="M126.418 301.865V283.045H129.486V301.865H126.418ZM128.543 293.38C128.497 291.376 128.728 289.376 129.228 287.435C129.55 286.091 130.247 284.866 131.239 283.904C132.133 283.121 133.288 282.703 134.476 282.733C134.864 282.736 135.252 282.772 135.635 282.841C135.992 282.899 136.343 282.987 136.685 283.105L136.487 286.108C136.094 285.981 135.693 285.878 135.286 285.802C134.905 285.723 134.517 285.681 134.128 285.675C133.141 285.627 132.175 285.967 131.438 286.624C130.698 287.36 130.183 288.291 129.955 289.308C129.624 290.638 129.468 292.004 129.492 293.374L128.543 293.38Z" fill="#0F0E0E"/>
<path d="M145.844 302.339C144.518 302.389 143.2 302.104 142.013 301.511C141.111 301.048 140.353 300.345 139.823 299.479C139.294 298.614 139.013 297.619 139.011 296.605C138.959 295.49 139.297 294.393 139.966 293.5C140.642 292.672 141.546 292.061 142.566 291.741C143.766 291.353 145.021 291.165 146.282 291.182C147.274 291.182 148.264 291.281 149.236 291.476C150.223 291.668 151.192 291.937 152.136 292.281V294.203C151.274 293.87 150.381 293.621 149.471 293.458C148.574 293.285 147.664 293.192 146.751 293.182C145.638 293.144 144.537 293.415 143.568 293.962C143.13 294.241 142.777 294.635 142.548 295.101C142.319 295.567 142.224 296.088 142.271 296.605C142.266 297.045 142.352 297.481 142.523 297.886C142.695 298.291 142.948 298.657 143.268 298.959C143.929 299.611 144.985 299.939 146.438 299.943C147.407 299.957 148.362 299.708 149.2 299.223C149.979 298.781 150.645 298.164 151.146 297.421C151.593 296.788 151.842 296.035 151.86 295.26H152.605C152.617 296.473 152.337 297.672 151.788 298.754C151.252 299.864 150.406 300.795 149.352 301.435C148.298 302.074 147.082 302.395 145.85 302.358L145.844 302.339ZM152.245 301.865L151.854 297.74V289.687C151.854 287.999 151.494 286.78 150.774 286.042C150.337 285.646 149.824 285.344 149.267 285.153C148.709 284.962 148.119 284.886 147.531 284.931C146.78 284.922 146.033 285.042 145.322 285.285C144.703 285.491 144.157 285.871 143.748 286.378C143.34 286.922 143.128 287.589 143.148 288.27H139.732C139.673 287.09 140.028 285.926 140.734 284.979C141.454 284.118 142.413 283.491 143.49 283.177C144.793 282.786 146.147 282.598 147.507 282.619C148.82 282.597 150.124 282.844 151.338 283.345C152.433 283.817 153.349 284.627 153.95 285.657C154.63 286.918 154.955 288.34 154.892 289.771V301.871L152.245 301.865Z" fill="#0F0E0E"/>
<path d="M180.144 302.339C178.146 302.391 176.181 301.818 174.524 300.7C172.92 299.548 171.671 297.969 170.921 296.142C170.03 293.999 169.595 291.695 169.642 289.375C169.568 286.993 170.043 284.626 171.029 282.457C171.846 280.703 173.156 279.225 174.8 278.205C176.421 277.231 178.283 276.729 180.174 276.758C182.804 276.758 184.921 277.416 186.526 278.734C188.137 280.061 189.294 281.858 189.835 283.874L186.538 284.54C186.095 283.107 185.244 281.834 184.089 280.877C182.988 279.97 181.6 279.485 180.174 279.508C178.888 279.5 177.63 279.888 176.571 280.619C175.398 281.453 174.483 282.599 173.929 283.928C173.21 285.651 172.868 287.508 172.927 289.375C172.898 291.154 173.166 292.926 173.719 294.617C174.171 296.017 175.002 297.264 176.121 298.22C177.269 299.124 178.702 299.59 180.162 299.535C181.853 299.627 183.514 299.066 184.803 297.968C185.372 297.446 185.82 296.807 186.118 296.094C186.416 295.382 186.555 294.614 186.526 293.842H189.865C189.914 295.442 189.497 297.021 188.664 298.388C187.832 299.669 186.647 300.682 185.254 301.307C183.647 302.024 181.902 302.376 180.144 302.339Z" fill="#0F0E0E"/>
<path d="M202.457 302.339C200.882 302.369 199.326 301.982 197.948 301.217C196.605 300.445 195.523 299.291 194.838 297.902C194.086 296.191 193.697 294.342 193.697 292.473C193.697 290.604 194.086 288.756 194.838 287.045C195.524 285.658 196.606 284.506 197.948 283.736C199.335 283 200.881 282.615 202.451 282.615C204.021 282.615 205.568 283 206.955 283.736C208.294 284.507 209.374 285.659 210.059 287.045C210.803 288.757 211.188 290.605 211.188 292.473C211.188 294.341 210.803 296.189 210.059 297.902C209.375 299.29 208.295 300.444 206.955 301.217C205.581 301.981 204.029 302.369 202.457 302.339V302.339ZM202.379 299.667C203.468 299.717 204.544 299.418 205.45 298.813C206.356 298.208 207.045 297.329 207.417 296.304C207.883 295.084 208.107 293.785 208.077 292.479C208.077 290.239 207.609 288.474 206.684 287.183C206.208 286.541 205.579 286.027 204.855 285.69C204.13 285.352 203.333 285.201 202.535 285.249C201.434 285.211 200.347 285.515 199.425 286.12C198.549 286.742 197.877 287.612 197.498 288.618C197.031 289.851 196.807 291.162 196.837 292.479C196.837 294.689 197.306 296.44 198.242 297.734C198.719 298.372 199.346 298.881 200.068 299.217C200.79 299.552 201.584 299.703 202.379 299.655V299.667Z" fill="#0F0E0E"/>
<path d="M217.131 301.865V283.087H219.761L220.115 286.858C220.625 285.595 221.488 284.504 222.601 283.718C223.737 282.961 225.079 282.575 226.444 282.613C227.779 282.575 229.097 282.919 230.244 283.604C231.306 284.294 232.142 285.282 232.646 286.444C233.236 287.828 233.523 289.323 233.487 290.828V301.865H230.484V290.828C230.484 289.03 230.054 287.665 229.194 286.732C228.745 286.259 228.2 285.888 227.594 285.645C226.989 285.403 226.338 285.294 225.687 285.327C224.638 285.303 223.61 285.626 222.763 286.246C221.891 286.931 221.231 287.849 220.86 288.894C220.382 290.205 220.153 291.594 220.187 292.99V301.865H217.131ZM243.55 301.865V290.828C243.55 289.026 243.118 287.669 242.265 286.732C241.764 286.242 241.165 285.864 240.507 285.624C239.848 285.383 239.146 285.287 238.447 285.34C237.748 285.394 237.069 285.596 236.455 285.933C235.841 286.271 235.306 286.736 234.886 287.297C233.985 288.618 233.529 290.431 233.529 292.749H232.118C232.096 291.255 232.264 289.764 232.616 288.312C232.892 287.169 233.389 286.091 234.081 285.141C234.689 284.324 235.492 283.671 236.417 283.243C237.401 282.809 238.469 282.594 239.545 282.613C240.88 282.575 242.199 282.919 243.346 283.604C244.408 284.294 245.243 285.282 245.747 286.444C246.338 287.828 246.624 289.323 246.588 290.828V301.865H243.55Z" fill="#0F0E0E"/>
<path d="M253.885 311.101V283.087H256.437L256.947 287.489V311.101H253.885ZM262.411 302.339C261.145 302.375 259.895 302.048 258.808 301.397C257.764 300.735 256.945 299.772 256.461 298.634C255.87 297.233 255.588 295.722 255.632 294.203H256.923C256.89 295.234 257.141 296.254 257.649 297.151C258.106 297.913 258.762 298.536 259.547 298.953C260.314 299.353 261.167 299.559 262.033 299.553C262.995 299.548 263.936 299.264 264.741 298.736C265.654 298.143 266.388 297.313 266.866 296.334C267.458 295.126 267.755 293.794 267.731 292.449C267.767 291.132 267.508 289.823 266.974 288.618C266.534 287.632 265.83 286.788 264.939 286.18C264.101 285.623 263.116 285.33 262.111 285.339C261.232 285.336 260.368 285.559 259.601 285.988C258.803 286.431 258.142 287.086 257.691 287.879C257.183 288.822 256.932 289.883 256.965 290.954H255.668C255.618 289.376 255.928 287.807 256.575 286.366C257.101 285.212 257.955 284.239 259.03 283.568C260.08 282.937 261.283 282.611 262.507 282.625C263.962 282.628 265.386 283.044 266.614 283.826C267.924 284.655 268.988 285.821 269.694 287.201C270.525 288.829 270.938 290.639 270.895 292.467C270.939 294.314 270.527 296.144 269.694 297.794C268.98 299.186 267.904 300.361 266.578 301.193C265.324 301.957 263.88 302.355 262.411 302.339V302.339Z" fill="#0F0E0E"/>
<path d="M283.341 302.339C281.8 302.364 280.287 301.929 278.994 301.09C277.699 300.228 276.661 299.03 275.992 297.625C275.227 296.032 274.847 294.282 274.881 292.515C274.833 290.686 275.209 288.872 275.98 287.213C276.628 285.809 277.672 284.625 278.984 283.808C280.297 282.99 281.82 282.575 283.365 282.613C284.639 282.575 285.9 282.873 287.022 283.478C288.017 284.042 288.855 284.847 289.46 285.82C290.087 286.841 290.523 287.968 290.744 289.146C290.988 290.412 291.057 291.705 290.949 292.99H277.337V291.104H288.925L288.025 291.704C288.062 290.929 288.017 290.152 287.892 289.387C287.781 288.642 287.545 287.921 287.196 287.255C286.867 286.616 286.374 286.077 285.767 285.693C285.055 285.27 284.235 285.061 283.407 285.093C282.333 285.06 281.277 285.383 280.405 286.012C279.599 286.636 278.977 287.466 278.604 288.414C278.194 289.449 277.99 290.555 278.003 291.668V292.924C277.987 294.123 278.19 295.316 278.604 296.442C278.962 297.414 279.586 298.265 280.405 298.899C281.3 299.475 282.342 299.782 283.407 299.782C284.472 299.782 285.514 299.475 286.409 298.899C286.812 298.582 287.147 298.188 287.393 297.739C287.64 297.29 287.793 296.796 287.844 296.286H291.027C290.871 297.435 290.423 298.525 289.725 299.45C289.027 300.376 288.102 301.106 287.04 301.571C285.877 302.091 284.615 302.353 283.341 302.339V302.339Z" fill="#0F0E0E"/>
<path d="M294.389 285.207V283.087H306.397V285.207H294.389ZM302.795 302.339C301.844 302.35 300.904 302.145 300.045 301.739C299.238 301.343 298.567 300.716 298.117 299.937C297.619 299.039 297.374 298.022 297.409 296.995V277.863H300.411V296.953C300.411 298.895 301.316 299.865 303.125 299.865C303.651 299.867 304.174 299.806 304.686 299.685C305.263 299.546 305.831 299.37 306.385 299.157L306.818 301.355C306.171 301.638 305.504 301.874 304.824 302.063C304.163 302.247 303.481 302.34 302.795 302.339V302.339Z" fill="#0F0E0E"/>
<path d="M313.52 278.637C313.247 278.652 312.974 278.612 312.718 278.519C312.461 278.426 312.225 278.283 312.025 278.097C311.841 277.91 311.697 277.687 311.603 277.442C311.509 277.198 311.467 276.936 311.479 276.674C311.467 276.419 311.51 276.165 311.604 275.928C311.698 275.69 311.842 275.476 312.025 275.299C312.454 274.965 312.982 274.783 313.526 274.783C314.07 274.783 314.598 274.965 315.027 275.299C315.21 275.476 315.354 275.69 315.448 275.928C315.542 276.165 315.585 276.419 315.573 276.674C315.585 276.936 315.543 277.198 315.449 277.442C315.355 277.687 315.211 277.91 315.027 278.097C314.825 278.284 314.588 278.428 314.329 278.521C314.07 278.614 313.795 278.654 313.52 278.637ZM311.989 301.859V283.045H315.051V301.865L311.989 301.859Z" fill="#0F0E0E"/>
<path d="M320.871 285.207V283.087H332.88V285.207H320.871ZM329.277 302.339C328.327 302.35 327.386 302.145 326.527 301.739C325.719 301.345 325.048 300.717 324.6 299.937C324.101 299.039 323.856 298.022 323.891 296.995V277.863H326.893V296.953C326.893 298.895 327.798 299.865 329.607 299.865C330.133 299.867 330.657 299.806 331.168 299.685C331.746 299.546 332.313 299.37 332.868 299.157L333.3 301.355C332.653 301.637 331.987 301.873 331.307 302.063C330.646 302.247 329.963 302.339 329.277 302.339V302.339Z" fill="#0F0E0E"/>
<path d="M339.997 278.637C339.724 278.652 339.451 278.612 339.194 278.519C338.937 278.426 338.702 278.283 338.501 278.097C338.317 277.91 338.174 277.687 338.08 277.442C337.986 277.198 337.943 276.936 337.955 276.674C337.944 276.419 337.986 276.165 338.081 275.928C338.175 275.69 338.318 275.476 338.501 275.299C338.931 274.965 339.459 274.783 340.003 274.783C340.546 274.783 341.075 274.965 341.504 275.299C341.687 275.476 341.83 275.69 341.925 275.928C342.019 276.165 342.061 276.419 342.05 276.674C342.062 276.936 342.02 277.198 341.925 277.442C341.831 277.687 341.688 277.91 341.504 278.097C341.302 278.284 341.064 278.428 340.805 278.521C340.546 278.614 340.271 278.654 339.997 278.637ZM338.465 301.859V283.045H341.528V301.865L338.465 301.859Z" fill="#0F0E0E"/>
<path d="M346.717 283.087H350.211L356.102 299.235H355.669L361.565 283.087H365.06L357.561 301.865H354.192L346.717 283.087Z" fill="#0F0E0E"/>
<path d="M374.944 302.339C373.617 302.389 372.3 302.104 371.113 301.511C370.21 301.048 369.453 300.345 368.923 299.479C368.393 298.614 368.112 297.619 368.111 296.605C368.059 295.49 368.396 294.393 369.065 293.5C369.743 292.671 370.649 292.059 371.671 291.741C372.869 291.353 374.123 291.164 375.382 291.182C376.374 291.182 377.363 291.281 378.336 291.476C379.322 291.668 380.292 291.937 381.236 292.281V294.203C380.373 293.87 379.481 293.621 378.57 293.458C377.674 293.285 376.763 293.192 375.85 293.182C374.738 293.144 373.637 293.415 372.668 293.962C372.23 294.241 371.877 294.635 371.648 295.101C371.419 295.567 371.323 296.088 371.371 296.605C371.367 297.044 371.453 297.48 371.625 297.885C371.796 298.29 372.049 298.656 372.368 298.959C373.028 299.611 374.085 299.939 375.538 299.943C376.507 299.957 377.461 299.708 378.3 299.223C379.079 298.781 379.745 298.164 380.245 297.421C380.693 296.788 380.941 296.035 380.96 295.26H381.704C381.716 296.472 381.438 297.67 380.894 298.754C380.364 299.812 379.559 300.708 378.564 301.349C377.481 302.028 376.222 302.372 374.944 302.339V302.339ZM381.344 301.865L380.954 297.74V289.687C380.954 287.999 380.594 286.78 379.873 286.042C379.436 285.646 378.924 285.344 378.366 285.153C377.809 284.962 377.218 284.886 376.631 284.931C375.879 284.922 375.132 285.042 374.421 285.285C373.803 285.491 373.257 285.871 372.848 286.378C372.439 286.922 372.228 287.589 372.248 288.27H368.831C368.773 287.09 369.128 285.926 369.834 284.979C370.554 284.118 371.513 283.491 372.59 283.177C373.892 282.786 375.247 282.598 376.607 282.619C377.92 282.597 379.224 282.844 380.438 283.345C381.535 283.814 382.451 284.625 383.049 285.657C383.729 286.918 384.055 288.34 383.992 289.771V301.871L381.344 301.865Z" fill="#0F0E0E"/>
<path d="M8.61508 349.497C7.12657 349.518 5.66483 349.101 4.41206 348.296C3.1036 347.44 2.05162 346.244 1.36788 344.837C0.62214 343.195 0.236328 341.411 0.236328 339.607C0.236328 337.803 0.62214 336.019 1.36788 334.377C2.03425 333 3.0614 331.829 4.34001 330.99C5.55226 330.199 6.96975 329.782 8.41693 329.789C9.70101 329.748 10.9671 330.099 12.0477 330.794C13.1284 331.489 13.9728 332.495 14.4693 333.68C15.0808 335.111 15.3777 336.658 15.3399 338.214H14.139C14.175 337.126 13.9267 336.048 13.4185 335.085C12.97 334.277 12.3073 333.608 11.5031 333.152C10.7298 332.716 9.85683 332.488 8.96933 332.491C7.96898 332.485 6.99058 332.784 6.16532 333.35C5.28971 333.957 4.59134 334.786 4.14187 335.752C3.6102 336.94 3.35168 338.233 3.38533 339.535C3.3503 340.858 3.60867 342.173 4.14187 343.384C4.57494 344.39 5.27465 345.258 6.16532 345.894C6.98868 346.464 7.96794 346.766 8.96933 346.759C9.83438 346.752 10.6828 346.521 11.4311 346.086C12.2513 345.611 12.9277 344.922 13.3885 344.093C13.9122 343.148 14.1715 342.08 14.139 341H15.3399C15.3848 342.59 15.0794 344.171 14.4453 345.63C13.9308 346.796 13.0984 347.792 12.0435 348.507C11.0238 349.169 9.83071 349.513 8.61508 349.497V349.497ZM14.6614 349.023L14.139 344.615V322.222H17.2072V349.017L14.6614 349.023Z" fill="#0F0E0E"/>
<path d="M31.6948 349.497C30.1537 349.517 28.6411 349.081 27.3477 348.242C26.0523 347.377 25.0149 346.178 24.3456 344.771C23.581 343.18 23.2005 341.432 23.2348 339.667C23.1853 337.836 23.5636 336.018 24.3395 334.359C24.9888 332.956 26.0337 331.774 27.3459 330.958C28.658 330.142 30.1801 329.727 31.7248 329.765C32.9965 329.728 34.2555 330.026 35.3755 330.629C36.3694 331.194 37.2072 331.996 37.8132 332.965C38.4305 333.986 38.8558 335.112 39.0681 336.286C39.3138 337.55 39.3845 338.841 39.2783 340.123H25.6845V338.238H37.2548L36.3482 338.838C36.3899 338.063 36.3476 337.286 36.2221 336.52C36.104 335.777 35.8689 335.058 35.5256 334.389C35.1914 333.752 34.6967 333.214 34.0905 332.827C33.3771 332.407 32.5585 332.198 31.7308 332.227C30.6554 332.194 29.5996 332.52 28.7287 333.152C27.9218 333.774 27.2992 334.604 26.9274 335.554C26.5201 336.588 26.3162 337.691 26.327 338.802V340.063C26.3063 341.262 26.51 342.453 26.9274 343.576C27.28 344.551 27.9052 345.403 28.7287 346.032C29.6016 346.658 30.6574 346.977 31.7308 346.939C32.8014 346.983 33.8566 346.673 34.733 346.056C35.1235 345.742 35.4481 345.354 35.6882 344.914C35.9282 344.474 36.0791 343.991 36.132 343.492H39.3143C39.15 344.659 38.6913 345.765 37.9813 346.705C37.2842 347.607 36.3716 348.319 35.3274 348.777C34.1821 349.274 32.9433 349.52 31.6948 349.497Z" fill="#0F0E0E"/>
<path d="M63.6289 349.57C61.5747 349.643 59.5469 349.09 57.8141 347.984C56.0813 346.878 54.7253 345.272 53.9259 343.378C52.9575 341.115 52.4925 338.669 52.5629 336.208C52.4842 333.712 52.9707 331.23 53.9859 328.948C54.8274 327.113 56.1939 325.569 57.9128 324.51C59.6466 323.489 61.629 322.968 63.6409 323.003C66.611 323.003 68.9327 323.724 70.6059 325.165C72.2823 326.62 73.4149 328.602 73.8182 330.786L68.8646 331.692C68.5235 330.454 67.8509 329.333 66.9192 328.45C66.031 327.623 64.8536 327.179 63.6409 327.213C62.5324 327.203 61.4502 327.55 60.5546 328.203C59.5557 328.976 58.7976 330.018 58.3691 331.206C57.7776 332.807 57.5004 334.508 57.5525 336.214C57.518 337.866 57.7595 339.512 58.267 341.084C58.6517 342.305 59.369 343.395 60.3385 344.231C61.2758 344.974 62.4451 345.363 63.6409 345.33C64.34 345.374 65.0409 345.279 65.7034 345.051C66.3659 344.823 66.977 344.467 67.5016 344.003C67.9526 343.565 68.3069 343.037 68.5416 342.454C68.7764 341.87 68.8864 341.244 68.8646 340.616H73.8182C73.8813 342.31 73.465 343.988 72.6173 345.456C71.7813 346.803 70.5596 347.868 69.1108 348.513C67.3837 349.265 65.5117 349.626 63.6289 349.57V349.57Z" fill="#0F0E0E"/>
<path d="M81.9858 326.462C81.2167 326.51 80.4595 326.253 79.8783 325.747C79.3953 325.199 79.1289 324.493 79.1289 323.763C79.1289 323.032 79.3953 322.326 79.8783 321.778C80.4756 321.302 81.2164 321.044 81.9798 321.044C82.7432 321.044 83.484 321.302 84.0813 321.778C84.5716 322.323 84.8429 323.03 84.8429 323.763C84.8429 324.496 84.5716 325.203 84.0813 325.747C83.5015 326.248 82.7504 326.504 81.9858 326.462ZM79.6681 349.017V329.885H84.3035V349.017H79.6681Z" fill="#0F0E0E"/>
<path d="M92.1348 349.017V329.963H96.1817L96.7821 333.734V349.017H92.1348ZM105.218 349.017V337.86C105.303 336.701 104.938 335.554 104.197 334.659C103.854 334.3 103.438 334.018 102.977 333.832C102.517 333.645 102.022 333.559 101.525 333.578C100.643 333.562 99.7779 333.83 99.0577 334.341C98.2841 334.93 97.7013 335.734 97.3825 336.653C96.9442 337.883 96.7406 339.184 96.7821 340.49H95.251C95.191 338.392 95.5041 336.299 96.1757 334.311C96.658 332.85 97.5679 331.567 98.7875 330.629C99.9473 329.813 101.339 329.392 102.756 329.428C104.145 329.378 105.516 329.744 106.695 330.479C107.776 331.199 108.613 332.229 109.097 333.434C109.656 334.847 109.928 336.358 109.895 337.878V349.017H105.218Z" fill="#0F0E0E"/>
<path d="M123.717 349.569C122.142 349.582 120.597 349.145 119.262 348.308C117.885 347.445 116.766 346.227 116.02 344.783C115.184 343.139 114.771 341.313 114.819 339.469C114.766 337.596 115.179 335.739 116.02 334.064C116.744 332.647 117.849 331.461 119.211 330.638C120.573 329.816 122.138 329.391 123.729 329.41C125.099 329.375 126.454 329.689 127.668 330.323C128.752 330.911 129.671 331.761 130.34 332.797C131.027 333.871 131.492 335.072 131.709 336.328C131.944 337.666 131.956 339.034 131.745 340.376H118.536V337.86H128.497L127.59 338.46C127.631 337.836 127.603 337.21 127.506 336.592C127.413 335.989 127.222 335.405 126.942 334.863C126.673 334.344 126.271 333.907 125.777 333.596C125.19 333.257 124.52 333.091 123.843 333.115C122.988 333.089 122.146 333.337 121.442 333.824C120.775 334.312 120.259 334.978 119.953 335.746C119.6 336.621 119.426 337.558 119.442 338.502V340.346C119.422 341.316 119.585 342.282 119.923 343.192C120.2 343.967 120.699 344.644 121.358 345.138C122.058 345.632 122.903 345.881 123.759 345.846C124.563 345.883 125.359 345.673 126.041 345.246C126.359 345.03 126.63 344.752 126.837 344.427C127.043 344.103 127.181 343.74 127.242 343.36H131.919C131.741 344.545 131.264 345.666 130.532 346.615C129.788 347.567 128.821 348.322 127.716 348.813C126.455 349.356 125.09 349.615 123.717 349.569Z" fill="#0F0E0E"/>
<path d="M137.432 349.017V329.963H141.479L141.989 333.224C142.53 332.051 143.397 331.059 144.487 330.365C145.557 329.717 146.79 329.385 148.041 329.41C149.43 329.36 150.801 329.726 151.98 330.461C153.058 331.183 153.895 332.213 154.382 333.416C154.937 334.83 155.206 336.34 155.174 337.86V349.017H150.539V337.86C150.624 336.701 150.259 335.554 149.518 334.659C149.175 334.3 148.759 334.018 148.298 333.832C147.838 333.645 147.343 333.559 146.846 333.578C145.963 333.562 145.099 333.829 144.379 334.341C143.605 334.93 143.022 335.734 142.703 336.653C142.265 337.883 142.061 339.184 142.103 340.49V349.017H137.432ZM163.322 349.017V337.86C163.407 336.701 163.042 335.554 162.301 334.659C161.958 334.3 161.542 334.018 161.081 333.832C160.621 333.645 160.126 333.559 159.63 333.578C158.985 333.558 158.346 333.702 157.772 333.997C157.199 334.293 156.71 334.729 156.351 335.265C155.553 336.394 155.15 338.094 155.15 340.376H153.223C153.191 338.659 153.381 336.946 153.787 335.277C154.076 334.052 154.618 332.9 155.379 331.897C156.009 331.077 156.835 330.429 157.78 330.011C158.755 329.601 159.803 329.396 160.86 329.41C162.243 329.361 163.609 329.727 164.781 330.461C165.861 331.182 166.698 332.212 167.183 333.416C167.75 334.827 168.026 336.339 167.994 337.86V349.017H163.322Z" fill="#0F0E0E"/>
<path d="M180.609 349.569C179.194 349.617 177.789 349.323 176.514 348.711C175.495 348.21 174.64 347.432 174.046 346.465C173.507 345.556 173.223 344.519 173.223 343.462C173.188 342.371 173.522 341.301 174.172 340.424C174.876 339.561 175.814 338.921 176.874 338.58C178.205 338.147 179.6 337.944 180.999 337.98C181.982 337.975 182.964 338.054 183.935 338.214C184.867 338.372 185.789 338.582 186.697 338.844V341.553C185.927 341.305 185.138 341.122 184.337 341.006C183.543 340.878 182.74 340.812 181.935 340.808C180.996 340.769 180.063 340.976 179.228 341.409C178.874 341.618 178.587 341.923 178.399 342.288C178.211 342.654 178.13 343.065 178.165 343.474C178.168 343.819 178.248 344.16 178.397 344.471C178.546 344.782 178.762 345.057 179.029 345.276C179.824 345.854 180.8 346.127 181.779 346.044C182.635 346.071 183.481 345.852 184.217 345.414C184.851 345.03 185.375 344.488 185.736 343.841C186.07 343.268 186.25 342.618 186.259 341.955H187.357C187.372 343.261 187.112 344.557 186.595 345.756C186.116 346.879 185.329 347.843 184.325 348.537C183.223 349.257 181.924 349.618 180.609 349.569V349.569ZM186.853 349.017L186.253 344.381V336.719C186.337 335.665 186.047 334.615 185.436 333.752C184.896 333.112 183.977 332.791 182.68 332.791C182.016 332.775 181.356 332.887 180.735 333.122C180.228 333.309 179.788 333.641 179.468 334.076C179.164 334.517 179.009 335.043 179.023 335.578H173.956C173.902 334.32 174.267 333.08 174.995 332.053C175.764 331.09 176.813 330.389 177.997 330.047C179.517 329.594 181.099 329.379 182.686 329.41C184.165 329.378 185.634 329.65 187.003 330.209C188.193 330.702 189.197 331.557 189.873 332.653C190.597 333.932 190.95 335.388 190.894 336.857V349.017H186.853Z" fill="#0F0E0E"/>
<path d="M207.557 323.519H212.624L224.213 341.691H223.864V323.519H228.494V349.017H223.774L211.442 329.723H212.186V349.017H207.551L207.557 323.519Z" fill="#0F0E0E"/>
<path d="M242.903 349.569C241.326 349.582 239.779 349.145 238.442 348.308C237.068 347.443 235.951 346.226 235.205 344.783C234.367 343.14 233.954 341.313 234.005 339.469C233.952 337.596 234.364 335.739 235.205 334.064C235.927 332.648 237.03 331.461 238.39 330.639C239.75 329.816 241.314 329.391 242.903 329.41C244.272 329.375 245.628 329.69 246.842 330.323C247.925 330.912 248.843 331.763 249.514 332.797C250.199 333.872 250.662 335.072 250.877 336.328C251.113 337.666 251.127 339.033 250.919 340.376H237.691V337.86H247.646L246.746 338.46C246.784 337.836 246.754 337.21 246.656 336.592C246.567 335.989 246.379 335.404 246.097 334.863C245.825 334.345 245.421 333.908 244.926 333.596C244.341 333.255 243.67 333.088 242.993 333.116C242.137 333.086 241.294 333.335 240.591 333.824C239.922 334.312 239.404 334.978 239.096 335.746C238.746 336.622 238.573 337.559 238.586 338.502V340.346C238.569 341.316 238.732 342.281 239.066 343.192C239.347 343.965 239.845 344.641 240.501 345.138C241.197 345.587 242.004 345.832 242.832 345.846C243.659 345.86 244.475 345.642 245.185 345.216C245.502 344.999 245.771 344.72 245.978 344.396C246.184 344.072 246.323 343.709 246.385 343.33H251.057C250.883 344.516 250.408 345.637 249.676 346.585C248.929 347.537 247.96 348.292 246.854 348.783C245.61 349.33 244.261 349.598 242.903 349.569V349.569Z" fill="#0F0E0E"/>
<path d="M263.97 358.877C262.061 358.924 260.16 358.618 258.362 357.977C256.995 357.497 255.769 356.684 254.796 355.611C254.012 354.736 253.573 353.608 253.559 352.434C253.531 351.831 253.651 351.23 253.908 350.683C254.166 350.137 254.553 349.662 255.036 349.299C256.117 348.531 257.421 348.143 258.746 348.194L262.121 349.449C261.083 349.385 260.05 349.638 259.161 350.176C258.828 350.396 258.557 350.697 258.374 351.051C258.191 351.406 258.102 351.801 258.116 352.2C258.116 353.1 258.636 353.825 259.677 354.373C261.025 354.976 262.495 355.253 263.97 355.184C265.145 355.208 266.313 355.004 267.411 354.584C268.274 354.266 269.045 353.74 269.656 353.052C270.156 352.502 270.439 351.79 270.455 351.047C270.461 350.831 270.422 350.617 270.34 350.417C270.258 350.218 270.136 350.037 269.98 349.888C269.572 349.555 269.052 349.394 268.527 349.437H262.115C260.919 349.459 259.729 349.255 258.608 348.837C257.651 348.488 256.79 347.916 256.098 347.167C255.5 346.532 255.165 345.692 255.162 344.819C255.144 344.072 255.381 343.342 255.834 342.748C256.303 342.146 256.925 341.681 257.636 341.403C258.456 341.075 259.334 340.914 260.217 340.928L261.418 342.459C261.042 342.459 260.67 342.537 260.325 342.688C259.989 342.83 259.695 343.058 259.473 343.348C259.243 343.658 259.124 344.037 259.137 344.423C259.133 344.675 259.191 344.924 259.308 345.147C259.424 345.371 259.594 345.561 259.803 345.702C260.509 346.094 261.316 346.265 262.121 346.195H268.527C270.202 346.102 271.869 346.489 273.331 347.312C273.9 347.679 274.361 348.191 274.666 348.796C274.971 349.401 275.109 350.076 275.066 350.752C275.051 352.172 274.575 353.549 273.709 354.674C272.703 355.981 271.383 357.014 269.872 357.676C268.019 358.512 266.003 358.923 263.97 358.877V358.877ZM264.204 343.126C262.783 343.15 261.374 342.865 260.073 342.291C258.879 341.769 257.843 340.94 257.071 339.889C256.313 338.843 255.919 337.578 255.948 336.286C255.918 334.98 256.312 333.699 257.071 332.635C257.836 331.577 258.874 330.747 260.073 330.233C261.375 329.664 262.784 329.38 264.204 329.398C265.603 329.384 266.989 329.668 268.269 330.233C269.466 330.753 270.502 331.582 271.271 332.635C272.039 333.695 272.44 334.977 272.412 336.286C272.438 337.58 272.037 338.846 271.271 339.889C270.494 340.935 269.46 341.762 268.269 342.291C266.991 342.862 265.604 343.147 264.204 343.126V343.126ZM264.246 339.901C264.746 339.938 265.248 339.864 265.716 339.685C266.185 339.505 266.607 339.224 266.954 338.862C267.545 338.119 267.867 337.197 267.867 336.247C267.867 335.297 267.545 334.376 266.954 333.632C266.194 332.984 265.227 332.628 264.228 332.628C263.229 332.628 262.263 332.984 261.502 333.632C260.891 334.367 260.557 335.292 260.557 336.247C260.557 337.203 260.891 338.128 261.502 338.862C261.86 339.219 262.29 339.496 262.763 339.673C263.236 339.85 263.742 339.924 264.246 339.889V339.901ZM270.965 332.473L268.84 331.272C268.817 330.216 269.094 329.175 269.638 328.269C270.151 327.425 270.884 326.736 271.758 326.276C272.662 325.797 273.671 325.554 274.694 325.567L274.46 330.005C273.553 329.946 272.649 330.155 271.86 330.605C271.561 330.812 271.322 331.093 271.165 331.421C271.008 331.748 270.939 332.111 270.965 332.473V332.473Z" fill="#0F0E0E"/>
<path d="M279.488 349.017V329.885H284.13V349.017H279.488ZM282.989 340.646C282.931 338.546 283.217 336.45 283.835 334.443C284.243 333.043 285.025 331.783 286.099 330.798C286.978 330.027 288.106 329.6 289.275 329.597C289.575 329.595 289.874 329.615 290.17 329.657C290.452 329.694 290.731 329.753 291.005 329.831L290.938 334.485C290.602 334.409 290.236 334.343 289.84 334.287C289.489 334.239 289.136 334.213 288.783 334.208C287.871 334.175 286.973 334.434 286.219 334.947C285.489 335.494 284.945 336.253 284.664 337.121C284.29 338.259 284.115 339.454 284.148 340.652L282.989 340.646Z" fill="#0F0E0E"/>
<path d="M302.413 349.569C300.769 349.594 299.145 349.208 297.687 348.447C296.265 347.686 295.101 346.519 294.343 345.096C293.46 343.37 293.034 341.448 293.106 339.511C293.032 337.549 293.457 335.6 294.343 333.848C295.098 332.425 296.263 331.262 297.687 330.509C299.15 329.764 300.772 329.387 302.413 329.41C304.034 329.388 305.637 329.765 307.078 330.509C308.496 331.266 309.657 332.428 310.41 333.848C311.293 335.601 311.719 337.549 311.647 339.511C311.716 341.447 311.29 343.369 310.41 345.096C309.653 346.516 308.494 347.682 307.078 348.447C305.642 349.207 304.037 349.593 302.413 349.569ZM302.257 345.522C303.12 345.537 303.969 345.301 304.7 344.843C305.45 344.351 306.039 343.65 306.394 342.826C306.829 341.777 307.034 340.646 306.994 339.511C306.994 337.509 306.594 335.99 305.793 334.953C305.414 334.454 304.92 334.054 304.354 333.787C303.787 333.519 303.165 333.392 302.539 333.416C301.649 333.388 300.773 333.633 300.027 334.119C299.281 334.604 298.701 335.306 298.366 336.13C297.929 337.202 297.725 338.354 297.765 339.511C297.765 341.513 298.166 343.012 298.966 344.009C299.356 344.504 299.857 344.899 300.429 345.162C301.001 345.425 301.627 345.548 302.257 345.522V345.522Z" fill="#0F0E0E"/>
<path d="M0 125.058L16.8121 31.9789C16.8371 31.8198 16.9205 31.6758 17.0459 31.5748C17.1713 31.4738 17.3298 31.423 17.4905 31.4324H37.1186C37.2794 31.423 37.4379 31.4738 37.5633 31.5748C37.6887 31.6758 37.772 31.8198 37.7971 31.9789L53.9187 125.058C54.0087 125.514 53.8286 125.736 53.3783 125.736H38.3555C37.9892 125.736 37.7551 125.514 37.677 125.058L36.1879 115.167H17.7487L16.2597 125.058C16.1696 125.514 15.9414 125.736 15.5812 125.736H0.528379C0.180129 125.736 0 125.508 0 125.058ZM20.4567 100.671H33.462L27.908 62.5988L27.0974 57.5846L26.557 62.5988L20.4567 100.671Z" fill="#0F0E0E"/>
<path d="M65.8384 125.736C65.7467 125.748 65.6535 125.739 65.5661 125.709C65.4786 125.679 65.3992 125.629 65.3341 125.563C65.269 125.498 65.22 125.418 65.1908 125.33C65.1617 125.242 65.1531 125.149 65.1659 125.058L65.4361 31.9789C65.4252 31.9052 65.4316 31.8299 65.4548 31.759C65.4779 31.6881 65.5173 31.6236 65.5697 31.5706C65.6222 31.5176 65.6862 31.4775 65.7568 31.4535C65.8274 31.4295 65.9026 31.4223 65.9765 31.4325L91.3087 31.3003C96.0909 31.1616 100.814 32.3862 104.926 34.8313C108.982 37.2158 112.363 40.595 114.749 44.6496C117.186 48.765 118.451 53.4686 118.406 58.2511V97.134C118.467 102.16 117.155 107.108 114.611 111.444C112.118 115.742 108.542 119.311 104.239 121.795C99.9365 124.28 95.058 125.593 90.0898 125.604L65.8384 125.736ZM81.6898 109.072H90.0958C91.674 109.102 93.2413 108.805 94.6986 108.198C96.1558 107.591 97.4714 106.688 98.5619 105.547C99.676 104.452 100.557 103.142 101.151 101.697C101.746 100.253 102.041 98.7022 102.02 97.14V58.107C102.031 56.7025 101.753 55.3107 101.205 54.0176C100.656 52.7245 99.8489 51.5575 98.8321 50.5886C97.8676 49.5753 96.6983 48.7791 95.4021 48.2531C94.1059 47.7271 92.7125 47.4834 91.3147 47.5381L81.8339 47.6762L81.6898 109.072Z" fill="#0F0E0E"/>
<path d="M132.353 125.736C131.993 125.736 131.812 125.514 131.812 125.058L131.951 31.9789C131.94 31.9052 131.946 31.8299 131.969 31.759C131.992 31.6881 132.032 31.6236 132.084 31.5706C132.137 31.5176 132.201 31.4775 132.271 31.4535C132.342 31.4295 132.417 31.4223 132.491 31.4325H175.98C176.34 31.4325 176.521 31.6607 176.521 32.111V47.2859C176.532 47.3596 176.525 47.4349 176.502 47.5058C176.479 47.5767 176.439 47.6412 176.387 47.6942C176.335 47.7472 176.27 47.7873 176.2 47.8113C176.129 47.8353 176.054 47.8425 175.98 47.8323H148.234V68.9642H176.01C176.084 68.9541 176.159 68.9613 176.23 68.9853C176.301 69.0092 176.365 69.0493 176.417 69.1023C176.469 69.1554 176.509 69.2199 176.532 69.2907C176.555 69.3616 176.562 69.4369 176.551 69.5107L176.683 84.8176C176.693 84.8909 176.685 84.9655 176.662 85.0356C176.638 85.1057 176.599 85.1694 176.546 85.2217C176.494 85.274 176.43 85.3135 176.36 85.3372C176.29 85.3608 176.216 85.368 176.142 85.3581H148.234V109.072H176.142C176.503 109.072 176.683 109.3 176.683 109.751V125.196C176.693 125.269 176.685 125.344 176.662 125.414C176.638 125.484 176.599 125.548 176.546 125.6C176.494 125.652 176.43 125.692 176.36 125.715C176.29 125.739 176.216 125.746 176.142 125.736H132.353ZM145.767 24.5266C145.318 24.5266 145.138 24.3465 145.226 23.9862L156.04 0.54235C156.064 0.383162 156.147 0.238908 156.273 0.138628C156.399 0.0383493 156.558 -0.0105081 156.718 0.00189325H172.161C172.702 0.00189325 172.882 0.182045 172.702 0.54235L160.093 23.9622C160.026 24.1223 159.914 24.2592 159.769 24.3554C159.625 24.4516 159.456 24.5028 159.282 24.5026L145.767 24.5266Z" fill="#0F0E0E"/>
<path d="M191.966 125.736C191.606 125.736 191.426 125.514 191.426 125.058L191.558 32.111C191.545 32.0189 191.553 31.925 191.583 31.8367C191.612 31.7485 191.662 31.6683 191.728 31.6025C191.794 31.5367 191.874 31.487 191.962 31.4575C192.05 31.428 192.144 31.4195 192.236 31.4325H207.277C207.369 31.4195 207.463 31.428 207.551 31.4575C207.64 31.487 207.72 31.5367 207.786 31.6025C207.851 31.6683 207.901 31.7485 207.931 31.8367C207.96 31.925 207.969 32.0189 207.956 32.111L207.818 109.072H235.726C235.818 109.059 235.912 109.068 236 109.097C236.088 109.127 236.168 109.176 236.234 109.242C236.3 109.308 236.349 109.388 236.379 109.476C236.408 109.565 236.417 109.659 236.404 109.751V125.058C236.417 125.15 236.408 125.244 236.379 125.332C236.349 125.42 236.3 125.5 236.234 125.566C236.168 125.632 236.088 125.682 236 125.711C235.912 125.741 235.818 125.749 235.726 125.736H191.966Z" fill="#0F0E0E"/>
<path d="M248.593 125.736C248.5 125.749 248.407 125.741 248.318 125.711C248.23 125.682 248.15 125.632 248.084 125.566C248.018 125.5 247.969 125.42 247.939 125.332C247.91 125.244 247.901 125.15 247.914 125.058L248.052 31.979C248.041 31.9052 248.048 31.8299 248.071 31.759C248.094 31.6881 248.133 31.6237 248.186 31.5706C248.238 31.5176 248.302 31.4775 248.373 31.4535C248.443 31.4296 248.519 31.4224 248.593 31.4325H263.765C263.839 31.4224 263.915 31.4296 263.985 31.4535C264.056 31.4775 264.12 31.5176 264.172 31.5706C264.225 31.6237 264.264 31.6881 264.287 31.759C264.31 31.8299 264.317 31.9052 264.306 31.979L264.444 125.058C264.444 125.514 264.264 125.736 263.904 125.736H248.593Z" fill="#0F0E0E"/>
<path d="M274.461 125.058L291.273 31.9789C291.298 31.8198 291.381 31.6758 291.507 31.5748C291.632 31.4738 291.791 31.423 291.951 31.4324H311.598C311.758 31.4232 311.915 31.4741 312.04 31.5752C312.164 31.6763 312.246 31.8203 312.27 31.9789L328.392 125.058C328.482 125.514 328.302 125.736 327.851 125.736H312.84C312.474 125.736 312.24 125.514 312.162 125.058L310.673 115.167H292.21L290.721 125.058C290.631 125.514 290.402 125.736 290.042 125.736H275.031C274.641 125.736 274.461 125.508 274.461 125.058ZM294.918 100.671H307.947L302.393 62.5988L301.582 57.5846L301.042 62.5988L294.918 100.671Z" fill="#0F0E0E"/>
<path d="M27.639 246.402C22.9292 246.448 18.3031 245.157 14.2974 242.679C10.3209 240.235 7.01844 236.835 4.69051 232.789C2.2852 228.656 1.04051 223.951 1.08793 219.169V212.936C1.07492 212.844 1.0835 212.75 1.113 212.662C1.14249 212.573 1.1921 212.493 1.25789 212.427C1.32369 212.362 1.40388 212.312 1.49213 212.282C1.58038 212.253 1.67428 212.244 1.76642 212.257H16.9393C17.2936 212.257 17.4797 212.486 17.4797 212.936V219.187C17.4326 222.035 18.5115 224.787 20.4818 226.844C21.3878 227.854 22.4975 228.661 23.7378 229.211C24.9781 229.761 26.3209 230.043 27.6778 230.036C29.0347 230.03 30.3749 229.737 31.6101 229.175C32.8453 228.613 33.9475 227.796 34.8441 226.778C36.7929 224.734 37.8696 222.011 37.8463 219.187C37.8463 215.848 35.6787 212.958 31.3436 210.516L24.5468 206.703C21.4806 204.993 18.5905 203.368 15.8765 201.827C10.909 198.94 7.22833 195.305 4.83462 190.921C2.39168 186.362 1.15174 181.255 1.23203 176.083C1.15875 171.292 2.42747 166.576 4.89466 162.469C7.26297 158.516 10.5952 155.229 14.5796 152.915C18.5389 150.582 23.0556 149.364 27.651 149.39C32.3009 149.359 36.8702 150.605 40.8605 152.993C44.8203 155.336 48.1247 158.641 50.4673 162.601C52.8791 166.681 54.1252 171.344 54.0699 176.083V187.192C54.0809 187.266 54.0745 187.341 54.0513 187.412C54.0281 187.483 53.9887 187.547 53.9363 187.6C53.8839 187.653 53.8198 187.694 53.7492 187.718C53.6786 187.742 53.6034 187.749 53.5295 187.739H38.3567C38.2823 187.75 38.2064 187.743 38.135 187.72C38.0636 187.696 37.9988 187.656 37.9456 187.603C37.8925 187.55 37.8525 187.485 37.829 187.414C37.8055 187.342 37.7991 187.266 37.8103 187.192L37.6782 176.083C37.7303 174.659 37.4909 173.239 36.9747 171.911C36.4584 170.583 35.6762 169.375 34.676 168.36C33.7706 167.404 32.6781 166.643 31.4665 166.127C30.2549 165.61 28.95 165.349 27.633 165.358C26.2743 165.342 24.928 165.618 23.685 166.167C22.442 166.716 21.3313 167.525 20.4278 168.54C18.4757 170.553 17.3968 173.255 17.4256 176.059C17.4256 179.041 18.0581 181.525 19.323 183.511C20.5879 185.497 22.8896 187.394 26.228 189.204C26.6843 189.474 27.5609 189.948 28.8699 190.627C30.1788 191.306 31.6018 192.074 33.1389 192.927C34.676 193.78 36.105 194.566 37.3239 195.167C38.5428 195.767 39.2873 196.206 39.5635 196.368C43.7733 198.629 47.428 201.798 50.2632 205.646C52.8811 209.305 54.19 213.799 54.19 219.127C54.2628 223.882 53.0798 228.572 50.7604 232.723C48.4411 236.874 45.0676 240.339 40.9805 242.769C36.9508 245.181 32.3352 246.438 27.639 246.402V246.402Z" fill="#0F0E0E"/>
<path d="M59.0684 244.372L75.8804 151.294C75.9055 151.135 75.9891 150.992 76.1147 150.892C76.2403 150.792 76.3987 150.742 76.5589 150.753H96.205C96.3652 150.742 96.5236 150.792 96.6492 150.892C96.7748 150.992 96.8584 151.135 96.8835 151.294L113.005 244.372C113.089 244.823 112.909 245.051 112.459 245.051H97.4479C97.0876 245.051 96.8475 244.823 96.7694 244.372L95.2803 234.482H76.8111L75.322 244.372C75.232 244.823 75.0038 245.051 74.6435 245.051H59.6328C59.2485 245.051 59.0684 244.823 59.0684 244.372ZM79.525 219.986H92.5304L86.9884 181.908L86.1718 176.899L85.6314 181.908L79.525 219.986Z" fill="#0F0E0E"/>
<path d="M124.767 245.051C124.407 245.051 124.227 244.823 124.227 244.373L124.497 151.294C124.487 151.221 124.494 151.146 124.518 151.076C124.541 151.006 124.581 150.942 124.633 150.89C124.685 150.837 124.749 150.798 124.819 150.774C124.889 150.751 124.964 150.743 125.037 150.753H141.567C141.757 150.762 141.941 150.816 142.106 150.91C142.271 151.003 142.411 151.135 142.516 151.294L154.837 169.177L167.163 151.288C167.268 151.129 167.408 150.997 167.573 150.904C167.738 150.81 167.922 150.756 168.112 150.747H184.78C184.853 150.737 184.928 150.745 184.998 150.768C185.068 150.792 185.132 150.831 185.184 150.884C185.236 150.936 185.276 151 185.299 151.07C185.323 151.14 185.33 151.215 185.32 151.288L185.591 244.367C185.591 244.817 185.41 245.045 185.05 245.045H169.739C169.379 245.045 169.199 244.817 169.199 244.367L169.061 175.266L154.837 195.864L140.75 175.272L140.612 244.373C140.612 244.823 140.432 245.051 140.072 245.051H124.767Z" fill="#0F0E0E"/>
<path d="M200.362 245.051C200.27 245.064 200.176 245.055 200.088 245.026C200 244.996 199.919 244.947 199.854 244.881C199.788 244.815 199.738 244.735 199.709 244.647C199.679 244.559 199.671 244.465 199.684 244.372L199.954 151.294C199.944 151.22 199.951 151.145 199.975 151.074C199.999 151.003 200.039 150.939 200.092 150.887C200.145 150.835 200.209 150.795 200.28 150.772C200.351 150.749 200.426 150.742 200.5 150.753H226.511C234.821 150.753 241.392 153.283 246.223 158.344C251.054 163.404 253.47 170.274 253.47 178.953C253.47 185.359 252.205 190.913 249.675 195.617C247.399 200.044 243.986 203.784 239.786 206.456C235.814 208.962 231.207 210.279 226.511 210.252H216.213V244.396C216.226 244.489 216.218 244.583 216.188 244.671C216.159 244.759 216.109 244.839 216.044 244.905C215.978 244.971 215.898 245.02 215.809 245.05C215.721 245.079 215.627 245.088 215.535 245.075L200.362 245.051ZM216.213 193.834H226.511C229.401 193.834 231.907 192.457 234.028 189.702C236.15 186.948 237.211 183.357 237.211 178.929C237.211 175.402 236.262 172.512 234.365 170.258C232.467 168.004 229.849 166.875 226.511 166.871L216.213 167.009V193.834Z" fill="#0F0E0E"/>
<path d="M254.014 244.372L270.826 151.294C270.851 151.135 270.934 150.992 271.06 150.892C271.186 150.792 271.344 150.742 271.504 150.753H291.138C291.298 150.742 291.457 150.792 291.582 150.892C291.708 150.992 291.792 151.135 291.817 151.294L307.938 244.372C308.028 244.823 307.848 245.051 307.398 245.051H292.339C291.973 245.051 291.739 244.823 291.661 244.372L290.172 234.482H271.762L270.273 244.372C270.183 244.823 269.955 245.051 269.595 245.051H254.554C254.194 245.051 254.014 244.823 254.014 244.372ZM274.47 219.986H287.476L281.922 181.908L281.111 176.899L280.571 181.908L274.47 219.986Z" fill="#0F0E0E"/>
<path d="M319.846 245.051C319.755 245.063 319.661 245.054 319.574 245.024C319.486 244.994 319.407 244.944 319.342 244.878C319.277 244.813 319.228 244.733 319.199 244.645C319.169 244.557 319.161 244.464 319.174 244.373L319.306 151.294C319.296 151.22 319.303 151.146 319.327 151.076C319.35 151.006 319.39 150.942 319.442 150.89C319.494 150.837 319.558 150.798 319.628 150.774C319.698 150.751 319.773 150.743 319.846 150.753H335.019C335.093 150.742 335.168 150.749 335.239 150.772C335.31 150.795 335.374 150.835 335.427 150.887C335.48 150.939 335.52 151.003 335.544 151.074C335.568 151.145 335.576 151.22 335.565 151.294L335.698 244.373C335.698 244.823 335.517 245.051 335.157 245.051H319.846Z" fill="#0F0E0E"/>
<path d="M375.393 246.402C370.683 246.448 366.057 245.157 362.052 242.679C358.067 240.223 354.746 236.827 352.379 232.789C349.935 228.675 348.664 223.972 348.704 219.187L348.842 176.239C348.789 171.479 350.034 166.795 352.445 162.691C354.792 158.669 358.125 155.31 362.13 152.933C366.133 150.512 370.727 149.246 375.405 149.276C380.086 149.222 384.688 150.49 388.681 152.933C392.626 155.342 395.909 158.696 398.234 162.691C400.641 166.797 401.887 171.48 401.836 176.239L401.968 219.187C402.016 223.969 400.771 228.674 398.366 232.807C396.038 236.853 392.735 240.253 388.759 242.697C384.744 245.173 380.109 246.458 375.393 246.402V246.402ZM375.393 230.008C376.748 230.001 378.085 229.701 379.313 229.129C380.541 228.557 381.631 227.726 382.508 226.694C384.457 224.681 385.549 221.989 385.552 219.187L385.402 176.221C385.47 173.418 384.45 170.698 382.556 168.63C381.655 167.618 380.543 166.814 379.298 166.276C378.054 165.737 376.707 165.477 375.351 165.514C374.004 165.494 372.668 165.755 371.427 166.28C370.187 166.805 369.069 167.583 368.146 168.564C367.157 169.573 366.381 170.771 365.865 172.087C365.349 173.402 365.104 174.808 365.144 176.221V219.187C365.097 222.035 366.176 224.787 368.146 226.844C369.056 227.86 370.174 228.668 371.425 229.212C372.676 229.756 374.029 230.024 375.393 229.996V230.008Z" fill="#0F0E0E"/>
</svg>
